<svg xmlns="http://www.w3.org/2000/svg" xml:space="preserve" viewBox="0 0 342.7 342.1"><g transform="translate(-100.6 -151.4)"><mask id="a" width="348" height="115" x="173.3" y="388.5" maskUnits="userSpaceOnUse"/><g mask="url(#a)"><ellipse cx="347.4" cy="446" fill="#706f6f" rx="174" ry="57.5"/></g></g><g transform="translate(-100.6 -151.4)"><radialGradient id="b" cx="330.3" cy="451.8" r="332.8" gradientUnits="userSpaceOnUse"><stop offset="0" stop-color="#fff"/><stop offset="1"/></radialGradient><path fill="url(#b)" d="M272.3 152.7a169.7 169.7 0 1 0 0 339.4 169.7 169.7 0 0 0 0-339.4zm-83.2 72a45.8 45.8 0 0 1-14.2 8.8c1.2-4.3 3.9-9 8-12.8a27 27 0 0 1 16.6-8 42.6 42.6 0 0 1-10.4 12zm214.7 130.8c.2-1.6.4-3.1.8-4.7 2.1-9 8.2-15.6 13.9-16.4h-.4v-.2l-1.8-.8 1.9.7.3.2c-2 12.6-8.5 22-14.7 21.2z"/><path fill="#fff" d="M272.3 152.7a169.7 169.7 0 1 0 0 339.4 169.7 169.7 0 0 0 0-339.4zM138.7 364.2c-5.8.7-11.7-8.5-13.3-20.7-1.5-12.2 1.9-22.6 7.6-23.4 5.8-.7 11.7 8.6 13.3 20.7 1.6 12.2-1.8 22.6-7.6 23.4zM177 245.3c-5.4-5.6-2.8-17 6-25.3 8.6-8.3 20-10.5 25.5-4.9 5.4 5.6 2.7 17-6 25.3s-20.1 10.5-25.5 5zM229.8 448c-2.3 5.8-13.3 6.7-24.7 2.2-11.3-4.6-18.6-12.9-16.3-18.6 2.3-5.8 13.3-6.8 24.7-2.2 11.3 4.5 18.6 12.9 16.3 18.6zm10-88.8c-13 1-24.3-8.8-25.4-22a23.8 23.8 0 0 1 21.5-26c13-1 24.3 9 25.3 22.2 1.1 13.2-8.5 24.8-21.4 25.8zm60.8-99.8c-12.7-2.7-21.1-13.4-18.9-24 2.2-10.5 14.3-17 27-14.2 12.7 2.6 21.2 13.4 19 24-2.3 10.5-14.4 16.9-27 14.2zM334.1 427c-11.6 4.7-23.5 2.4-26.5-5-3.1-7.5 3.9-17.5 15.5-22.2 11.6-4.7 23.5-2.5 26.6 5 3 7.5-4 17.4-15.6 22.2zm49.3-189.6c-7.3-9.4-10.2-19.4-6.4-22.3 3.8-3 12.7 2.3 20 11.7 7.4 9.4 10.3 19.4 6.5 22.4-3.7 2.9-12.7-2.4-20-11.8zM403.6 356c-6.3-1-9.9-12-8-24.5 1.9-12.6 8.5-22 14.8-21.1 6.2 1 9.8 11.9 8 24.5-2 12.6-8.5 22-14.8 21z"/><g fill="#c6c6c6"><path d="M352.9 404.6c-3.6-8.8-17.2-11.6-30.3-6.2-13.2 5.3-21 16.8-17.4 25.6 3.6 8.8 17.1 11.6 30.3 6.2 13.2-5.4 21-16.8 17.4-25.6zm-19.1 22c-11.6 4.6-23.5 2.4-26.5-5-3-7.5 3.9-17.4 15.5-22.1 11.5-4.7 23.4-2.5 26.4 5 3 7.4-3.9 17.3-15.4 22zm-12.1 53c.2 1.8-10.5 5-24 7-13.4 2.2-24.6 2.5-24.8.8-.3-1.7 10.4-4.9 23.9-7 13.4-2.1 24.6-2.5 24.9-.7z"/><ellipse cx="329.8" cy="166.6" rx="24.7" ry="3.2" transform="rotate(19.6 329.9 166.5)"/><path d="M134.8 226.2c.8.5-3 9.2-8.5 19.5S115.7 264 115 263.6c-.8-.4 3-9.1 8.5-19.5 5.5-10.3 10.7-18.3 11.5-17.9zm279.8 180.1c1.3 1.1-3.8 9.8-11.5 19.3s-15 16.4-16.4 15.3c-1.3-1.1 3.8-9.8 11.5-19.3s15-16.4 16.4-15.3zm-200.9 22.1c-12.9-5.2-25.6-3.7-28.4 3.3-2.8 7 5.4 16.8 18.3 22 12.9 5.2 25.6 3.7 28.4-3.3 2.9-7-5.3-16.8-18.3-22zm16.2 19c-2.3 5.8-13.3 6.8-24.6 2.2-11.3-4.5-18.6-12.8-16.3-18.5 2.3-5.7 13.4-6.7 24.6-2.2 11.3 4.6 18.6 12.9 16.3 18.6zM309.4 218c-14.1-3-27.6 4.2-30.1 16s7 23.8 21.1 26.7c14.2 3 27.7-4.1 30.2-15.9s-7-23.8-21.2-26.8zm17.9 27.5c-2.2 10.6-14.3 17-26.9 14.3-12.6-2.7-21-13.4-18.9-24 2.3-10.4 14.3-16.8 27-14.1 12.6 2.6 21 13.3 18.8 23.8zM235.5 308a27.5 27.5 0 0 0-24.9 30 27.6 27.6 0 0 0 29.4 25.5 27.6 27.6 0 0 0 24.8-30 27.6 27.6 0 0 0-29.3-25.5zm4.3 51.1a23.7 23.7 0 0 1-25.2-22 23.7 23.7 0 0 1 21.4-25.7c12.8-1 24.1 8.8 25.2 22 1 13.1-8.5 24.7-21.4 25.7zm-109-42.7c-7.3 1-11.7 13.4-9.9 27.8 1.9 14.3 9.3 25.2 16.6 24.3 7.3-1 11.8-13.4 10-27.8-2-14.3-9.4-25.2-16.7-24.3zm8.4 47.7c-5.7.8-11.6-8.4-13.2-20.5-1.6-12.2 1.8-22.6 7.6-23.3 5.7-.7 11.6 8.5 13.2 20.6 1.5 12-1.9 22.5-7.6 23.2zM395 344.6v-.2.2zm1.8 5.7zm-1.6-4.7-.2-1 .2 1zM412.5 307.7c-7.7-1.1-15.6 9.2-17.7 23a41 41 0 0 0 .2 13.7c-.7-3.8-.8-8.2 0-12.9 1.8-12.5 8.4-22 14.6-21 6.3 1 9.8 11.8 8 24.4-1.9 12.5-8.5 21.9-14.7 21-2.6-.4-4.7-2.5-6.1-5.6 1.8 4.2 4.7 7 8.2 7.6 7.7 1.1 15.7-9.2 17.7-23 2-13.9-2.5-26-10.2-27.2zm-201.3-95.3c-6.4-6.7-19.8-4-30 5.7-10.3 9.9-13.4 23.2-7 29.8 6.3 6.6 19.7 4 30-5.8 10.2-9.8 13.3-23.1 7-29.7zm-8.5 28.5c-8.6 8.3-20 10.5-25.4 5-5.4-5.7-2.7-17 6-25.3 8.6-8.3 20-10.5 25.3-4.9 5.4 5.6 2.8 17-5.9 25.2zm180-3.4zM376.4 215.6c3.8-2.9 12.7 2.3 20 11.7 7.3 9.4 10.2 19.3 6.4 22.2-2.4 2-7.2.4-12.2-3.6 6.6 5.6 13 8 16.2 5.4 4.6-3.6 1.2-15.5-7.5-26.7s-19.5-17.3-24-13.8c-3.8 3-2.2 11.4 3.2 20.5-4-7-5-13.4-2.1-15.7z"/></g><circle cx="272.3" cy="322.4" r="169.7" fill="none" stroke="#9d9d9c" stroke-miterlimit="10" stroke-width=".7"/><path fill="none" stroke="#9d9d9c" stroke-miterlimit="10" stroke-width=".7" d="M327.7 245c-2.3 10.6-14.4 17-27 14.3-12.7-2.7-21.2-13.4-19-24 2.2-10.5 14.3-17 27-14.2 12.7 2.6 21.2 13.4 19 24z"/><path fill="none" stroke="#9d9d9c" stroke-miterlimit="10" stroke-width=".7" d="M331 244.3c-2.5 11.8-16.1 19-30.3 16-14.3-3-23.8-15-21.3-26.9 2.5-11.8 16-19 30.3-16s23.8 15 21.3 26.9z"/><ellipse cx="237.8" cy="335.1" fill="none" stroke="#9d9d9c" stroke-miterlimit="10" stroke-width=".7" rx="23.5" ry="24.1" transform="rotate(-4.7 237.6 335.3)"/><path fill="none" stroke="#9d9d9c" stroke-miterlimit="10" stroke-width=".7" d="M265 333.5a27.7 27.7 0 0 1-25 30 27.7 27.7 0 0 1-29.6-25.6 27.7 27.7 0 0 1 25-30.1 27.7 27.7 0 0 1 29.5 25.7zm-118.7 7.3c1.6 12.2-1.8 22.6-7.6 23.4-5.8.7-11.7-8.5-13.3-20.7-1.6-12.2 1.8-22.6 7.6-23.4 5.8-.7 11.7 8.6 13.3 20.7z"/><path fill="none" stroke="#9d9d9c" stroke-miterlimit="10" stroke-width=".7" d="M147 340.7c1.8 14.4-2.6 27-10 27.9-7.4 1-14.8-10-16.7-24.5-1.9-14.4 2.6-27 10-27.9 7.3-1 14.8 10 16.6 24.5zm202.7 64c3 7.5-4 17.4-15.6 22.2-11.6 4.7-23.5 2.4-26.5-5-3-7.5 3.9-17.5 15.5-22.2 11.6-4.7 23.5-2.5 26.6 5z"/><path fill="none" stroke="#9d9d9c" stroke-miterlimit="10" stroke-width=".7" d="M353.4 404.8c3.6 8.9-4.2 20.4-17.5 25.8-13.2 5.3-26.9 2.5-30.5-6.3-3.5-8.8 4.3-20.3 17.5-25.7 13.2-5.4 26.9-2.6 30.5 6.2zM322 480.2c.3 1.8-10.5 5-24 7-13.5 2.2-24.7 2.6-25 .8-.3-1.7 10.5-4.9 24-7 13.5-2.2 24.7-2.5 25-.8z"/><ellipse cx="330.2" cy="165.7" fill="none" stroke="#9d9d9c" stroke-miterlimit="10" stroke-width=".7" rx="24.8" ry="3.2" transform="rotate(19.6 330.3 165.7)"/><ellipse cx="124.3" cy="244.4" fill="none" stroke="#9d9d9c" stroke-miterlimit="10" stroke-width=".7" rx="21.3" ry="1.6" transform="rotate(-62 124.3 244.4)"/><path fill="none" stroke="#9d9d9c" stroke-miterlimit="10" stroke-width=".7" d="M415.4 406.6c1.3 1-3.8 9.7-11.5 19.3-7.8 9.6-15.1 16.5-16.5 15.4-1.4-1.1 3.8-9.8 11.5-19.4 7.7-9.6 15-16.4 16.5-15.3zm-185.6 41.3c-2.3 5.8-13.3 6.7-24.7 2.2-11.3-4.6-18.6-12.9-16.3-18.6 2.3-5.8 13.3-6.8 24.7-2.2 11.3 4.5 18.6 12.9 16.3 18.6z"/><path fill="none" stroke="#9d9d9c" stroke-miterlimit="10" stroke-width=".7" d="M232 450.9c-2.9 7-15.7 8.5-28.6 3.3-13-5.2-21.2-15.1-18.4-22.1 2.8-7 15.6-8.5 28.6-3.3 13 5.2 21.2 15 18.4 22.1z"/><ellipse cx="407" cy="333.1" fill="none" stroke="#9d9d9c" stroke-miterlimit="10" stroke-width=".7" rx="11.5" ry="23.1" transform="rotate(8 407 333)"/><path fill="none" stroke="#9d9d9c" stroke-miterlimit="10" stroke-width=".7" d="M423.5 334.8c-2 14-10 24.3-17.7 23.1-7.8-1.1-12.4-13.3-10.3-27.3 2-13.9 10-24.2 17.7-23 7.8 1 12.4 13.3 10.3 27.2zm-215-119.7c5.4 5.6 2.7 17-6 25.3s-20.1 10.5-25.5 5c-5.4-5.7-2.8-17 6-25.4 8.6-8.3 20-10.5 25.4-5z"/><path fill="none" stroke="#9d9d9c" stroke-miterlimit="10" stroke-width=".7" d="M202.3 213c-.5-.4-1.5-.5-2.7-.2-1 3-4.6 7.6-9.8 12a37.7 37.7 0 0 1-13.9 8.5c-.4 1.2-.4 2.1.2 2.6 2 1.9 9.4-1.8 16.6-8 7.2-6.4 11.6-13 9.6-14.8z"/><ellipse cx="192.4" cy="229.6" fill="none" stroke="#9d9d9c" stroke-miterlimit="10" stroke-width=".7" rx="25.8" ry="16.7" transform="rotate(-44 192.3 229.6)"/><path fill="none" stroke="#9d9d9c" stroke-miterlimit="10" stroke-width=".7" d="M403.5 249c-3.7 3-12.7-2.3-20-11.7C376 228 373.1 218 377 215s12.8 2.3 20 11.7c7.4 9.4 10.3 19.4 6.5 22.4z"/><path fill="none" stroke="#9d9d9c" stroke-miterlimit="10" stroke-width=".7" d="M407.5 250.8c-4.6 3.6-15.4-2.6-24.1-13.8-8.8-11.2-12.2-23.2-7.6-26.8 4.7-3.6 15.5 2.6 24.2 13.8 8.8 11.2 12.1 23.2 7.5 26.8z"/><path fill="none" stroke="#9d9d9c" stroke-miterlimit="10" stroke-width=".7" d="M356 187.6c-13.7 9.6-10.5 37.9 7.2 63.2 17.7 25.3 43.1 38.1 56.8 28.6 6.3-4.4 9-12.8 8.4-23A170.3 170.3 0 0 0 372 185c-6-1.2-11.5-.4-15.9 2.6zm62 147.2v-.2c-.5-.3-1.1-.6-1.8-.8-6.6-1.5-14 6-16.7 16.9l-.5 2.6a7 7 0 0 0 4.3 2.6h.4c.1-1.5.4-3 .8-4.6 2.1-9 7.8-15.6 13.5-16.5z"/><path fill="none" stroke="#9d9d9c" stroke-miterlimit="10" stroke-width=".7" d="M393.8 204c14.6 15 26.4 32.8 34.6 52.4.7 10.2-2 18.6-8.4 23l-1.2.7.3 2.4c0 .9 0 1.7-.3 2.3-.8 2.2-3 1.4-4.3-1.6l-.5-1.2c-2.7.6-5.6.7-8.7.2a9 9 0 0 1 .4 5.2l-.6 1.2c-2 2.7-6.1-.5-6.9-5.3-.1-1 0-2 .2-2.9-7.3-2.6-15-7.6-22.4-14.6 2.4 3.2 1.9 6.7.4 8-3 2.8-8.5-1.6-8.4-6.6 0-3.5 3.3-5.2 6.6-2.7a97.2 97.2 0 0 1-6.7-7.5c.1 1.8-.6 3.3-1.7 4-3.3 2-8.5-2.3-8.3-6.9 0-2.8 2.6-4.3 5.3-3.3a104 104 0 0 1-4.3-6.7c0 1.8-1 3-2.2 3.5-3.5 1.3-8.3-2.8-8.1-6.9.1-3.3 4-4.4 7.4-1.9a64.3 64.3 0 0 1-8.1-36.3c-.8.2-1.8.2-2.7 0-3.6-.9-6.8-4.3-6.2-6.6.7-2.6 7-1.3 9.8 2.5 1-3.3 2.4-6.2 4.6-8.4-2.2-1.6-3.6-3.5-3-4.4.8-1.1 3.8-.1 6.4 1.6l1.5-.9c-.9-.4-1.8-.8-2.5-1.3-2.8-1.8-4.5-3.8-3.6-4.3 1.5-.9 6.9 2.1 9 4.5 3.2-.9 6.8-1 10.5-.3-5.8-4.2-12-8-18.3-11.6.2.3.2.5.2.7-.6 1.6-10.7-.5-22.9-4.7 1.5.7 3.7 2 3.6 3-.6 1.1-4.4.3-7-.7-3-1.3-4.8-2.9-3.9-3.6.4-.3 1.6-.5 4 0-12-4.3-21.2-9-20.6-10.6.2-.5 1.3-.6 3.2-.4a169.7 169.7 0 1 0 83.8 47zm45.1 108.2c.3 3.4 0 6.7-.8 6.8-1.4.1-2.1-9-1-11.5l.1-.2c.6-.7 1.4 1.6 1.7 4.9zm.4 15.8c0 3.5-.7 6.6-1.4 6.7-1.3 0-1.2-9 .1-11.5l.1-.2c.7-.6 1.3 1.6 1.2 5zm-4.5-36.2v-.2c.6-.8 1.6 1.3 2.2 4.6.7 3.4.6 6.7-.1 7-1.3.3-3-8.8-2.1-11.4zm-31 134.1c-7.7 9.6-15 16.5-16.4 15.4-1.4-1.1 3.8-9.8 11.5-19.4l2.9-3.5c-.5.3-1 .3-1.3.1-1.5-1.2 2.8-9.1 6.3-9.9 1.5 0 .9 2.4-.3 4.6 4.5-4.6 8-7.4 8.8-6.6.4.2.3 1 0 2l1.4-1.6.3-.2c.6-.1-.2 1.9-1.8 4.7-1.8 3-3.9 5.5-4.4 5.4v-.2c-2 2.8-4.3 6-7 9.2zM298 487.3c-13.5 2.1-24.7 2.5-25 .7-.3-1.4 7.3-3.9 17.7-5.9-.5-.2-1-.4-1-.7-1.2-1.7 6.2-4.3 10.6-2.9l.6.3c.7.5.6 1 0 1.6l6.9-.8c-.7-1.6 6.6-4.7 10.7-3.9l.3.1c1.5.6.2 2.2-2.9 3.3l3 .1c2.2-.8 4.8-1.3 6.5-1.2l.5.1c1 .5-.6 1.7-3.7 2.8l-1.1.4c-1.1.7-3.2 1.5-6 2.4.7.4-1 1.2-4 2-3.5 1-7.1 1.4-7.5.8v-.2l-5.6 1zM180.8 208c1.3-4 8.6-8 10.2-4.6.8 2.6-2.4 5.8-5 7-3.5 1.8-6.2.6-5.2-2.4zm-1.1-8.8c1.7-3.7 9-7.6 10.1-4.7.4 2.4-2.9 5.4-5.4 6.6l-1 .5c-3 1-4.8 0-3.7-2.4zm6.2-18.6c-2 1-3.2 1.4-3.6 1.4-.6 0-.3-.6.8-1.6a22.1 22.1 0 0 1 3.5-2.4h.1l.4-.3c2.7-1.6 5.6-2.8 5.5-2-.5 1.2-4.2 3.6-6.7 4.9zm4.7 0c-.2 1.6-3.8 4.2-6.3 5.5-1.6.8-2.6 1-3 1.1-1.3.2-1.6-.3-.8-1.4 2-2.8 9.8-7.1 10.1-5.1zm-.9 6.3c.1 2-3.4 4.8-5.9 6-.4.3-1 .5-1.5.7-2.5.8-3.7.2-2.8-1.6 1.6-3.2 9.4-7.7 10.2-5zm-8.9 30.5a35 35 0 0 1 14.8-8.7v-1.5c1.3-4.2 8.8-7.6 10.7-3.8.6 1.7-.3 3.5-1.8 4.8a12 12 0 0 1 6.5 3.4c6.4 6.6 3.2 20-7 29.9-10.3 9.9-23.8 12.5-30.2 5.8-6.4-6.6-3.2-20 7-29.9zm17.8-40.4c-1.8.6-2.8.8-3.1.8-1.3.1-1.6-.4-.7-1.3 2.2-2.5 10.3-6 10.5-4.2-.4 1.5-4.1 3.6-6.7 4.7zm.5 23.2c-3.7 1.5-6.4.1-5.3-2.7 1.6-3.8 9.1-7.1 10.6-3.7.6 2.6-2.7 5.4-5.3 6.4zm4.8-22.1c0 1.8-3.7 4.2-6.3 5.3l-1.5.5c-2.6.6-3.8-.1-2.8-1.7 1.9-3 10-6.6 10.6-4.1zm-.3 7.2c.3 2.2-3.2 4.8-5.8 5.8-3.5 1.4-5.8.5-4.9-1.7 1.5-3.5 9.5-7.3 10.7-4.2zm102.8-8.7c1.3-2.6 9.7-1.3 11.2 2.8.4 2.4-3 3-5.8 2.4-3.6-.8-6.3-3.3-5.4-5.1zm0-7.4c.4-.6 1.4-.8 2.6-.9h.2a11 11 0 0 1 .8 0c3.1.2 7.2 1.7 7.6 3.9 0 1.9-3.8 1.8-6.4 1.1-3.4-.9-5.7-2.9-4.8-4.1zm17.4 46.3c-3.9.1-7.8-3.4-7.3-6.4.6-3.7 7.6-3.7 10.7 1 1.7 3.4-.9 5.3-3.4 5.4zm3.9-14c.9-3 7.8-2.2 10.5 2.4 1.5 3.2-1.2 4.6-3.7 4.4-3.9-.4-7.6-4-6.8-6.7zM317 220c2.2 1.1 4.2 2.5 6 4-.3-.7-.4-1.4-.2-2.1.6-3.8 6.9-4.1 10.2.5 2.1 3.6-.1 6-2.6 6.3-1.2.2-2.4 0-3.6-.6 1.6 2 2.8 4.3 3.5 6.7.8-3.6 6.4-4.1 9.8.2 2.4 3.7.5 6.5-1.8 7.1-2.7.7-5.7-1-7.2-3.4.2 1.9.2 3.8-.2 5.7-1.9 8.7-9.7 14.9-19.4 16.3.8 3-.9 5.3-2.9 6.2-3.8 1.6-8.6-1.7-8.5-5.9l.1-.7c-2.6-.6-5-1.4-7.3-2.6 0 2.3-1.6 4-3.4 4.8-4 1.6-8.6-1.7-8.3-5.8.2-2.3 2-4 4.1-4.6-1-1-1.9-2-2.6-3.2l-1 .4c-4 1.4-8.6-2-8-5.9.4-2.5 2.8-4.1 5.3-4.3a18.5 18.5 0 0 1 3-12c-2.4-.9-4.2-3-3.8-5.4.6-4.2 7.6-5.6 11-1.2 1.2-.7 2.5-1.4 4-1.9-2.8-.8-5-3.2-4.5-5.7.7-4 8-4.8 11-.2 1 1.8.7 3.3-.2 4.3 2-.2 4-.2 6 0l.2-.5c.9-3.7 7.5-4 10.6.5.7 1.2.8 2.2.7 3zm111 101.3c-2.6-1.8-2.5-11 .1-11.5 1.8 0 2.6 4 2.6 6.7 0 3.6-1.3 5.8-2.7 4.8zm2.8 10.9c-.3 3.5-1.7 5.8-3 4.9-2.1-1.5-2-10.8 1-11.6 1.8 0 2.3 4 2 6.7zm-4.6 13.8c.2-1.2 1.1-5 2.8-5.5 1.6 0 1.9 3.7 1.4 6.5-.5 3.2-2 5.5-3.1 5-.8-.2-1.7-2-1-6zm1.5 9.3c1.6-.2 1.6 3.5.9 6.2-.8 3.2-2.3 5.5-3.5 5.1-.8-.3-1.3-2.3-.5-5.8.3-1.3 1.4-5 3.1-5.5zm2.8 12.6.2-.1c.9-.4.9 2-.1 5.4-1 3.1-2.4 5.7-3.2 5.8-1.4 0 .5-9 3.1-11.1zm-4.7 1c1.6-.4 1.2 3.2.3 5.9-1 3.1-2.6 5.4-3.7 5.1-.8-.2-1-2.2 0-5.5.3-1.3 1.7-4.9 3.4-5.6zm-3.2 19.3c-1.3 3-3 5.3-4 5.1-1.7-.3 1-9.3 4.2-10.8 1.5-.4.9 3-.2 5.7zm.2-27c-1 3.3-3 5.3-4.3 4.2-2-1.8-.3-11 3.2-11.2 2 .3 1.9 4.2 1.1 7zm-2.8 7c2 .2 1.6 4 .6 6.6-1.2 3.3-3.3 5.3-4.4 4.3-2-1.5.4-10.5 3.9-10.9zm-2.7 14.1c1.8 0 1.2 3.7 0 6.3-1.4 3.2-3.5 5.2-4.6 4.4-1.7-1.4 1.3-10 4.6-10.7zm-290.8-16c.3-1.2 1-2 2-1.5a24.3 24.3 0 0 1-3.2-4.6c0 1-.3 1.9-.6 2.4l-.5.5c-2.3 1.2-5.2-5.7-4.2-9.8.3-1 .9-1.8 1.8-1.5a50.4 50.4 0 0 1-.7-24.6c-.3-1.6-.3-3.5.1-5.2.6-2.2 2-4 3.6-2.4a10 10 0 0 1 2.8-2.4l.2-1.5c.8-3.6 3.3-5.4 5.3-2.3a9 9 0 0 1 1 3.5c2.4 1 4.7 3.2 6.7 6.3 0-.5 0-1 .2-1.4.7-3.6 3.9-6 6.5-2.3 2.1 3.7 1 7.8-.7 9.3l-.3.3c-.8.6-1.7.7-2.5.4a48.1 48.1 0 0 1 1.6 29.5c2.4 3.7 1.7 7.4.3 8.6l-.3.2c-1.3.8-3 0-4.2-1.5a9 9 0 0 1-2.1 1.6c.2 1.9-.2 3.4-.9 4l-.2.3c-1.8 1.2-4-1.1-5.2-4.1a11 11 0 0 1-2.4-1.4l.2.2c2.3 3.8 2.2 7.4 1.2 8.6l-.4.3c-2.4 1.3-6-5.4-5-9.4zm-.3 12.5-.3.4c-2 1.3-5.6-6-4.9-9.8.3-1.4 1.5-2.3 3.5.9 2.3 3.8 2.4 7.4 1.7 8.5zM113 324.1c-1.9.7-2.8-6.3-1.4-10.3.2-.5 1.3-3 2.5-.4 1.2 3.1.8 7.4 0 9.3-.4 1-.8 1.2-1 1.3zm.3 14c-.2.5-.4 1-.7 1-1.9 1.2-3.5-6.9-2.1-10.6.2-.5 1-2.2 2.2.3 1.3 3.2 1.2 7.4.6 9.2zm.6-39c.7-1.8 2-3.8 3.1-1.5 1 3 .3 7.3-.7 9.2-.5 1-1 1.4-1.3 1.5-1.9.8-2.5-4.8-1-9.1zm.8 41.6c.4-1.3 1.4-2.7 3 .1 1.7 3.5 1.6 7.6 1 9.1-.3.5-.5.8-.8.9-2 1.1-4.3-6-3.2-10zm4.1-6.5c-.2.4-.5.8-.8 1-2.1 1.3-4-5-2.8-9.5.5-1.8 1.8-3.4 3.3-.7 1.6 3.3 1.2 7.5.3 9.2zm.5-15.1c-2.2 1-3.5-4.6-2.2-9 .7-2.2 2.3-4 3.7-1.4 1.4 3.2.7 7.4-.4 9.2-.3.6-.7 1-1.1 1.2zM208.4 198c1.4-4 9.1-6.8 11-3 .8 2.7-2.5 5.4-5.2 6.3-3.8 1.2-6.7-.5-5.7-3.3zm-1.6-9c1.3-3.7 9.5-7 11-3.3.5 2.5-3 5-5.7 5.8-3.5 1-6.1-.2-5.3-2.6zm4.3 19.3c1-4.2 8.7-7.2 11-3.2 1.1 3-2 6-4.8 6.8-3.8 1.3-7-.5-6.2-3.6zm84-7.2c1.4 3.2-1.6 5.2-4.4 5.4-4.1.2-7.8-2.9-6.8-5.9 1.1-3.5 8.5-4 11.2.4zm-2.3-18.7c1-3.2 9.4-3 11.4 1.4.8 2.8-2.6 4-5.3 3.7-3.7-.4-6.7-2.9-6-5zm-8.8 26.3c1.7 3.4-1.3 5.7-4 6.1-4.1.6-8-2.3-7.1-5.6 1-3.8 8.3-4.9 11.2-.5zm-49.4 255.4c-.4-2.8 5.7-3.6 10.1-.6 3.3 2.6 1.3 4.3-1.1 4.6-3.8.5-8.6-1.7-9-4zm-.9 7.6c-3.7.2-8.4-2.1-8.7-4.2-.4-2.4 5.5-2.7 9.9.3l.7.6c1.7 1.7.9 3.2-1.9 3.3zm-98.6-162.4c.8-3.6 3.9-6.3 6.2-2.7 1.8 3.6.7 7.7-1 9.3 0 .2-.4.4-.6.6-2.9 1.8-5.6-2.4-4.6-7.2zm-.4-5.7-1 .8c-2.6 1.5-4.7-2.4-3.6-7 .8-3.6 3.7-6.5 5.8-3.1 1.5 3.4.3 7.5-1.2 9.3zm3.5-12.3c1-4.3 4.5-7 6.7-3.5 1.7 3.4.2 7.6-1.6 9.3a5 5 0 0 1-.7.6c-3 1.8-5.4-1.7-4.4-6.4zm5.3 12c.9-4.3 4.6-6.7 7-3a8 8 0 0 1-1.3 9.2l-.3.3c-3.2 2.3-6.4-1.5-5.4-6.4zm224.2 93.3c-2.8 3.2-7 3-8-.4-1.3-4.3 3.7-10 8.1-7.8 3 2 1.8 6 0 8.2zm9.3-1.4c2.7 1.6 1.6 5.5-.2 7.7-2.6 3.1-6.4 3.5-7.5.8-1.6-3.6 3.4-10.2 7.7-8.5zm-23.7 19.2c.5 0 1 .2 1.4.3 2.8 1.8 1.3 5.5-.9 7.5-2.3 2.1-5.3 2.6-7 1.5-1 1-2.2 2-3.5 2.8.2 1.8-1 3.7-2.6 5-3 2.3-7 2.4-8.2.2a38 38 0 0 1-3.8 1c2.6 2 .8 5.1-1.6 6.8-3.5 2.3-7.8 2-8.7-.6-.6-1.9 1-4.2 3.4-5.6-7.4-.2-13.5-3.1-16-8.3-3.1.8-6.3-.4-6.8-3.2-.7-3.2 2.6-6.4 6.4-6.6.9-2.7 2.5-5.4 4.7-7.9-3.6 1.6-7.9-.1-8.3-3.8-.6-4.6 5.6-8.6 10.3-5.3 2.2 2 2.2 4.2 1.3 6 2.5-2 5.4-3.8 8.7-5.3-3.2 1-6.6-.8-7.1-4.1-.7-4.7 5.2-9 10-5.7 3.2 2.8 1.7 6.9-.6 8.7l-.9.6c5-2 10-2.7 14.5-2.5-.7-4.5 4.6-9.1 9.1-6.3 3.2 2.4 1.9 6.4-.3 8.4 1 .6 2 1.2 2.9 2 1.7-2.2 4.7-3.5 7.3-2 3 2 1.7 6-.4 8-.8.7-1.6 1.3-2.5 1.6a14 14 0 0 1-.8 6.8zm-198-47.4c.6-3.6 4.1-4.8 7.2-1 2.7 3.9 1.8 7.5 0 8.6-3.2 2.1-7.8-2.8-7.1-7.6zm-1 13.5c-2.8 2-7.2-2.8-6.8-7.5.3-3.5 3.4-4.5 6.4-.8 2.6 3.8 2 7.3.4 8.3zm16.7-11.9c-3.4 2.2-8-2.2-7.5-7.1.4-4.1 4.3-5.7 7.7-1.7 2.7 4 1.6 7.7-.2 8.8zm1.4-12.7c.3-4.5 4.8-6.6 8.4-2.4 2.8 3.9 1.4 7.7-.6 9-3.4 2-8-1.9-7.8-6.6zm-.1 19c.3-4 4.5-5.5 8-1.4 3 3.9 1.8 7.5-.1 8.6-3.5 2-8.4-2.5-8-7.3zm9-5.7c.2-4.4 4.9-6.3 8.6-2.1 3 3.9 1.7 7.6-.4 8.8-3.5 2-8.4-2-8.2-6.7zm10.1-6.8c.4-4.5 5.4-6.6 9.2-2.4 3 3.8 1.4 7.6-.8 8.9-3.8 2.1-8.8-1.8-8.4-6.5zm18.8 11c3.1 3.8 1.6 7.5-.7 8.7-3.6 2-8.6-1.4-8.7-6-.1-4.7 5.2-7 9.4-2.7zm1-12.3c-3.8 2.2-8.7-1-8.5-5.7.1-4.8 5.7-7.5 9.7-3.3 3 3.8 1.2 7.7-1.2 9zm0-49.2c.3-5 6.6-8.5 10.4-4.2a6 6 0 0 1 1.1 4.5 26.7 26.7 0 0 1 21.4-3.7 6 6 0 0 1-.8-3.2c0-5.1 6.6-8.3 10.6-3.8a6.1 6.1 0 0 1-3.1 9.7c1.4.8 2.8 1.7 4 2.8a6 6 0 0 1 8.2.9 6.1 6.1 0 0 1-.8 8.6c.7 1.4 1.2 2.8 1.7 4.2a6 6 0 0 1 8.6.4c3 3.8 1.2 7.8-1.3 9.4a6 6 0 0 1-6.2 0 28 28 0 0 1-10.3 20.2c1 .2 2.1.7 3 1.6 3.2 3.6 1.3 7.6-1.2 9.1-4 2.4-9.1-.2-9.3-4.6 0-.7 0-1.3.2-2-2.3 1-4.8 1.6-7.5 1.8a27.7 27.7 0 0 1-29.5-25.7 28.3 28.3 0 0 1 6.2-20.2c-3 0-5.5-2.3-5.4-5.7zm34.2-23.8c2.6 3.8.4 7.7-2.2 9-4 2.2-8.7-.8-8.5-5.3.3-5.1 6.9-8.2 10.7-3.7zm-6.8-19.3c.5-4.9 7.2-7.6 10.8-3 2.4 3.7 0 7.4-2.6 8.6-4.1 1.9-8.7-1.2-8.2-5.6zm-3.6 14.9c-4 2-8.6-1-8.2-5.4.5-5 7-7.9 10.7-3.4 2.5 3.7.1 7.5-2.5 8.8zm-1.8 14.2c2.6 3.8.4 7.7-2.1 9.1-4 2.2-8.7-.6-8.5-5.2.3-5 6.8-8.3 10.6-3.9zm92.8 60c-3.7 3-9.2.4-9.5-4.5-.3-5 5.2-8.6 9.7-4.8 3.4 3.3 2 7.6-.2 9.4zm11.1 2.4c3.5 3.2 2 7.4 0 9.2-3.4 3-8.6 1.1-9.4-3.4-1-5 4.6-9.4 9.4-5.8zm-22-14.6c-3.8 2.8-9.3-.1-9.4-5-.2-5 5.5-8.4 10-4.4a6.3 6.3 0 0 1-.6 9.4zm-11.2 8.6c-4 2.8-9.5-.2-9.6-5 0-5 5.7-8.3 10.2-4.3a6.2 6.2 0 0 1-.6 9.3zm-12 9a6.2 6.2 0 0 1-9.6-4.6 6 6 0 1 1 9.6 4.5zm-38.4 19a5.4 5.4 0 0 1-1.2 8.7c-3.8 2.2-9-.4-9.3-4.6-.4-4.8 5.9-8.2 10.4-4zm-11.3-3.6c-3.8 2.2-8.9-.4-9.2-4.8-.3-5 6-8.2 10.4-4a5.6 5.6 0 0 1-1.2 8.8zm21.6 15.7c3.2 3.4 1.4 7.1-1.1 8.5-3.9 2.2-9.1-.3-9.5-4.4-.4-4.7 6-8 10.6-4.1zm15.3-22c-3.9 2.4-9.1-.1-9.5-4.6-.4-5 6-8.7 10.5-4.7a5.9 5.9 0 0 1-1 9.2zm-2.1 20.2c-4 2.4-9.2.1-9.6-4.1-.4-4.9 6-8.5 10.7-4.7 3.2 3.4 1.4 7.3-1 8.8zm-8.2-32.9c-4 2.5-9.2-.2-9.4-4.7-.3-5.1 6-8.7 10.5-4.5a6 6 0 0 1-1.1 9.2zm-1 12c3.2 3.5 1.3 7.5-1.2 9-4 2.4-9.2 0-9.4-4.4-.4-5 6-8.5 10.6-4.5zm6.5 34.3c3.3 3.2 1.5 6.9-1 8.3-4 2.1-9.2-.1-9.7-4.1-.4-4.6 6-8 10.7-4.2zm10.6 11c3.2 2.9 1.4 6.4-1.2 7.8-4 2.2-9 .3-9.5-3.6-.4-4.3 6-7.6 10.7-4.2zm-7-16.8c-.4-4.8 6-8.5 10.7-4.8 3.3 3.2 1.5 7-1 8.6-4 2.5-9.3.3-9.7-3.8zm11.9-15.8c-3.9 2.6-9.2.3-9.7-4.2-.5-5 5.8-8.7 10.5-4.8 3.3 3.4 1.7 7.4-.8 9zm-8.4-33.9c-4 2.5-9.1-.2-9.5-4.8a6 6 0 0 1 10.5-4.5 6 6 0 0 1-1 9.3zm-59.5 14.8c3 3.8 1.4 7.6-1 9-4 2-9-1.2-8.9-5.8 0-4.7 5.8-7.3 9.9-3.2zm10 13c3 3.8 1.4 7.5-1 8.8-4 2.1-9.2-1.1-9.1-5.6 0-4.6 5.8-7.2 10-3.1zm10.2 12.8c3.3 3.6 1.6 7.3-.9 8.5-4 2.1-9.3-1-9.3-5.4 0-4.5 5.8-7 10.2-3zm10.6 12.4c3.3 3.4 1.6 7-.9 8.2-3.7 2-9-.7-9.5-4.7-.5-4.6 5.6-7.5 10.4-3.5zm10.8 11.8c3.4 3.3 1.7 6.8-.9 8-3.8 1.8-9.1-.6-9.6-4.5-.6-4.4 5.7-7.3 10.4-3.5zm-.1 19.8c3.4 3.1 1.5 6-1 7-3.8 1.5-9-.7-9.5-4.2-.5-4 5.7-6.3 10.5-2.8zm.3-5.1c-.5-4.2 5.8-7 10.6-3.6 3.3 3 1.5 6.3-1 7.5-4 1.8-9.1-.3-9.6-4zm21 6.4c3.2 2.6 1.4 5.7-1.2 6.9-3.7 1.7-8.6.3-9.3-2.8-.9-4 5.7-7.3 10.5-4.1zm-.1-4.7c-.9-4 5.8-8 10.6-4.8 3.1 2.6 1.2 6-1.4 7.4-3.7 2-8.5.7-9.2-2.6zm4-20c-1-4.7 5.5-9 10.5-5.4 3.4 3 1.4 6.7-1 8.3-3.8 2.3-8.7.9-9.5-2.8zm12-15.7c-3.8 2.6-9.2.5-9.7-3.8-.5-4.8 5.7-8.7 10.4-5 3.2 3 2.2 7-.7 8.8zm2-20.5c-3.7 2.6-9 .3-9.6-4.2-.6-5 5.6-9 10.3-5a6 6 0 0 1-.6 9.2zm11.5 2.6c3.5 3.3 1.8 7.4-.4 9-3.8 2.8-9 .7-9.7-3.7-.7-5 5.3-9 10.1-5.3zm.6-11.5a6 6 0 0 1-9.5-4.1 6 6 0 0 1 10-5.2 6.1 6.1 0 0 1-.5 9.3zm11.3 2.5c3.5 3.3 2 7.4-.2 9.2a5.9 5.9 0 0 1-9.6-3.7 6 6 0 0 1 9.8-5.5zm10.8 10.8c3.2 2.9 2 7-.3 8.9-3.4 3-8.5 1.4-9.2-2.8-.8-4.8 4.8-9.3 9.5-6zm11-9c3.4 3 2 7 0 9-3.2 3.1-8.2 1.7-9-2.6-.9-4.8 4.4-9.4 9-6.3zm10.3 9.5c3 2.3 2 6.4 0 8.5-3 3.1-7.5 2.5-8.6-1.2-1.3-4.7 3.9-10.1 8.6-7.3zm.2-10c-3 3.3-7.9 2-8.7-2.3-1-4.8 4-9.6 8.5-6.6 3.3 2.8 2 7 .2 9zm-10.6-10c-3.3 3.2-8.7 1-9.2-3.9s4.5-8.8 9-5.4a6.3 6.3 0 0 1 .2 9.3zM336.8 349c-3.6 3-9 .5-9.3-4.5-.4-4.8 5-8.5 9.3-4.9a6.4 6.4 0 0 1 0 9.4zM326 337c-3.7 2.9-9.1 0-9.3-5-.3-4.8 5.3-8.2 9.6-4.4a6.3 6.3 0 0 1-.3 9.4zm.8-22c-3.7 2.7-9-.4-9-5.2s5.4-7.9 9.6-4c3 3.6 1.6 7.7-.6 9.2zm-11.4 9.4c-3.8 2.6-9.2-.5-9.2-5.4 0-5 5.6-8 10-4 3 3.6 1.5 7.8-.8 9.4zm-10.9 8.6c-4 2.7-9.4-.5-9.3-5.4 0-5 5.7-8 10.1-4a6.2 6.2 0 0 1-.8 9.4zm-11.2 8.7c-4 2.6-9.5-.6-9.4-5.5 0-5 6-8 10.3-4a6.1 6.1 0 0 1-1 9.5zM283 328.4c-4 2.5-9.4-.8-9.2-5.7.2-5 6.2-7.9 10.5-3.6 3 3.7 1.2 7.8-1.3 9.3zm-9.8-13.4c-4 2.3-9-.7-9-5.3a6 6 0 0 1 10.5-3.9 6 6 0 0 1-1.5 9.2zm-9.4-13.5a6 6 0 0 1-8.8-5.5 6 6 0 0 1 10.7-3.6 6 6 0 0 1-1.9 9zm-8.8-13.6c-4 2-8.8-1-8.5-5.6a6 6 0 0 1 10.8-3.3 6 6 0 0 1-2.3 8.9zm-5-28c.5-4.8 7.2-7.2 10.8-2.7 2.4 3.8 0 7.3-2.7 8.4-4.2 1.8-8.7-1.4-8.2-5.7zm.7-7.6c-4.3 1.6-8.6-1.5-7.8-5.7.8-4.6 7.6-6.8 10.9-2.3 2.2 3.6-.4 7-3.1 8zm-11.4 8.8c-4.2 1.7-8.5-1.3-7.9-5.5.8-4.8 7.5-7.3 10.9-2.9 2.2 3.7-.3 7.2-3 8.4zm-6.8-13c-4 1.5-8-1-7.5-4.9.5-5 7.6-7.8 11-3.2 1.9 3.6-.8 7-3.5 8zm-2.2 13.7c2.3 3.7-.2 7.4-2.8 8.6-4.2 2-8.5-1-7.9-5.3.7-4.8 7.3-7.7 10.7-3.3zm-5 23c2.4 3.7.2 7.6-2.4 9-4 2.1-8.5-.7-8.1-5.2.4-5 6.9-8.2 10.5-3.8zm-13.8 19c-4 2.3-8.4-.4-8-4.8.4-5 6.7-8.5 10.3-4.2 2.4 3.7.2 7.6-2.3 9zm-4.3 14.3c2.6 3.7.6 7.7-1.9 9.2-4 2.4-8.5-.8-8-5.5.5-4.9 6.3-7.8 9.9-3.7zm-3.9 20.6c2.8 3.8 1 7.8-1.3 9.2-3.7 2.3-8.4-1-8.2-5.8.2-4.8 5.8-7.6 9.5-3.3zm-10-4c-3.7 2.2-8.1-1-7.8-5.8.3-4.9 5.7-7.7 9.3-3.5 2.6 3.8.8 7.8-1.5 9.2zm-1.8 11.7c2.7 3.9 1.2 7.8-1 9.1-3.6 2.3-8.4-1.6-8-6.5.5-4.5 5.3-6.7 9-2.6zm-9.7-4.3c-3.6 2.3-8.1-1.5-7.6-6.4.5-4.6 5.2-7 8.7-2.8 2.6 3.8 1 7.8-1.1 9.2zm-8.2-13.4c-3.5 2.5-7.7-1.2-7.1-6.2.6-4.6 5.2-7 8.4-3 2.4 3.8.8 7.8-1.3 9.2zm-1.4 11.2c2.6 3.8 1.2 7.7-.7 9-3.3 2.3-7.7-1.5-7.4-6.4.4-4.6 4.7-6.8 8-2.6zm-8.8-4.3c-3.4 2.5-7.6-1.7-6.8-6.8.7-4.3 4.7-6.3 7.6-2.4 2.4 3.8 1 7.8-.8 9.2zm-7.5-13.2-.4.3c-3.2 2.1-6.7-1.9-5.8-6.8.7-4.3 4.6-6.5 7.3-2.8 2.2 3.7.8 7.8-1 9.3zm6.7 23.8c2.6 3.8 1.5 7.7-.3 9-3.2 2.3-7.6-2-7-7 .4-4.2 4.2-6 7.3-2zm-6.7 39.7c.3-3.3 3.7-4 6.9-.3 2.8 3.8 2 7 .4 8-3 1.7-7.7-3.3-7.3-7.7zm8-5.3c.3-3.8 4.2-5 7.6-1 3 3.8 2 7.3.2 8.3-3.2 1.8-8-2.7-7.7-7.3zm17.2 12.4c3 3.9 2 7.1.2 8-3.4 1.6-8.4-2.9-8.1-7.3.2-3.6 4.3-4.7 8-.7zm.5-4.4c0-4.2 4.5-5.7 8.5-1.5 3 3.8 1.9 7.3-.2 8.2-3.4 1.7-8.4-2.3-8.3-6.7zm9-6.1c.2-4.3 5-6 9-1.9 3.1 3.9 1.8 7.4-.4 8.5-3.6 2-8.7-2-8.5-6.6zm19.2 11.4c3.2 3.8 1.8 7.2-.4 8.3-3.8 1.7-9-2.2-8.9-6.6.2-4.1 5.2-5.7 9.3-1.6zm.8-4.7c-.1-4.6 5.4-6.8 9.7-2.6 3.2 3.8 1.7 7.4-.7 8.5-3.7 1.9-8.8-1.5-9-5.9zm20.1 10.3c3.3 3.7 1.8 7.1-.6 8.3-3.8 1.8-9.1-1.5-9.3-5.8-.2-4.4 5.4-6.6 10-2.5zm10.7 12.5c3.4 3.5 1.9 6.9-.6 8-3.9 1.7-9.3-1.5-9.5-5.6-.2-4.3 5.6-6.3 10.1-2.4zm11 12c3.4 3.3 1.8 6.5-.6 7.5-3.9 1.6-9-1-9.7-4.7-.6-4.3 5.5-6.7 10.3-2.8zm.7 18.6c3.5 3 1.6 5.6-.8 6.4-3.8 1.2-8.9-1.2-9.4-4.4-.6-3.7 5.5-5.6 10.2-2zm1 16c3.4 2.6 1.4 4.6-1 5.2-3.9.8-8.8-1.3-9.2-4-.4-3 5.8-4.3 10.3-1.3zm-.8-4.2c-.4-3.3 5.8-5.1 10.4-2 3.2 2.6 1.4 5-1.2 5.8-3.9 1.1-8.9-.9-9.2-3.8zm10.1-6.1c-1-3.8 5.6-6.5 10.5-3.3 3.2 2.7 1.4 5.4-1.2 6.4-3.7 1.4-8.5-.2-9.3-3.1zm20.6 5.4c3 2.3 1 4.8-1.5 5.8-3.8 1.4-8.5 0-9-2.5-.9-3.4 5.7-6 10.4-3.3zm.2-4.4c-.8-3.5 6-6.9 10.5-4.1 3.1 2.2 1.2 5.1-1.4 6.3-3.8 1.8-8.5.6-9.1-2.2zm10.3-8.7c-.7-3.7 6-7.6 10.5-5 3 2.3 1 5.5-1.5 7-3.7 2-8.5 1-9-2zm20 2.7c2.8 1.9.8 5-1.8 6.4-3.5 2-8 1.5-8.7-1-1.1-3.4 5.8-7.8 10.4-5.4zm51.8-38.3c2.8 1.7 1.5 5.5-.5 7.6-2.8 3-6.7 3.2-7.8.5-1.5-3.7 4-10 8.3-8.1zm2-25.8c-2.6 3.2-7 2.7-8.1-1-1.4-4.4 3.5-10.2 8-7.6 3 2.2 2 6.4.2 8.6zm-9.6-28.9c-3.2 3.4-8.3 1.3-9-3.5-.6-5 4.2-9 8.6-5.7 3.3 3 2.2 7.3.4 9.2zm-10.8-11c-3.3 3-8.6.5-9-4.3-.5-4.9 4.5-8.6 8.8-5a6.6 6.6 0 0 1 .2 9.3zm-10.7-12c-3.5 3-8.8.2-9-4.8-.3-4.8 5-8.2 9.2-4.4 3.2 3.4 2 7.6-.2 9.3zm.4-20.9c-3.5 2.6-8.8-.6-9-5.4-.1-4.7 5.2-7.7 9.3-3.7 3.1 3.5 1.8 7.6-.3 9.1zm-10.1-13c-3.7 2.4-9-1-8.9-5.8 0-4.6 5.7-7.2 9.7-3 3 3.6 1.4 7.5-.8 8.9zm-10.7 8.7c-4 2.4-9-.9-9-5.7.2-4.7 6-7.4 10-3.3 2.9 3.6 1.3 7.6-1 9zm-11.6 9.1c-4 2.5-9.2-.8-9-5.7 0-4.8 6-7.6 10-3.4 3.1 3.6 1.4 7.6-1 9.1zm-11 8.6c-4 2.5-9.3-.9-9.2-5.8.2-5 6.1-7.8 10.4-3.5 3 3.7 1.3 7.8-1.2 9.3zm-9.8-13.5c-4.2 2.4-9.4-1.1-9-6 .4-4.9 6.4-7.4 10.5-3a6 6 0 0 1-1.5 9zm-9.4-13.6c-4 2-8.8-1-8.8-5.5.2-5 6.6-8 10.7-3.4 2.8 3.8.7 7.7-1.9 9zm-8.7-13.6c-4.2 2-8.9-1.2-8.6-5.6.4-5 7-7.6 10.8-3 2.6 3.8.4 7.4-2.2 8.6zm-4.8-27.4c.6-4.6 7.3-6.7 10.8-2.2 2.4 3.7 0 7-2.7 8-4.2 1.6-8.7-1.6-8.1-5.8zm.8-7.3c-4.3 1.4-8.5-1.8-7.7-5.8.9-4.4 7.7-6.3 11-1.9 2 3.6-.6 6.8-3.3 7.7zm-1-26c.9-4 8.2-5.7 11.2-1.3 1.8 3.4-1 6-3.8 6.7-4.1.9-8-2-7.3-5.3zm2.1-6.6c-4.1.7-7.8-2-6.8-5.2 1.1-3.8 8.6-5.1 11.2-1 1.5 3.3-1.6 5.7-4.4 6.2zm-3.8 12.6c1.8 3.5-1 6.4-3.7 7.2-4 1.1-8-1.6-7.5-5.2.8-4.4 8-6.5 11.2-2zm-9.3-5.1c-4 1-7.8-1.7-7-5 1-4.2 8.5-6 11.2-1.7 1.6 3.3-1.4 6-4.2 6.7zm-2.7 12.4c2 3.5-.8 6.7-3.5 7.6-4 1.4-8-1.3-7.5-5 .6-4.6 7.8-7.1 11-2.6zm-9.3-4.9c-4 1.3-7.8-1.3-7.1-4.9 1-4.3 8.2-6.6 11-2.3 1.7 3.4-1.2 6.4-4 7.2zm-4.9-12c-4 1.2-7.6-1.2-6.6-4.6 1.3-4 8.6-6.2 11-2 1.5 3.1-1.6 5.9-4.4 6.7zm-3 13c1.7 3.4-1.1 6.6-3.8 7.6-4 1.5-7.8-1-7.2-4.6.9-4.6 8-7.3 11-3zm-9-4.4c-4 1.4-7.5-1-6.6-4.5 1.1-4.3 8.4-6.9 11-2.8 1.4 3.3-1.6 6.3-4.3 7.3zm2.4 25.7c2 3.6-.6 7.1-3.2 8.3-4.2 2-8.3-1-7.5-5.1 1-4.7 7.6-7.5 10.7-3.2zm-5.8 22.7c2.3 3.6-.1 7.4-2.7 8.8-4 2.1-8.3-.7-7.8-5 .7-5 7.2-8.1 10.6-3.8zM204 291c-4 2.3-8.2-.4-7.7-4.8.6-5 7-8.4 10.3-4.1 2.2 3.5 0 7.5-2.6 9zm-4.7 14.1c2.5 3.7.4 7.7-2 9.2-4 2.4-8.3-.7-7.7-5.4.6-4.8 6.4-7.8 9.7-3.8zm-9.5-3.7c-3.6 2.3-7.7-.3-7.4-4.6.4-5.1 6.4-8.7 9.7-4.4 2.2 3.5 0 7.5-2.3 9zm-3 10.7c2.5 3.8.6 7.8-1.6 9.3-3.7 2.4-8-.8-7.5-5.6.5-4.9 5.8-7.8 9.2-3.7zm-9.2-3.8c-3.5 2.4-7.6-.6-7-5.4.6-4.8 5.8-7.8 9-3.8a7 7 0 0 1-2 9.2zm-6.8-12.8c-3.5 2.5-7.3-.4-6.6-5.1.7-4.8 5.9-8 8.7-4 2 3.5 0 7.5-2.1 9zm-3.2 10.8c2.2 3.7.5 7.7-1.5 9.3-3.4 2.5-7.4-1-6.7-6 .7-4.7 5.2-7.3 8.2-3.3zm-8.3-3.6-.4.3c-3.3 2-6.6-1.3-5.8-6 .9-4.7 5.2-7.4 8-3.6 1.9 3.6.2 7.7-1.8 9.3zm-6-12.6-.4.4c-3.2 2.2-6.2-1-5.2-5.6 1-4.7 5.2-7.6 7.5-4 1.8 3.5 0 7.6-2 9.3zm1.4 42.6c2.4 3.8 1.3 7.7-.4 9.1-3.1 2.6-7.1-1.6-6.5-6.7.4-4.3 4-6.3 7-2.4zm-.7 19.7c2.5 3.9 1.6 7.6 0 8.9-3 2.4-7.3-2.4-6.6-7.4.5-3.8 3.8-5.1 6.6-1.5zm-7.2 32.5c-2.6 2-7-3.4-6.6-8 .3-3 3-3.9 5.7-.2 2.6 3.8 2.2 7.2.9 8.2zm-4.6 8.2c.4-2.5 2.8-2.6 5.6 1 2.8 3.8 2.6 7 1.3 7.6-2.6 1.5-7.5-4.7-7-8.6zm6.3-3.2c.4-2.9 3.3-3.4 6.3.3 2.8 3.9 2.3 7 .8 7.9-2.8 1.6-7.6-4-7-8.2zm2.6 16.6c.2-2.6 3.1-2.6 6.3 1.1 3 4 2.6 6.7 1.2 7.2-2.8 1-7.9-4.6-7.5-8.3zm6.4-3.3c.2-3 3.4-3.4 6.8.5 3 3.8 2.4 6.7.8 7.3-3 1.2-7.9-3.8-7.6-7.8zm7.4-4c0-3.4 3.8-4.3 7.3-.3 3 3.8 2.2 6.8.5 7.6-3.1 1.3-8-3.1-7.8-7.2zm9.5 17.7c3.1 3.7 2.4 6.4.6 6.9-3 .8-8-3.8-8-7.4 0-3.2 3.6-3.5 7.4.5zm0-5c0-3.3 4-3.9 7.8 0 3.1 3.8 2.2 6.6.3 7.2-3.3 1.1-8.3-3.3-8.2-7.2zm8.4-4.8c0-3.8 4.4-5 8.4-.8 3.2 3.7 2.1 6.8.1 7.6-3.4 1.3-8.4-2.7-8.5-6.8zm8.6-5.4c0-4 4.7-5.4 8.8-1.3 3.2 3.8 2 7-.1 8-3.6 1.5-8.8-2.5-8.7-6.7zm19.4 11.7c3.3 3.7 2 6.8-.2 7.6-3.7 1.4-9.1-2.6-9-6.6 0-3.8 5-5 9.2-1zm0-4.5c-.4-4.3 5-6.1 9.5-2 3.3 3.7 1.9 7-.4 8-3.7 1.5-9-2-9.2-6zm20.3 10.6c3.4 3.5 2 6.6-.4 7.5-3.8 1.5-9.2-1.8-9.5-5.7-.2-4.1 5.3-5.8 9.9-1.8zm11 12c3.3 3.1 2.3 6.1-.5 7-3.9 1.4-9.3-1.7-9.6-5.4-.2-3.9 5.5-5.4 10.1-1.6zm1.6 17.4c3.1 2.8 2 5.2-.8 6-3.7.8-8.7-1.6-9.3-4.6-.6-3.5 5.4-5 10.1-1.4zm10.8 22.6.4.2c2 1.6 1.1 3.3-2 3.7-3.6.4-8.2-1.3-8.7-3.2-.7-2.5 5.8-3.4 10.3-.7zm-.7-3.1c-.8-2.8 5.7-4.3 10.4-1.6 3 2.2 1 4-1.6 4.5-3.6.8-8.3-.7-8.8-2.9zm9.4-5.1c-.7-3.2 5.8-5.2 10.5-2.4 3 2.2 1.1 4.4-1.5 5.1-3.7 1.1-8.4-.3-9-2.7zm20 4.8c2.9 1.8.8 3.8-1.9 4.5-3.5 1-7.9 0-8.6-1.8-1.1-2.7 5.9-5 10.5-2.7zm-.2-3.3c-1.2-3 5.9-6 10.5-3.7 3 2 .8 4.3-1.8 5.2-3.5 1.4-8 .6-8.7-1.5zm10.8-7.5c-1.2-3.2 5.8-7 10.5-4.6 2.9 2 .8 4.7-1.8 5.9-3.5 1.6-8 1-8.7-1.3zm19.4 1.8c2.8 1.5.6 4-2 5.3-3.5 1.6-7.8 1.3-8.5-.7-1-2.8 6.1-6.5 10.5-4.6zm-.3-3.8c-1-3 6-7.4 10.4-5.5 2.8 1.6.6 4.4-2 5.9-3.5 2-7.7 1.8-8.4-.4zm18.8-.2c2.5 1.2.3 4-2.2 5.4-3.3 2-7.3 2.1-8.1.5-1.3-2.5 5.8-7.4 10.3-6zm-4.2-9.2c-1.6-3.1 5.2-8.8 10-6.9 2.7 1.6.7 4.8-1.8 6.5-3.2 2.2-7.1 2.4-8.2.4zm18.3-1.6c2.5 1.2.5 4.3-2 6-3.1 2.3-7 2.7-7.9 1-1.4-2.7 5.4-8.4 9.9-7zm-4.4-6.3c-1.7-3 4.7-9.2 9.3-7.4 2.7 1.5 1 4.8-1.3 6.7-3 2.4-6.9 2.8-8 .8zm17.7-2.4c2.5 1.2.7 4.4-1.6 6.3-3 2.5-6.7 3.1-7.6 1.4-1.5-2.7 4.8-8.9 9.2-7.7zm-4.2-6.7c-1.8-3.1 4-9.7 8.6-8 2.7 1.3 1.2 4.9-1 6.9-2.8 2.6-6.5 3.2-7.6 1.1zm16.8-3.3c2.5 1 1 4.5-1.1 6.5-2.8 2.7-6.3 3.6-7.3 1.8-1.6-2.7 4.2-9.3 8.4-8.3zm-4.6-6.2c-1.8-3 3.5-10 8-8.6 2.5 1.3 1.2 5-.7 7.1-2.5 2.8-6 3.6-7.3 1.5zm16-4.2c2.4 1 1 4.5-.8 6.7-2.5 2.9-5.8 4-6.9 2.2-1.6-2.7 3.6-9.7 7.7-8.9zm-4.8-5.4c-1.9-3 2.9-10.4 7.2-9.2 2.5 1.2 1.5 5-.3 7.3-2.3 3-5.7 3.9-6.9 1.9zm15-5.1c2.4.7 1.3 4.4-.4 6.7-2.2 3-5.4 4.4-6.4 2.7-1.7-2.6 2.9-10 6.9-9.4zm-4.9-5.4c-1.9-3 2.3-10.6 6.4-9.6 2.4 1 1.6 5 0 7.3-2 3.2-5.1 4.3-6.4 2.3zm-1.7-6.8c-2.3 3.3-6 3.9-7.1 1.2-1.6-3.7 2.8-10.5 7-9 2.6 1.5 1.7 5.5 0 7.8zm-9-14.2c2.8 1.9 1.9 6 .1 8.2-2.5 3.3-6.6 3.3-7.7 0-1.3-4.2 3.3-10.2 7.5-8.2zm.6-18.6c2.9 2.2 2.1 6.4.5 8.6-2.4 3.4-6.6 3-7.8-.5-1.4-4.4 3-10.4 7.3-8zm-9.3.3c-2.8 3.4-7.4 2.3-8.4-2-1-4.7 3.6-9.7 8-7 3 2.6 2.2 6.9.4 9zm-10-29.2c-3 3.1-8.4.6-9-4.3-.6-4.8 4.1-8.6 8.4-5.1a6.8 6.8 0 0 1 .6 9.4zM348 318.9c-3.2 2.9-8.5 0-9-4.9-.4-4.8 4.7-8.2 9-4.4 3 3.4 2 7.6 0 9.3zm-.5-20.5c-3.5 2.7-9-1-8.9-6 .1-4.4 5-6.9 9-3 3 3.5 2 7.5 0 9zm-10.2-13c-3.6 2.2-8.8-1.3-8.8-6 0-4.6 5.4-7 9.4-2.8 3 3.6 1.5 7.4-.6 8.7zm-9.8-13.5c-3.8 2-8.9-1.8-8.6-6.3.3-4.4 6-6.3 9.8-2 2.8 3.7 1.1 7.2-1.2 8.4zm-8.5-.3c2.8 3.7 1 7.4-1.3 8.6-3.9 2-9-1.6-8.7-6.2.3-4.5 6.2-6.6 10-2.4zm-12 17.4c-4 2.1-9-1.3-8.7-6 .4-4.6 6.3-7 10.2-2.8 2.8 3.7 1 7.5-1.4 8.8zm-9-13.3c-3.9 1.8-8.7-1.4-8.6-5.7.2-4.7 6.6-7.2 10.5-2.7 2.6 3.7.6 7.2-1.9 8.4zm-1.2 13.2c3 3.8 1 7.6-1.4 9-4.1 2.2-9.3-1.2-9-6 .4-4.8 6.4-7.3 10.4-3zm-10.7-4.5c-4 2-8.8-1.1-8.7-5.6.2-5 6.6-7.7 10.6-3.1 2.7 3.8.7 7.5-1.9 8.7zm-8.6-13.5c-4.1 1.8-8.8-1.4-8.5-5.7.4-4.8 7-7.2 10.8-2.7 2.5 3.8.3 7.3-2.3 8.4zM267 231c.5-4.4 7.8-6.3 11-1.8 2.1 3.6-.6 6.5-3.3 7.2-4 1-8-1.8-7.7-5.4zm8-27.9c-3.8.4-7.3-2.2-6.7-5 1-3.8 8.9-4.8 11.4-.4 1.3 3.1-1.8 5.1-4.6 5.4zm2.5-23.1c1.1-3.3 9.6-3.5 11.5.7.7 2.7-2.8 4-5.6 3.8-3.8-.1-6.6-2.3-5.9-4.5zm4.3-4.8c-3.4-.3-6-2.1-5.3-3.8 1-2.8 10.3-3 11.6.8.3 2.3-3.5 3.2-6.3 3zm-5.2 12.2c1 2.8-2.4 4.6-5.2 4.7-4 .2-7.1-2.2-6.2-4.7 1.3-3.4 9.3-4.1 11.4 0zm-13.4-9.4c1.2-3.2 9.8-4 11.5 0 .6 2.6-3 4-5.8 4-3.8.1-6.5-1.9-5.7-4zm4.8-12c-3.4-.2-5.6-1.5-4.6-2.7 1.7-2 11-2.5 11.5.3-.2 1.7-4.1 2.4-6.9 2.3zm6.1 4c.3 2.1-3.5 3.2-6.3 3.2-3.5 0-6-1.6-5.2-3.3 1.1-2.6 10.4-3.5 11.5.1zm-10.1 25c1.1 3-2.1 5.2-5 5.6-3.8.5-7.2-1.8-6.4-4.6 1-3.7 9-5.1 11.4-1zm-8-5c-3.8.4-6.8-1.4-6.1-3.8 1-3.6 9.4-5.2 11.4-1 .9 2.7-2.6 4.5-5.4 4.8zm-7.6-13c1.4-3.2 10-4.5 11.5-.8.5 2.5-3.2 4-6 4.3-3.7.3-6.4-1.5-5.5-3.6zm5.3-11.7c-3.4 0-5.5-.9-4.5-2.1 1.8-2 11-3.1 11.5-.6-.2 1.6-4.2 2.5-7 2.7zm6 3.3c.1 2-3.7 3.3-6.5 3.5-3.4.2-5.8-1.1-5-2.7 1.2-2.6 10.5-4 11.5-.8zm-9.4 32.9c1.3 3.1-1.9 5.6-4.7 6.2-3.9.8-7.2-1.4-6.6-4.4 1-4 8.8-6 11.3-1.8zm-8.2-4.8c-4 .8-7-1.3-6.1-4 1.3-3.8 9.2-5.5 11.3-1.6 1 2.9-2.4 5.1-5.2 5.6zm-8.1-13.4c1.2-3.5 9.6-5.6 11.3-1.7.7 2.6-2.9 4.6-5.7 5-3.7.7-6.4-1-5.6-3.3zm5.6-19.3-2 .1c-2.2 0-3-.7-2.1-1.5 1.9-1.8 11.2-3.6 11.2-1.5-.4 1.4-4.4 2.5-7 2.9zm5.5 2.5c0 1.7-4 3.2-6.7 3.5-3.4.5-5.6-.4-4.7-2 1.5-2.4 10.7-4.4 11.4-1.5zm-.5 6.8c.3 2.2-3.4 4-6.2 4.3-3.7.5-6.2-.8-5.1-2.8 1.6-3 10.2-4.8 11.3-1.5zm-10.2 24.2c1 3-2.2 5.5-5 6.2-3.9 1-7-1-6.2-3.9 1.2-4 9-6.3 11.2-2.3zm-7.8-4.2c-3.9 1-6.7-.8-5.6-3.5 1.5-3.7 9.4-5.9 11.1-2.2.7 2.7-2.7 5-5.5 5.7zm-1.6-9.5c-3.7.8-6.2-.5-5.2-2.7 1.4-3.3 9.8-5.8 11.1-2.4.4 2.4-3.2 4.5-6 5.1zm-7 53c1.8 3.5-1 7-3.6 8.1-4 1.8-7.7-.6-7.1-4.4.7-4.9 7.7-8 10.7-3.6zm-6.6 22.4c2 3.5-.5 7.3-3 8.6-4.1 2.1-8.2-.6-7.5-4.9.9-4.8 7.4-7.9 10.5-3.7zm-9.3-4c-4 2.1-7.8-.5-6.9-4.6 1-4.7 7.5-7.7 10.4-3.7 1.8 3.4-.9 7-3.4 8.4zm-2.2 14.5c2 3.4-.4 7.3-2.9 8.8-3.9 2.2-7.9-.3-7.2-4.6.7-5 7-8.3 10.1-4.2zm-9-3.6c-4 2.3-7.7-.1-6.9-4.4 1-4.8 7.2-8.1 10-4.2 1.9 3.4-.6 7.2-3.1 8.6zm-5.5 13.8c2 3.5-.2 7.5-2.6 9-3.6 2.4-7.4 0-7-4.5.7-5 6.5-8.6 9.6-4.5zm-8.7-3.3c-3.7 2.4-7.2.1-6.5-4.2.7-5 6.5-8.6 9.3-4.7 1.8 3.4-.5 7.4-2.8 9zm-5.4-11.9c-3.7 2.5-7 .3-6.1-4 1-4.7 6.7-8.4 9.2-4.7 1.6 3.2-.8 7.1-3.1 8.7zM167 274c1.8 3.5-.3 7.5-2.4 9.1-3.5 2.6-7-.1-6.1-4.8.8-4.7 6-8 8.5-4.2zm-7.8-3-.4.4c-3.4 2.1-6.1-.4-5.2-4.8 1-4.6 6-8 8.3-4.4 1.6 3.2-.6 7.2-2.7 8.9zm-4.5-11.4-.9.6c-3.1 1.8-5.2-.6-4.1-4.6 1.2-4.6 6.1-8 8-4.7 1.3 3-1 7-3 8.7zm-4.5 9.6c1.5 3.2-.4 7.3-2.3 9l-.7.6c-3 1.9-5.4-1.1-4.3-5.4 1.1-4.6 5.3-7.7 7.3-4.2zm-6.6-2.4-1.1.8c-2.8 1.6-4.5-1.1-3.3-5.2 1.3-4.5 5.3-7.7 7-4.5 1.2 3-.7 7.1-2.6 8.9zm-3.5 9.3c1.4 3.2-.2 7.4-2 9.1-.2.4-.6.7-1 .9-2.6 1.5-4.5-1.8-3.4-6.1s4.5-7.1 6.4-4zm-6-2.2c-.4.6-.9 1-1.3 1.2-2.5 1.3-3.8-2.2-2.3-6.4 1.2-3.6 4.3-6.7 5.8-3.8 1.1 3-.6 7.2-2.2 9zm-2.8 8.8c1.3 3.2 0 7.4-1.5 9.2a4 4 0 0 1-1.2 1c-2.5 1.4-4-2.7-2.6-7.2 1.2-3.7 3.7-5.9 5.3-3zm-3.4 18.6c1.5 3.3.5 7.5-.8 9.3-.3.5-.7.8-1 1-2.5 1.3-4.2-3.4-3-8 1-3.4 3.2-5 4.8-2.3zm-5.3-2.2c-.4.6-.8 1-1.3 1.3-2.2 1-3.2-3.8-1.7-8.2.8-2.7 2.8-5 4.1-2.3 1.2 3 .2 7.3-1 9.2zm5.6 83.5c.3-1.8 2-2 4.2 1.2 2.5 4 2.6 7.2 1.7 8.1l-.1.2c-2.2 1.3-6.5-5.7-5.8-9.5zm5.7-3c.4-2.2 2.5-2.4 5 .8 2.5 4 2.3 7.3 1.2 8.2l-.2.2c-2.5 1.4-6.8-5.1-6-9.1zm2.3 16.5c.3-2 2.3-2 5 1.5 2.8 4 2.8 6.9 1.7 7.5-2.3 1.3-7.2-5.4-6.7-9zm3.9 15.7c.2-1.5 2.3-1 5 2.5 2.8 3.5 3.3 6.2 2 6.5-2.3.5-7.4-6.1-7-9zm5-2.3c.2-2 2.7-1.7 5.7 1.8 3 4 2.8 6.6 1.5 7-2.5.7-7.6-5.6-7.2-8.8zm10.3 18.2c2.8 3.5 3.2 5.7 1.6 5.7-2.5 0-7.6-5.6-7.6-8.3 0-2 2.7-1.2 6 2.6zm-.9-5c.2-2.1 3.1-1.6 6.5 2 3 3.6 3 6.1 1.4 6.3-2.9.2-8.1-5.4-7.9-8.4zm6-3c.1-2.6 3.4-2.5 7 1.4 3.1 3.8 2.6 6.3 1 6.6-3 .6-8.1-4.6-8-8zm11.2 18 .5.6c2.4 2.7 2.7 5 .6 4.9-3-.2-8.4-5.2-8.3-7.9.1-2 3.5-1.3 7.2 2.5zm-1.2-5.2c-.1-2.6 3.7-2.4 7.6 1.5 3 3.4 2.9 5.8.8 6-3.1.2-8.3-4.4-8.4-7.5zm6.3-3.7c0-2.8 4-2.8 8 1l.8 1c.3-.5.7-1 1.2-1.4-1.5-1.3-2.6-3-2.7-4.6-.2-3.4 4.3-4 8.3 0l1.1 1.4c1.2-.2 2.4-.4 3.7-.4-2.4-1.3-4.4-3.7-4.4-6 0-3.6 4.6-4.5 8.8-.5 2.8 3.1 2.4 5.6 1 6.7a43 43 0 0 1 9.6 2.4l-.2-1c-.4-4 5-5.3 9.5-1.3 3.3 3.4 2.2 6.2.1 7l3.7 2.8c2-.5 4.8 0 7.3 2.2 3.3 3.1 2.4 5.8-.4 6.6h-.4c.7 2.3.8 4.4 0 6.3-.2.6-.5 1-.8 1.5 1 .4 2.2 1 3.3 1.8 3 2.7 2 4.8-.7 5.3-3 .5-6.8-1-8.4-3.2-1.1.4-2.4.6-3.7.8 1 .4 2.1 1 3.1 1.7 3 2.7 2 4.5-.6 4.7-3.8.3-8.8-2.6-9-5 0-.6.2-1 .5-1.3a40 40 0 0 1-7-1.3c.4 1.4-.2 2.4-2 2.4-3.7 0-8.9-3.6-9-6.2l.2-.6c-7.6-4.3-12.7-10.2-13.3-15.5-3.3-.2-7.7-4.2-7.6-7.3zm39.7 38.8c-3.6-.1-8.6-3-8.7-5.2-.2-2.3 5.1-2 9.4 1.2l.7.7c1.9 1.9 1.2 3.4-1.4 3.3zm-16.4-5.8c-3.6-.3-8.6-3.9-8.7-6.2 0-2.1 4.6-1.4 8.8 2l1.1 1.2c1.6 2 1 3.2-1.2 3zm-11-15.4.4.4c2.5 2.6 2.5 4.8.1 4.7-3.4 0-8.8-4.5-8.7-7.1 0-2.4 4.2-1.8 8.2 2zm4.8 14.6c.4.4 1.2 1 1.7 1.7.9 1.4.2 2-1.7 1.7-3.4-.8-8.4-4.4-8.5-6.2-.1-1.8 4.4-.6 8.5 2.8zm10.4 9.1c.5.4 1.3 1 1.6 1.7.5.8-.4 1-2.3.6-3.5-.9-8.2-3.8-8.4-5.1-.1-1.5 5-.1 9 2.8zm-2.8-4.7c-.2-2 5-1.2 9.2 2 .4.3 1 .7 1.3 1.2 1.1 1.5.3 2.3-2 2-3.5-.5-8.4-3.4-8.5-5.2zm19 10c.4.3 1.1.7 1.4 1.2.6 1-.4 1.4-2.6 1-3.6-.5-8.1-2.8-8.4-4.2-.3-1.6 5.5-.7 9.7 2zm-3-4.3c-.4-2.1 5.4-1.8 9.7 1l1 1c1.3 1.4.4 2.4-2.2 2.2-3.6-.2-8.3-2.5-8.6-4.2zm19 8.1c.5.3.9.6 1.2 1 .8 1-.4 1.5-2.9 1.3-3.5-.3-8-2-8.3-3.3-.5-1.8 5.8-1.4 10 1zm-2.3-3.9c-.6-2.1 5.7-2.4 10.1.2l.7.5c1.6 1.4.5 2.5-2.3 2.6-3.6 0-8-1.6-8.5-3.3zm19 6.3.9.6c1 1-.3 1.8-3 1.8-3.7 0-8-1.3-8.3-2.6-.3-1.7 6.2-1.8 10.4.2zm0-2.5c-1-2.2 5.8-3.2 10.4-1l.6.5c1.5 1.2.3 2.4-2.6 2.7-3.5.4-7.8-.7-8.5-2.2zm9.7-3.4c-1-2.5 5.9-4.2 10.5-1.9l.4.3c2 1.3 1 3-2.3 3.6-3.5.7-7.8-.3-8.6-2zm19.3 3.7.6.3c1.4 1 0 2.4-3 3-3.5.6-7.8-.2-8.3-1.5-.8-2 6.3-3.6 10.7-1.8zm-.9-2.6c-.8-2.3 6.2-4.6 10.7-2.7l.3.1c1.9 1.2.7 3-2.5 3.8-3.6 1-8 .3-8.5-1.2zm10.4-5.8c-.9-2.5 6.3-5.5 10.7-3.6 2.7 1.5.5 3.7-2.2 4.6-3.5 1.3-7.8.8-8.5-1zm19 1.3.3.1c1.8 1 .5 2.8-2.7 4-3.4 1.2-7.4 1-8.2-.2-1.2-2 6.1-5.4 10.6-4zm.4-3c-1.3-2.4 6-6.5 10.4-5 2.6 1.2.3 3.6-2.3 4.8-3.3 1.6-7.3 1.6-8.1.1zm18.2-1.1.3.1c1.6.7.2 2.7-3 4.2-3.3 1.5-7.1 1.9-7.8.7-1-1.9 6.3-6 10.5-5zm-.2-2.9c-1.2-2.1 6-7 10.2-6 2.4 1 .1 3.5-2.4 5-3.3 1.9-7.1 2.4-7.8 1zm17.4-3h.3c1.4.6 0 2.7-3 4.5-3.2 1.8-6.6 2.6-7.5 1.7-1.4-1.4 6-6.7 10.2-6.2zm-2.9-6.7c-1.1-2.3 5.6-8 9.8-7 2.4.9.3 3.8-2.1 5.5-3.2 2.3-6.9 3-7.7 1.5zm17-4c2.1.5 0 3.2-2.5 5-3 2.1-6.3 3.2-7.2 2.3-1.4-1.6 5.4-7.7 9.6-7.4zm-2.9-4c-1.7-2 4.5-8.7 9-8 2.3.8.4 3.8-1.8 5.8-2.8 2.3-6 3.4-7.2 2.2zm16-5.4c2 .4.2 3.3-2 5.3-2.8 2.4-6 3.7-6.9 2.8-1.5-1.6 4.8-8.2 8.9-8zm-2.6-4.3c-1.8-1.9 3.8-9.1 8.1-8.7 2.3.7.7 4-1.4 6-2.5 2.6-5.6 3.8-6.7 2.7zm15-6.4c2 .2.3 3.3-1.7 5.5-2.4 2.6-5.4 4-6.3 3.2-1.6-1.4 4-8.6 8-8.7zm-3-3.8c-1.8-1.8 3.2-9.5 7.3-9.2 2.2.5.8 3.9-1 6.1-2.3 2.8-5.2 4.2-6.3 3.1zm13.9-7.4c2 0 .5 3.3-1.3 5.6-2.2 2.8-5 4.5-5.8 3.7-1.6-1.3 3.4-9 7-9.3zm-3.1-3c-1.8-1.8 2.6-9.8 6.5-9.8 2 .3 1 3.8-.7 6.2-2 2.9-4.7 4.5-5.8 3.5zm2.5-13.8c-2-2 1.8-10.4 5.9-10 2.2.6 1.3 4.3-.2 6.8-1.8 3-4.5 4.5-5.7 3.2zm12.6-7.8c2 .2 1.1 3.8-.3 6.2-1.7 3.1-4.2 5-5.3 4-1.7-1.6 2-9.9 5.6-10.2zm6 .8c1.7-.2.7 3.2-.6 5.7-1.7 3-3.9 5.2-4.8 4.6-1.5-1 2.2-9.3 5.4-10.3zm-.9-23.3c-1.4 3.5-4 5-5.2 3.3-1.9-2.6.9-10.8 4.5-10.5 2.1.6 1.8 4.6.7 7.2zm-3 7.4c2 .5 1.4 4.3.1 6.9-1.5 3.1-4 4.9-5.1 3.7-2-2 1.1-10.6 5-10.6zm-4.3-10.6c-1.6 3.4-4.4 4.6-5.9 2.5-2.1-3.1 1-11.2 5-10.2 2.4 1 2 5.2.9 7.7zm-3 7.6c2.4.8 1.8 4.8.4 7.3-1.7 3.3-4.6 4.6-5.9 2.7-1.9-2.8 1.7-10.8 5.6-10zm-5.3-12.4c-2 3.7-5.5 4.1-6.8.8-1.4-4 2-10.5 6-9 2.5 1.6 2.1 5.8.8 8.2zm-2.5 7.8c2.5 1.4 1.8 5.4.4 7.8-2 3.5-5.3 4.3-6.6 1.6-1.6-3.5 2.2-10.6 6.2-9.3zm-13.8-14.2c-1.6-4.4 2.3-10.6 6.4-8.5 2.8 2 2.4 6.3 1 8.6-2.2 3.5-6.1 3.4-7.4-.1zm7.8-16.5c-2.3 4-6.8 2.9-7.8-1.8-1-4.5 2.7-9.3 6.6-7 2.9 2.2 2.6 6.6 1.2 8.8zm0-17.9-.2.5c-2.5 3.3-7 1.2-7.9-3.7-.7-4.5 2.8-8.4 6.6-5.9 3 2.6 2.8 7 1.6 9.1zm-2.6 42.7c2.7 1.8 2 6 .5 8.3-2.3 3.4-6.1 3.6-7.3.3-1.3-4 2.8-10.4 6.8-8.6zm-7.5-16c-2.5 3.5-7 2.6-8-1.7-1.3-4.7 2.9-10 7.1-7.3 3 2.4 2.5 6.8.9 9zm0-17.7c-2.6 3.6-7.4 1.9-8.4-3-1-4.8 3.1-9 7.2-6.2 3.2 2.7 2.7 7.1 1.2 9.2zm-.5-19c-2.6 3.6-8 .7-8.7-4.6-.6-4.5 3.3-8 7.4-4.8 3.3 3.2 2.8 7.5 1.3 9.4zm-9.7 27.3c-3 3.5-8 1.6-8.7-3.3-.8-4.8 3.6-9 7.9-6 3.3 3 2.4 7.3.7 9.3zm-.6-18.8c-3 3.4-8.5.5-8.9-4.8-.4-4.5 4-8 8-4.6 3.2 3.1 2.6 7.5 1 9.4zm-.7-20.2c-3 3.2-8.5-.2-8.8-5.4-.3-4.5 4-7.4 8-3.8 3.1 3.3 2.5 7.5.8 9.2zm-10.2 8.4c-3.3 3-8.8-.3-9-5.5-.1-4.5 4.5-7.4 8.5-3.9 3.2 3.4 2.3 7.6.5 9.4zm-.6-20.9c-3.3 2.7-8.8-1-8.8-6.1 0-4.4 4.7-6.7 8.6-2.9 3 3.5 2.1 7.5.2 9zM347.4 277c-3.7 2.3-9-1.9-8.7-6.7.3-4.2 5.3-6 9.1-2 3 3.7 1.7 7.4-.4 8.7zm-9.7-13.5c-3.8 1.7-8.8-2.1-8.6-6.6.3-4.3 5.8-5.9 9.6-1.5 2.8 3.7 1.2 7-1 8.1zm-30.5-53.1c-4.1.1-7.9-3.2-7.1-6.2.9-3.6 8.1-3.8 11 .8 1.6 3.4-1.3 5.3-4 5.4zm-.3-16.5c1.3 3.1-1.8 4.6-4.6 4.6-3.9-.2-7.3-3-6.6-5.7 1-3.5 8.8-3.4 11.2 1.1zm-9-30.2c-3.1-.7-5-2-4.1-2.8.2-.3.8-.4 1.6-.5 1-.2 2.3-.1 3.6 0 3 .4 6.2 1.4 6.1 2.8-.5 1.2-4.5 1-7.2.5zm-3.3 1.3h1c3.2 0 7.3 1 7.7 3.1-.1 1.9-4 2-6.7 1.6-3.4-.7-5.7-2.4-4.7-3.7.4-.5 1.4-.9 2.7-1zm8.3 10c.4 2.5-3.2 3.2-6 2.7-3.7-.5-6.3-2.8-5.3-4.6 1.5-2.6 10-1.8 11.3 2zm-11.5 15.3c1.1 3-2.1 4.6-5 4.7-3.9 0-7.1-2.7-6.3-5.3 1-3.4 9-3.7 11.3.6zm-8.1-28.8c-3.2-.4-5-1.5-4.2-2.3.3-.3.8-.5 1.6-.6 1-.2 2.2-.3 3.4-.2 3.2 0 6.5.7 6.5 2-.5 1.3-4.6 1.5-7.3 1.1zm5.4 4c-.1 1.7-4 2.2-6.8 1.9-3.4-.4-5.7-2-4.7-3.2 1.6-2 11-1.8 11.5 1.2zm-19-5.3c-3.2-.1-5.1-1-4.2-1.8a4 4 0 0 1 1.6-.7c1-.2 2-.4 3.2-.4 3.2-.2 6.8.2 6.7 1.5-.5 1.2-4.6 1.6-7.3 1.5zm-3.5-5.2c-.9.7-5 1.2-7.7 1.2-2.5 0-3.7-.1-4-.3-.2-.2.4-.5 1.6-.8l1.5-.3 3-.3c3.1-.1 6 0 5.6.5zm-10 2.2c3.2-.4 6.9-.4 6.8.8-.6 1.1-4.7 1.8-7.4 2h-1.1c-2.5-.1-3.8-.7-3-1.4.2-.3.8-.5 1.6-.8l3-.5zm-2.8-2.3a47.6 47.6 0 0 1-11.6 1.7v-.1a48.4 48.4 0 0 1 11.7-1.7h-.1zm-3.8 2.3c-.7 1-4.9 1.8-7.5 2.1a10 10 0 0 1-3.9 0c-.6-.2 0-.6.5-.8 2.8-1.4 11.3-2.6 10.9-1.3zm-11.6.4a35 35 0 0 1-11.5 2.8c0-.3 2-1 4.4-1.7l.6-.1.3-.1.6-.2H233c2.3-.6 4.4-1 5-.8v.1zm-10.2 3.7c3.2-1 7-1.6 6.9-.6-.7 1-4.7 2.4-7.4 3-1.4.2-2.7.4-3.4.3-.9-.1-1-.5-.3-1a21.9 21.9 0 0 1 4.2-1.8zm4.5 3.9c-.3 1.5-4.2 3-6.9 3.6l-1.6.3c-2.4.2-3.5-.4-2.7-1.5 1.8-2.2 11-4.8 11.2-2.4zm-1.2 6c0 2-3.7 3.8-6.4 4.3-3.4.7-5.7-.1-4.8-1.8 1.3-2.7 10.4-5.6 11.2-2.5zm-18.2-1.6c-1.8.6-2.8.6-3.1.6-1.2 0-1.4-.4-.8-1 2-2 11-5.3 11-3.4-.5 1.3-4.4 3-7 3.8zm5.2 1.4c-.1 1.7-4 3.7-6.6 4.5l-.5.1c-3 .8-4.8.2-3.9-1.2 1.6-2.5 10.5-6 11-3.4zm-.7 6.6c.2 2.1-3.5 4.4-6.2 5.2-3.5 1-5.8 0-4.7-2 1.6-3.1 10-6.2 10.9-3.2zM174 221.7l-1 .5c-3.2 1.4-5.1 0-4-3 1.6-4.4 8-8.3 9.7-5 .8 2.6-2.2 6-4.7 7.5zm-2-9.4-1 .6c-2.8 1.3-4.6.3-3.6-2.2 1.4-4 8.4-8.6 9.7-5.6.6 2.6-2.7 5.8-5 7.2zm-2 32.4c1.4 3-1 7-3.4 8.5l-.5.3c-3.4 2-6 0-5-3.9 1-4.6 6.8-8.4 9-4.9zm-7.2-2.3-1 .6c-3.1 1.6-5.1-.3-4-3.8 1.3-4.5 7-8.3 8.8-5 1.1 2.8-1.5 6.6-3.8 8.2zm-2.9-10.1-1 .6c-2.8 1.5-4.6.2-3.7-2.9 1.4-4.3 7.3-8.8 9-5.7.7 2.6-2 6.3-4.3 8zm-6-11.2c1.5-4 7.5-8.6 8.6-5.9.5 2.4-2.3 6-4.5 7.7l-1.8 1c-2.3 1-3.4-.2-2.4-2.8zm4.2-19.8c-2 1.6-3 2-3.2 2-.6 0 .5-1.5 2.5-3.5 2.9-3 6.6-5.7 6.6-4.7-.4 1.3-3.6 4.4-5.8 6.2zm-2.4 3.5a16.7 16.7 0 0 1 .7-.7l.2-.2c2.5-2.6 5.6-4.6 5.9-3.3-.1 1.6-3.2 4.9-5.4 6.6a9.3 9.3 0 0 1-3 1.8c-1 .2-1-.6 0-2.1.4-.7 1-1.4 1.6-2.1zm-2.3 8.5c2-3.7 7.8-8.3 8.6-6 .2 2-2.8 5.4-5 7.1-1.1 1-2 1.3-2.4 1.4-1.7.6-2.2-.4-1.2-2.5zm1.1 26.9c1 2.8-1.4 6.7-3.4 8.5l-1.3.8c-2.8 1.4-4.4-.7-3.2-4.4 1.5-4.4 6.3-8 7.9-5zm-6-1.6c-.6.5-1.2.8-1.7 1-2.5 1.2-3.5-.7-2.2-4 1.7-4.3 6.4-8 7.6-5.2.7 2.6-1.7 6.4-3.8 8.2zm-4.9-11.6c2-4 6.6-8 7.4-5.6.4 2.4-2.2 6.1-4.2 8-1 .8-1.8 1.2-2.3 1.4-1.8.6-2.2-1.1-.9-3.8zm3.1-12.6c-1.5 1.5-2.5 2-2.9 2-.8.1.4-2.2 2.8-4.9 2.1-2.5 5.2-5.2 5.2-4-.2 1.5-3 5-5 6.9zm-3 5.3c2.2-3.8 6.7-7.8 7.2-6 0 2-2.7 5.6-4.7 7.5-1 1-2 1.6-2.7 1.8-1.2.2-1.1-1.1.2-3.3zm-.5 27.6c1 2.8-1.1 6.8-3 8.7-.5.5-1 .8-1.4 1-2.5 1.3-3.6-1.1-2.3-4.9 1.5-4.3 5.4-7.7 6.7-4.8zM138 246c-1 1-1.6 1.4-2 1.5-2 .7-2.4-1.8-.9-5.2 1.8-4 5.3-7.1 6.3-4.7.6 2.6-1.6 6.5-3.4 8.4zm-3.2-12.4c1.9-3.2 5.2-6.6 5.7-4.6.3 2.2-2 6-3.8 8a6 6 0 0 1-2.2 1.7c-1.7.6-1.5-1.8.3-5zm2-8.7c1.5-2 3.9-4.4 4-3.1 0 1.7-2.5 5.5-4.3 7.5-1 1.2-2 2-2.5 2-1.2.4.2-3 2.7-6.3zm-3 29.6c.7 2.8-1.1 6.9-2.7 8.8-.5.6-1 1.1-1.6 1.4-2.1 1-2.8-2-1.3-6 1.4-3.6 4.4-6.8 5.5-4.2zm-4.7-.9c-1 1.3-1.8 1.7-2 1.8-1.8.5-1.6-3 .3-6.7 1.5-3 4-5.7 4.7-3.6.5 2.5-1.5 6.5-3 8.5zm-1.2 18c1 3-.4 7.2-1.8 9.1-.5.6-1 1.1-1.5 1.4-2.2 1-3-3-1.4-7.5 1.2-3 3.5-5.6 4.7-3zm-4.6-1.2c-.9 1.4-1.5 1.7-1.8 1.7-1.8.6-1.8-3.5 0-7.6 1.2-2.6 3.2-5.1 4-3 .7 2.7-.8 7-2.2 9zm-1.6-9.3c-.7 1.1-1.4 1.9-1.9 2-1.5.4-.5-4.6 1.7-8.6.9-1.5 2.5-3.6 3-2 .2 2.4-1.5 6.5-2.8 8.6zm-1 18c.9 2.9-.3 7.2-1.5 9.2-.6 1-1 1.4-1.4 1.5-2 1-2.3-4-.6-8.4.8-2.3 2.5-4.5 3.5-2.2zm-3.9-.7c-.6 1.1-1.2 1.8-1.6 2-1.6.2-1-5.7 1-9.6.4-.6 1.9-3.4 2.5-1.3.6 2.5-.7 6.8-1.9 8.9zm-1.2-8.9c-.6 1.3-1.3 2.2-1.6 2.3-1.3.3.7-7.3 2.8-10.5 1-1.5 1.1-.6 1.2-.3.1 1.9-1.1 6-2.4 8.5zm-1.4 18c.7 2.6-.2 7-1 9-.7 1.4-1.2 1.7-1.4 1.8-1.7.8-1.5-6.3.3-10.2.3-.6 1.4-2.6 2.1-.6zm-3-.3c-.5 1.3-1 2-1.4 2.1-1.3.1 0-7.8 1.8-10.8.8-1.5 1-.5 1.1-.2.4 2.3-.7 6.7-1.5 8.9zm-.8-8.2c-.3 1-1 2.6-1.3 2.5-.2-.3 0-1.7.5-3.5v-.3l.1-.2a52 52 0 0 1 1.2-4c.6-1.9 1.2-3.4 1.5-3.4l.1.4c0 1.7-1.1 5.8-2 8.5zm-1.3 24c.3-.9 1-2 1.7-.2.9 2.8.3 7.1-.4 9.2-.4 1.3-.9 1.6-1 1.7-1.7.6-1.9-7.2-.3-10.8zm0 23.9c-.3 1.3-.7 1.5-.9 1.6-1.5.4-2.1-8.2-.8-11.2.3-.8.8-1.3 1.4.3 1 3 .8 7.3.3 9.3zm-1-24.7c-.4 1.2-.8 1.9-1 2-1.4.6-.6-8.7.9-11.3.5-1 .8 0 .9.2a25 25 0 0 1-.9 9zm-1.2-8.7c-.4 1.6-.7 2.4-1 2.6-.6-.3 1.4-11.1 2.3-11.7v.4c.1 1.9-.6 6-1.3 8.7zm-.5 14c.5 2.4.3 6.7-.2 9.2-.2 1.1-.5 1.8-.7 2-1.2.4-1-9.7.2-11.7.4-.7.6.1.7.5zm-1.4 14.8c.6 2.5.8 6.8.5 9.3 0 1-.3 1.7-.5 1.8-1 .3-1.5-9.9-.6-11.7.3-.6.5.2.6.6zm-.4 14.3c.2 0 .3.3.5 1 .7 2.6 1.2 6.8 1.2 9.1 0 1.5-.2 1.7-.3 1.7-.8-.2-2.1-11.1-1.4-11.8zm2-4.5c.5-1 1.1.3 1.3.8 1 3 1.3 7.3 1 9.2-.2 1.2-.6 1.4-.7 1.5-1.4.2-2.7-9-1.6-11.5zm.7 15.4c.3-1 1 .5 1.2 1a26 26 0 0 1 1.6 9c0 1-.2 1.2-.3 1.3-1.2.5-3.3-9.2-2.5-11.3zm3-3.9c.2-.6.8-1.3 2 .9a17 17 0 0 1 1.2 9.1c-.1.6-.3 1-.6 1-1.7.9-3.8-8-2.6-11zm1.2 15.7c.2-.5.7-1.1 2 1.2 1.6 3.5 2.1 7.4 1.9 8.9 0 .3-.2.6-.4.7-1.4 1-4.3-8-3.5-10.8zm3.6-3.2c.1-.4.9-2.3 2.7 1 2 3.5 2.1 7.4 1.6 8.8-.2.4-.4.6-.6.7-2 .8-4.7-7-3.7-10.5zm2 15.9c0-.4.6-2 2.6 1.4 2.1 3.7 2.6 7.3 2.1 8.4 0 .2-.2.4-.3.5-1.7.8-5.2-7.2-4.4-10.3zm3.1 15.2c0-.3.4-1.5 2.6 2 2.3 3.8 3 7 2.7 7.8l-.2.2c-1.4.8-5.5-7.5-5-10zm3.6-2c.2-1.2 1.2-1.7 3.5 1.6 2.4 3.8 2.8 7 2.1 7.9l-.1.1c-1.7 1.4-6-6-5.5-9.5zm7.3 17.5c2.6 4 3.2 6.7 2.6 7.1-1.5 1-6.4-6.5-6.1-9.4 0-.9 1.1-1 3.5 2.3zm.5-4.2c.2-1.5 1.8-1.4 4.2 2 2.7 3.9 3 6.7 2.1 7.3-1.9 1.2-6.8-6-6.3-9.3zm4.4 15c.2-1.1 1.9-.3 4.4 2.9 2.7 3.6 3.4 6.1 2.4 6.2-2 .2-7.2-6.9-6.8-9.1zm10.6 17.6c2.2 2.5 2.7 3.7 2.9 4.1.1.5 0 .7-.5.5-2.1-1-7.3-7.2-7.2-8.5 0-.8 2 .4 4.9 3.8zm-1.4-4.7c0-1.3 2.2-.2 5.3 3.4a23 23 0 0 1 1.8 2.3c1.2 2 1.3 3.1.3 2.9-2.4-.5-7.5-6.4-7.4-8.5zm12.2 17.1c2.2 2.4 2.6 3.2 2.7 3.5 0 .3-.6 0-1-.2a27.3 27.3 0 0 1-7.7-7.9c0-.7 2.5 1 6 4.6zm-2.5-4.9c.1-1.2 3 .3 6.4 4 .6.5 1.9 2 2.4 3s.2 1.4-.8 1c-2.8-1-8-6.4-8-8zm4.5-1.2c0-1.8 3.2-.7 6.8 3 .5.6 1 1.1 1.5 1.9 1.5 2 1.4 3.3-.1 3-3-.6-8-5.6-8.2-8zm13 16.8c.5.4 2.1 2 2.3 2.7.1.5-.4.5-1.5 0-3-1.5-7.9-5.6-8-7-.3-1.2 3.3.7 7.2 4.3zm-2.7-5.2c-.1-1.6 3.7-.2 7.7 3.5.5.5 1.6 1.6 2.1 2.6s0 1.5-1.4 1.1c-3.2-1-8.2-5.2-8.4-7.2zm5.3-1.8c0-2 4-1 8 2.7.5.6 1 1 1.5 1.8 1.4 1.9 1 3-.8 2.8-3.3-.6-8.6-5-8.7-7.3zm13.2 15.6c.4.4 1.5 1.4 1.9 2.1.3.8-.4 1-2 .4-3.3-1.2-8.1-4.7-8.2-6 0-1.4 4.2.3 8.3 3.5zm10 8.4c.4.3 1.5 1 1.6 1.5.2.5-.8.4-2.4-.2-3.5-1.4-8-4.2-8-5-.1-1 4.8 1 8.8 3.7zm9.2 6.3c.9.5 1.2.8 1.3 1a29.2 29.2 0 0 1-10.7-4.8c.6-.3 6 1.9 9.4 3.8zm-3-3c-.1-1.2 5.5.3 9.6 2.8.4.3 1.2.8 1.4 1.2.3.6-.8.6-2.8 0-3.6-.9-8-3.2-8.2-4zm18.3 8.2 1.2.8c-.3.3-2-.1-3.3-.5-3-.8-7.8-2.6-7.9-3.2.5-.6 6.5 1.2 10 2.9zm-3-3c-.3-1.3 6-.3 10 2 .4.1 1 .5 1.3.9.4.6-.8.8-3 .4-3.6-.6-7.9-2.4-8.2-3.3zm18.4 6.6c.3.1.9.4 1 .6.3.4-1.1.3-3.5 0-3.5-.7-7.5-2-7.9-2.5-.5-.9 6.4.2 10.4 1.9zm-3.2-2.8c-.2-1.2 6.4-.7 10.4 1 .4.3.8.5 1 .8.6.7-.7 1-3.3.8-3.7-.3-8-1.7-8-2.6zm18.3 5c.3.1.7.2.8.4.5.5-1 .6-3.7.4-3.6-.4-7.6-1.3-7.8-1.8-.4-.8 6.7-.3 10.7 1zm-2.3-2.4c-.6-1.3 6.5-1.5 10.6 0l1 .7c.5.6-1 1.1-3.6 1.1-3.6 0-7.7-1-8-1.8zm18 3.3c.3 0 .7.2.8.3.4.5-1.2.8-4 .8-3.6 0-7.5-.6-7.7-1.2-.2-.8 7.1-.9 11 0zm.9-3.6c-3.7.3-7.8-.5-8.3-1.7-.7-1.7 6.4-2.6 10.7-.9l.8.5c1 1-.4 1.8-3.2 2zm44.2-.3a53.9 53.9 0 0 1 7-1.4 23 23 0 0 1-4.4 1.5 30 30 0 0 1-7.1 1.4l1.2-.5 3.3-1zm6.8-2.5c-.4-.7 7.3-3.8 10.8-4h.5c.5.3-1.2 1.3-4 2.3-3.6 1.3-7 2.1-7.3 1.7zm5.3-7c-1.4-1.3 6.2-5.7 10.4-5.3l.3.1c1.4.4-.1 2.2-3.3 3.7-3.1 1.5-6.6 2.2-7.4 1.4zm16.7-3.9h.5c.9.4-.8 1.8-3.8 3.2-3.2 1.5-6.5 2.5-7.1 2-1-.8 6.6-5 10.4-5.2zm0-1.9c-1-1 6.3-6.1 10.2-6.2h.3c1.3.3-.2 2.1-3.3 4-3.1 1.8-6.4 2.9-7.1 2.3zm16-5.6h.4c.8.1-1 1.7-3.8 3.5-3 1.8-6.3 3.1-6.8 2.8-.9-.7 6.6-5.7 10.2-6.4zm-1.3-4c-1.2-1.2 5.7-7.2 9.5-7.4h.3c1.3.3 0 2.4-3 4.6-2.8 2.2-6 3.5-6.8 2.8zm15.3-6.8h.4c.8.2-.7 2-3.4 4-2.9 2.2-6 3.8-6.5 3.4-1-.7 6-6.7 9.5-7.4zm-1.5-2.2c-1.2-1 5-7.6 8.8-8.1h.2c1.3.1 0 2.4-2.5 4.7-2.7 2.5-5.7 4-6.5 3.4zm14.3-8s.2-.1.4 0c.7 0-.6 2-3 4.2-2.6 2.4-5.5 4.3-6 4-1-.7 5.3-7.2 8.6-8.2zm-2.5 5 .5-.5c2-2 5.1-4.8 6.7-5.7l.4-.2a18 18 0 0 1-3.3 3.9c-1.3 1.2-5 4.6-5.7 4.4 0-.2.5-.9 1.2-1.7l.2-.2zm31.9-42.5c-1.2-.5 2.4-8.6 5.1-10.3l.2-.1c1-.3.5 2-1 5.1-1.6 3.2-3.6 5.6-4.3 5.3zm9.2-12.4.2-.2c.6-.3 0 1.7-1.4 4.6-1.5 3.2-3.3 6-3.8 6-.8-.1 2.8-8 5-10.4zm-.9-1.8c-1-.3 1.8-8.7 4.1-10.7l.2-.1c.8-.5.5 1.9-.7 5-1.3 3.3-3 6-3.6 5.8zm7.6-13.5c.2-.3.3-.3.4-.3.3.5-1 4-1.2 4.6-1 2.7-2.7 6.4-3.1 6.4-.5-.7 2.4-8.3 4-10.7zm.4-2.2c-.9.1 1.2-8.2 3-11l.2-.2c.6-.4.3 1.7-.5 4.8-1 3.3-2.2 6.4-2.7 6.4zm2-16.2c-.7 3.2-2 5.8-2.8 5.8-1.6 0-.4-9.2 2.2-11.3 1.3-.7 1.2 2.8.6 5.5zm-.4-8.5c-1.7 0-1.3-9.5 1.3-11.5 1.3-.6 1.5 2.8 1.1 5.6-.4 3.3-1.5 6-2.4 6zm.9-14.5c-2-.2-1.7-10 .4-11.7 1.3-.5 1.8 3 1.7 5.8-.2 3.3-1.1 6-2.1 5.9zm-.4-27.3c1.3-.5 2.2 3 2.3 5.8.1 3.3-.6 6-1.6 6-2-.2-2.6-10.2-.7-11.8zm-.3-4c-2 0-3.5-10-1.7-11.6 1.2-.5 2.3 3 2.7 5.7.5 3.4 0 6-1 6zm-2.6-28.8v-.2c.6-.7 1.8 1.5 2.8 4.7.9 3.1 1.1 6.2.5 6.7-1.3.9-4-8.5-3.3-11.2zm-3.3 2c1.2-.5 2.7 3.1 3.3 5.8.7 3.2.4 5.8-.6 5.7-.6-.1-1.1-.9-1.6-2a17 17 0 0 1-1.5-5.2c-.3-2-.2-3.8.4-4.4zm2.1 21.9c.3 3.4-.9 5.7-2.3 4.6-2.7-1.9-3.2-11-.7-11.4 1.7.1 2.8 4 3 6.8zm-7-22.7c1.6.3 3 4.3 3.4 7 .5 3.4-.5 5.4-2 4.2-2.8-2.2-4-11-1.5-11.2zm-2.6 13.2c2.1.9 3.2 5 3.1 7.7l-.1 1.5c-.6 3-2.6 3.3-4.1.7-2.4-3.8-1.6-10.5 1.1-9.9zM419 311c.3-2.1 1.2-3.8 2.7-3.6 2.1.8 2.9 4.9 2.7 7.6l-.2 1c-.3 1.4-.8 2.4-1.4 2.8a39.8 39.8 0 0 1-.1 20.2h.2c2 .4 2.2 4.4 1.6 7.1-.8 3.5-2.7 5.4-4 4.1-.6-.4-1-1.3-1.1-2.4-1 1.9-2 3.5-3.2 5 .7 1.6.5 4.2-.1 6-1.3 3.6-3.8 5.1-5.2 3.2-.8-1-1-2.8-.7-4.6-1.5.5-3 .7-4.5.5a9.8 9.8 0 0 1-6.3-4.2l-.4-.4v-.1l-1-1.7c-1.8 1.5-4.2 1-5.3-1.7-1.2-3 .1-7.2 2.5-8.6-.2-2-.3-4.3-.1-6.5-1-.6-2-1.8-2.4-3.4-1-4 1.3-8.4 4.5-7.9 2.7-8.5 7.7-14.6 13-15.8.1-3 1.5-5.5 3.8-4.6 1.8 1 2.7 3.6 2.8 6 .8.6 1.5 1.2 2.2 2zm-7.1-24.8c2.5 1.6 3.3 5.9 3 8.3-.1.7-.3 1.3-.6 1.8-1.3 2.5-4.2 1-5.5-2.8-1.4-4 0-8.8 3.1-7.3zm-6.6 10.1c2.7 2 3.2 6.4 2.5 8.7l-.4 1c-1.6 3.1-5.4 1.5-6.6-3-1.2-4.2 1.1-8.6 4.5-6.7zm-6.1 18.7a6 6 0 0 1-.5.8c-2.2 3-6.2 1-7.2-3.5-.9-4.4 2-8.6 5.7-6.3 2.9 2.4 3 6.7 2 9zm-3.5-27.4c3 2.8 3.1 7 2.2 9l-.5.8c-2.3 2.8-6.7-.2-7.5-5-.7-4.3 2.2-7.4 5.8-4.8zm-6.8 18-.3.4c-2.6 3.3-7.7 0-8.2-5.2-.4-4.3 3-7.3 6.7-4.4 3.3 3 3 7.3 1.8 9.2zm-3.4-28.7c3 3.2 3 7.3 1.7 9l-.3.4c-2.6 2.8-7.8-1-8.2-6-.3-4.1 3.1-6.5 6.8-3.4zm-8.8 8.3c3.1 3.2 2.7 7.4 1.2 9.1-2.8 3.4-8.5-.5-8.6-5.9-.1-4.1 3.7-6.5 7.4-3.2zm-10-12c3 3.4 2.2 7.3.5 8.8-3 2.6-8.5-1.2-8.7-6.1 0-4.3 4.3-6.5 8.2-2.7zm-9.6-12.6c2.9 3.6 1.7 7.2-.2 8.4-3.4 2.1-8.8-2.1-8.5-6.8.2-4 5-5.6 8.7-1.6zm-9.8-5c-3.6 1.5-8.6-2.6-8.4-6.8.2-4 5.6-5.4 9.3-1 2.7 3.7 1.2 6.9-1 7.8zm2.6-27.9c2.3 3.6.4 6-1.8 6.5-3.8.7-8.5-3.7-7.8-7.3.7-3.5 6.3-3.6 9.6.8zm-6.5-12.2c1.9 3.5-.4 5.4-2.8 5.5-3.8.1-8-4-7.3-7 .7-3.5 7-3 10 1.5zm-1.5-23.6c-3.5-1.3-6.2-4.2-5.4-6 1.2-2.8 9.1.4 10.6 4.3.6 2.6-2.7 2.6-5.2 1.7zm-3.5-18.6c1.9-1.2 10.8 3.4 10.4 5.3-.6 1-4.3-.1-6.8-1.4-2.9-1.5-4.6-3.3-3.6-4zm-2 4.9c1.5-2 10 1.9 10.5 5 0 1.7-3.5 1.1-6 0-3.3-1.5-5.5-3.9-4.6-5zm-1.9 15.3c1 2.9-2 3.7-4.6 3.2-3.8-.7-7-4-6.2-6.2 1-3 8.6-1.5 10.8 3zm-2-9.2c.6 2.5-2.8 2.8-5.4 2-3.6-1-6.3-3.7-5.5-5.5 1.3-2.6 9.4-.7 11 3.5zm-11-11.2c1.5-1.9 10.3.6 11 4 0 1.9-3.7 1.6-6.3.6-3.3-1.2-5.6-3.4-4.7-4.6zm1 25.8c1.4 3.1-1.6 4.6-4.2 4.4-4-.2-7.6-3.7-6.7-6.4 1.1-3.1 8.4-2.5 10.9 2zm-8.3-7c-3.8-.5-7-3.5-6-5.7 1.2-3 9-2 11 2.3 1 2.9-2.3 3.9-5 3.5zm-.8-28c3 .7 6 2 6 3.3-.5 1.3-4.5.8-7.1 0-3.1-1-5-2.4-4.1-3.2.2-.2.8-.4 1.5-.4 1-.1 2.4 0 3.7.4zm-5-3.7c-1 .6-5 .1-7.6-.5-1.7-.4-3-.9-3.6-1.3-.5-.4-.4-.7.3-.8 2.6-.6 11.7 1.2 10.9 2.6zm-10.1-4.3h-.1a43.1 43.1 0 0 1-11.6-1.4 37 37 0 0 1 11.7 1.4zm-11-.3c3.3.3 7 1 6.5 1.7-1 .8-5 .6-7.7.2-1.7-.2-3-.6-3.6-1-.8-.4-.2-.6.2-.7.5-.2 1.3-.2 2.3-.3l2.3.1zm-13.9-2a47.7 47.7 0 0 1 11 .6 53.7 53.7 0 0 1-11-.6zm6.8 2c-.9.8-5 1-7.7.8-2.2-.2-3.4-.5-3.8-.7-.6-.4.2-.6.6-.7 3-.8 11.5-.4 10.9.7zm-9.6-2h-.1a85.6 85.6 0 0 1-11.6.4l1.3-.2a90.4 90.4 0 0 1 10.4-.3zm-22 1.4 7-.8H256.3l.4-.1h-.9a219.2 219.2 0 0 0-7.5 1h.4zm-17.7 3.5 1.4-.3-1.2.2 3.4-.7 7.7-1.7-.4.1h.6v-.1l-11.5 2.5zm-14.6 4.4h.2v-.1l.3-.1 7.2-2.3 1.3-.4.5-.1 1-.3h-.1a152.4 152.4 0 0 1-10.4 3.3zm-2 1.4.3-.2h.1l1-.4h.2l.3-.2c3.4-1.2 7-2.1 6.6-1.5a27 27 0 0 1-11.2 4c-.4-.2.7-1 2.6-1.8zm-13.9 5.2a65.8 65.8 0 0 1 10.7-4.5 74.8 74.8 0 0 1-10.7 4.5zm1 .4c3.1-1.5 6.4-2.6 6.3-1.8-.7 1-4.6 3-7.1 4-2.4 1-3.5 1.1-3.8 1-.4-.1.2-.7 1.5-1.6l1-.5.4-.2 1.7-1zm-10.4 4.3.6-.3h-.2a66.8 66.8 0 0 1 5-2.6l-2.6 1.4 3.2-1.6-6 3.1zm4.6-2a52.6 52.6 0 0 1-10.8 6 45.2 45.2 0 0 1 4.5-3c2.8-1.6 5.9-3.3 6.3-3zm-21.4 12.5.3-.2a184.3 184.3 0 0 1 9.6-6.3l-.2.1.5-.3-10.2 6.8zm-2.7 2.5a33 33 0 0 1 3.2-2.5c2.7-2 6-4.2 6.4-3.9v.1a40.7 40.7 0 0 1-10.3 7l.7-.7zm-2 3.5 1.3-1.3a26.4 26.4 0 0 1 1.1-.9l.3-.2.3-.2c2.8-2.2 6.1-4 6.2-3-.4 1.3-4 4-6.3 5.6a9.4 9.4 0 0 1-3.6 1.7c-.6 0-.3-.7.7-1.8zm-2 5.9c1.7-3.1 9.2-8.3 9.7-6.1-.1 1.6-3.5 4.6-6 6.1-1.5 1-2.5 1.3-2.9 1.4-1.2.3-1.5-.3-.8-1.4zm-.5 6.2c1.9-3.6 8.8-8.1 9.7-5.6.2 2-3 5.2-5.5 6.7l-2.3 1c-2 .6-2.8-.3-1.9-2zm-9.3-4.5a73.6 73.6 0 0 1 8.8-7.3 64 64 0 0 1-8.8 7.3zm-9 8.6.3-.2a153 153 0 0 1 7.2-7.2l-.1.1.3-.3-7.7 7.7zm5.2-4.5v.1a44.9 44.9 0 0 1-8.3 8.8h-.1c.3-1.2 7.1-8.4 8.4-9zm-16.7 18.3.2-.2.2-.3c2.1-2.7 4.7-6.4 7.1-8.7a395.2 395.2 0 0 1-7.6 9.3zm2.7-2.8c1.1-1.3 2-2.3 2.3-2.2v.2a34 34 0 0 1-7.3 9.5c-.1-.3.6-1.5 1.5-3l3.5-4.5zm-25.6 45.3c-.6-.3 1.4-5.4 4.8-12.3l1-2-.3.4.4-.7-.8 1.8a297 297 0 0 1 8.4-15.6c.1-.4.6-1.2 1.6-2.8l.1-.2.2-.2v-.2h.1l.4-.7 1.5-2.2a124.6 124.6 0 0 1 2.6-3.6l-.6 1 .6-.3c.6.4-1.4 5.3-4.7 12.2 1-1.2 1.9-1.9 2-.9.2 2-1.9 6-3.4 8.1-1 1.2-1.8 2-2.3 2-.5.2-.6-.4-.4-1.3-4 7.5-7.9 13.8-9.9 16.3-.4 1-1.2 2.7-1.6 2.7 0 0 0-.7.3-1.5zm-4.4 12v-.2h.1v-.2l3.4-10.2v-.2l.2-.3v.2a280.3 280.3 0 0 1-3.7 10.8zm-3.4 14 1-4.8 1.5-6v.4a243.8 243.8 0 0 0 0-.6l-1.9 8.3-.7 3 .1-.5v.2zm-2 12.7a169 169 0 0 1 1.3-8.9v.2-.5l-1.4 9.4v-.2zm.8-3.7.2.5a56.7 56.7 0 0 1-1.4 11.4c-.6-.5.6-11.4 1.2-11.9zm-1.7 14.5.1.4a87.8 87.8 0 0 1-.3 11.4c-.2-.1-.2-1.3-.2-2.8a115.2 115.2 0 0 1 .4-9zm.4 26.6-.2-1.2v-.4l-.6-9.3a15.6 15.6 0 0 1 0-1l.1.6a171.3 171.3 0 0 1 .7 11.3zm1.8 13.5v-.3l-.6-3.7-.3-1.6a132.4 132.4 0 0 1-.6-4.6l.8 5.6.7 4.3v.5-.3zm2.5 10c-.6-.4-2.7-10.3-2.4-11.4a68.7 68.7 0 0 1 2.3 11.5zm3.5 13.4-.1-.2v-.2l-.1-.1v-.2a292.2 292.2 0 0 1-2.8-9.5v-.2l.3 1a184.7 184.7 0 0 1 3 10c-.1 0-.2-.1-.3-.6zm.6-2.8c-.9.2-3.8-10-3.2-11.1.3-.5.8.8 1 1.3a33 33 0 0 1 2.4 8.8c0 .8 0 1-.2 1zm.2 3.4a47.7 47.7 0 0 1 4 10v.6a21.1 21.1 0 0 1-4-10.7zM117 390a272.6 272.6 0 0 1-2.9-7.1l-.2-.7-.3-.7 2 5.2c.5 1 1 2 1.3 3l.2.4v-.1zm-3-15.6c.1-.4.5-.8 1.8 1.6 1.9 3.6 2.7 7.2 2.6 8.4 0 .3-.1.5-.3.6-1.1.5-4.6-8.4-4-10.6zm8.6 27a13 13 0 0 1-.9-1.5v-.2l-.2-.2v-.2h-.1l-.1-.2-.2-.4-1.4-2.9-.2-.3a82.9 82.9 0 0 1-1.2-2.8l-.2-.3v-.1a2.8 2.8 0 0 1-.1-.5l1 1.9c1.8 3.5 3.2 6.5 3.5 7.3v.4zm.2-2.3c-.8.3-5-8.5-4.8-10 0-.4.4-.6 1.9 2 2 3.7 3 6.8 3 7.7v.2zm6.4 13.4-.3-.4c-.4-.4-1-1.3-1.8-2.6 0-.2-.2-.3-.3-.5-1.4-2.3-2.9-5-2.8-5.5.3 0 .9.9 2 2.5 2 3.5 3.3 6 3.3 6.4h-.1zm1.4-1.3c-.3.4-1.3-.8-2.4-2.4l-.5-.8-.3-.5-.5-.8c-1.2-2.1-2.1-4.2-2-5 0-.2.3-1 2.7 2.7 2.5 3.8 3.4 6.4 3 6.8zm3 8.4.4.6-.4-.6zm.8 1.1-.1-.2-.4-.5-.6-.8-.4-.5 1 1.3c0 .2.2.3.4.5l.1.3.2.2-.2-.3zm2.9 3.2c-.9-.4-5.8-7.1-6-8.5.3 0 1 .7 3 3.3.3.5 3.3 4.7 3 5.2zm-4.4-9.3c.1-.7 1.3 0 3.7 3.2 2.6 3.6 3.5 6 2.8 5.9-1.5-.2-6.7-7.4-6.5-9.1zm13.5 20.5-.4-.2a39.5 39.5 0 0 1-6.5-8c.4 0 2 1.7 4.1 4.3a18 18 0 0 1 2.9 3.9zm9 9.8-.8-.7a103.4 103.4 0 0 1-6.2-6.6 7.2 7.2 0 0 1 1.1 1 38.8 38.8 0 0 1 4.3 4.2c1.6 1.6 2.4 2.5 2.5 2.8l-1-.7zm9 8-.8-.7a158 158 0 0 1-4.5-3.9l-.8-.7a1130.5 1130.5 0 0 0 6.2 5.4l.2.2-.6-.6.3.3zm-3.2-3.6 1.2.6a31.2 31.2 0 0 0 .7.4 58 58 0 0 1 5.1 4.1c2.2 2 2.2 2.3 2.1 2.4 0 0-.3 0-1.5-.8-2.4-1.6-7.8-6-7.6-6.7zm17.2 14h-.2v-.1l-.3-.2c-2.3-1.6-5.3-3.6-7.4-5.3l-.2-.2c.6.2 4.4 2.8 7.9 5.3 1.6 1.2 1.6 1.3 1.6 1.4l-1.4-.9zm-3.6-4c0-.8 4.3 1.4 8.1 4.4a8 8 0 0 1 1.9 1.8c0 .4-.7.2-2-.5-3.4-1.6-8-5-8-5.8zm9 7a49.5 49.5 0 0 1 10.1 5.8c-.2 0-.5 0-2.6-1.1-3-1.5-7.1-4-7.6-4.6zm17.1 9.6-.3-.1h.2l-8.1-4 .2.1-.4-.2 8.7 4.3h-.3zm15.5 6.2H216l-7.2-2.8-2.8-1.1h-.1l-.2-.1-.3-.2a268.3 268.3 0 0 1 10.9 4.3zm13.5 4.1h-.3l-7.8-2.3H221.5l-1.4-.6c1 .1 7.1 1.8 10.4 2.9l.9.3-1.3-.2h-.1zm12.4 2.7-1.4-.2-.3-.1-.5-.1h-.4c-2.3-.5-4.8-1-5-1.3l1.5.1 2.5.4c2.3.4 5 1 6.8 1.5l.8.3c-.4 0-2.7-.3-4-.6zm14.4 2c-2.7-.3-6.8-.8-7.5-1v-.1c.8-.2 7.7.4 11 1 .4 0 .5 0 .6.2-.4.2-2.8 0-4-.1zm15.2.7a46 46 0 0 1-7.5-.4 61.3 61.3 0 0 1 11.8.1c-.3.2-3.4.3-4.3.3zm5 0h-2.3.3-1.1 4-1 .2zm-1-1.3c-.6-.7 7.2-1.6 11-1 .4 0 .7 0 .8.2.3.4-1.4.8-4.1 1-3.5.4-7.2.3-7.6-.2zm13.3.5-1.5.1H287.1l-.7.1h-.7c-1.8.2-3.6.3-3.8.2a90.7 90.7 0 0 1 11.8-1l-4.5.6zm3.8-1.3c.4-.6 8-2 11-2 .6 0 .7.1.7.2-.2.5-3.3 1-4.3 1.2-3 .6-7.3 1-7.4.6zm17.1-2.1h-.2l-11 2.1h-.2.2-.4l11.1-2 .6-.2zm14.5-4-.6.1h.3l-4.6 1.3-.8.3-1.8.5-1 .3.4-.2-.8.3.9-.3h.2l3.3-1 4.6-1.4h-.1zm8.3-3-1.4.5-.3.1-.5.2-.2.1c-1.9.7-4.1 1.5-4.4 1.4.8-.6 8.1-3.4 10.8-4.2h.5c-.5.4-3.6 1.5-4.5 1.9zm5-3a33 33 0 0 1 11-5.2c0 .4-2.2 1.7-4.2 2.7-2.6 1.3-6.4 2.9-6.8 2.5zm15.2-6.3-.3.1-7.7 4-2.5 1.1 10.5-5.3.4-.1-.4.2zm10.6-7.2h.5a19 19 0 0 1-4.2 3c-1.5 1-5.8 3.5-6.5 3.3.2-.6 7.6-5.3 10.2-6.3zm4.2-1.9-.3.2h.2l-9.5 6 .1-.2-.3.3 10-6.4-.2.1zm.3-1.5c0-.9 7-6.3 9.5-7.4h.5c0 .5-2 2.3-3.8 3.6-2.3 1.8-5.8 4.2-6.2 3.8zm13.2-8.7c-.2 0-.2.1-.3.2l-7.6 6-.2.1v.1l-.8.5a228.4 228.4 0 0 1 9.7-7.6l-.8.7zm12.8-12L393 441l-5.7 5.5-1.5 1.4.4-.4-.6.6 8.5-8.2.3-.3-.3.3v-.1zm0-.8c0-.7 5.4-7.1 7.6-8.8l.5-.2c0 .5-2.5 3.4-3 4-1.1 1.3-4.5 5-5.1 5zm11-12-.1.3-6.6 7.9-.3.2h.1l-.2.2 4.4-5.3 1.8-2 1-1.3zm-.1-.2a54.2 54.2 0 0 1 7-9.7 38.3 38.3 0 0 1-7 9.6zm8.2-10.8-.3.5.3-.4a174 174 0 0 1-2.2 3.1l-.1.3-1.1 1.5 1.4-2 2.3-3.4-.3.4zm5-8.1c0 .2-3.4 5.8-3.9 6 .3-1 4.2-7.6 5.8-9.8l.4-.4c-.2.6-1.8 3.3-2.2 4.2zm8.6-16.7-.1.3-2 4a130.2 130.2 0 0 1 2.3-5.4l.4-.4a10.9 10.9 0 0 1-.6 1.5zm6.6-17.3-3.8 10.6v-.2.4h-.1l3.7-10.5.2-.5-.4 1.2.3-1zm2.7-9.6v.3l-.1.3-.3.9-.2 1a59 59 0 0 1-.3 1v.2l-1.3 4c-.1-.8 1.9-8.2 2.8-10.9l.2-.5c0 .2 0 .8-.3 1.9v.3h-.1l-.3 1.4zm.6-7.5c-.7 3.4-1.8 6.5-2.4 6.5-.9.1.4-8.5 2.1-11.2l.3-.2c.5-.4.5 1.8 0 5zm2-14.4c-.4 3.5-1.3 6.6-2 6.7-1 0-.5-8.7 1.2-11.4l.2-.3c.6-.3.9 1.9.5 5zm1 3.4a159 159 0 0 1-.5 3.8v.5l.7-5-.1.7zm1.6-17.9v.4l-.6 9.4v.3l.6-10.3v.2zm-.2-12.6v.3c.1 2.6.3 5.2.3 7.9v-.1l-.3-8z"/></g></svg>