<svg width="96" height="150" viewBox="0 0 96 150" fill="none" xmlns="http://www.w3.org/2000/svg">
<g clip-path="url(#clip0_12097_2198)">
<path d="M54.2519 47.6858C54.4761 47.6858 54.6885 47.6858 54.9008 47.6858C61.0834 47.6858 65.4135 43.8866 68.5991 35.3561L81.8137 1.38762H68.198L56.6117 31.7339C55.9981 33.1734 55.7268 33.7869 54.6885 33.7869C54.6177 33.7869 54.5587 33.7869 54.4997 33.7869C54.3109 33.7869 54.1457 33.7397 53.9923 33.6925C53.2136 33.4211 52.8361 32.6896 52.8361 31.4743V13.6465C52.8361 13.3869 52.8361 13.1273 52.8243 12.8796C52.6119 7.36957 50.087 3.32261 45.5445 1.38762C43.5859 0.549914 41.2615 0.101562 38.5832 0.101562C30.1 0.101562 25.8996 3.70017 23.9882 12.0183L18.9148 31.7339C18.5608 33.1144 17.8647 33.7869 16.8146 33.7869C15.5049 33.7869 14.738 33.02 14.738 31.4743V1.38762H1.80664V33.7987C1.80664 42.1168 7.19865 47.6858 16.2955 47.6858C24.3422 47.6858 28.9791 43.568 30.9023 35.3443L35.9757 15.7938C36.3297 14.5904 37.0258 13.9886 37.9815 13.9886C39.1496 13.9886 39.7631 14.7084 39.8103 15.9V33.7987C39.8103 33.9993 39.8103 34.188 39.8103 34.3768C39.9873 40.3942 42.9841 44.8777 48.2464 46.7419C49.7566 47.2846 51.4556 47.6032 53.3316 47.6622C53.6266 47.6622 53.9333 47.674 54.2401 47.674L54.2519 47.6858Z" fill="#00966C"/>
<path d="M84.6686 71.8965L66.3805 67.2832C65.1181 66.9647 64.4692 66.3275 64.4692 65.3718C64.4692 64.1802 65.1889 63.6256 66.6165 63.6256H92.9748V51.8623H64.4692C56.7646 51.8623 51.585 56.629 51.585 64.8999C51.585 72.2033 55.3959 76.4272 63.0297 78.1734L81.1525 82.7867C82.2616 83.1053 82.828 83.7424 82.828 84.6155C82.828 85.7246 82.1082 86.2791 80.9166 86.2791H52.4581V98.1251H83.1583C90.8629 98.1251 95.7239 93.5118 95.7239 85.1701C95.7239 77.4537 92.3731 73.6427 84.6686 71.8847V71.8965Z" fill="#00966C"/>
<path d="M0.260742 74.9996C0.260742 89.3114 9.55813 98.1368 24.2593 98.1368H26.4893L31.1026 86.055H24.5779C17.5105 86.055 13.2865 81.831 13.2865 74.9996C13.2865 68.1681 17.5105 63.956 24.3419 63.956H33.7219V98.1368H46.6061V51.8623H24.0233C9.55813 51.8623 0.260742 60.5344 0.260742 74.9996Z" fill="#00966C"/>
<path d="M0.260742 126.725C0.260742 141.037 9.55813 149.851 24.2593 149.851H26.4893L31.1026 137.769H24.5779C17.5105 137.769 13.2865 133.557 13.2865 126.725C13.2865 119.894 17.5105 115.67 24.3419 115.67H33.7219V149.862H46.6061V103.588H24.0233C9.55813 103.588 0.260742 112.26 0.260742 126.725Z" fill="#00966C"/>
</g>
<defs>
<clipPath id="clip0_12097_2198">
<rect width="95.4634" height="149.761" fill="white" transform="translate(0.260742 0.101562)"/>
</clipPath>
</defs>
</svg>
