<?xml version="1.0" encoding="UTF-8" standalone="no"?>
<!-- Created with Inkscape (http://www.inkscape.org/) -->
<svg
   xmlns:svg="http://www.w3.org/2000/svg"
   xmlns="http://www.w3.org/2000/svg"
   version="1.0"
   width="426.5"
   height="426.5"
   id="svg2">
  <defs
     id="defs4">
    <clipPath
       id="clipPath2974">
      <path
         d="M 0.000946,0.30475 L 160.664,0.30475 L 160.864,232.607 L 0.000946,290.086"
         id="path2976" />
    </clipPath>
    <clipPath
       id="clipPath2968">
      <path
         d="M -15.583,-26.379 L 165.756,-26.379 L 165.756,290.721 L -15.583,290.721 L -15.583,-26.379 z"
         id="path2970" />
    </clipPath>
    <clipPath
       id="clipPath2878">
      <path
         d="M 0,0.30475 L 595.021,0.30475 L 595.021,841.83475 L 0,841.83475 L 0,0.30475 z"
         id="path2880" />
    </clipPath>
    <clipPath
       id="clipPath2666">
      <path
         d="M 17.576,463.377 L 109.634,463.377 L 109.634,555.435 L 17.576,555.435 L 17.576,463.377 z"
         id="path2668" />
    </clipPath>
    <clipPath
       id="clipPath2654">
      <path
         d="M 0.000946,647.258 L 167.172,542.057 L 167.172,841.834 L 0.000946,841.834"
         id="path2656" />
    </clipPath>
    <clipPath
       id="clipPath2648">
      <path
         d="M -50.435,536.673 L 239,536.673 L 239,922.587 L -50.435,922.587 L -50.435,536.673 z"
         id="path2650" />
    </clipPath>
    <clipPath
       id="clipPath2604">
      <path
         d="M 453.31,712.209 L 574.924,712.209 L 574.924,809.962 L 453.31,809.962 L 453.31,712.209 z"
         id="path2606" />
    </clipPath>
    <clipPath
       id="clipPath2576">
      <path
         d="M 453.31,712.209 L 574.924,712.209 L 574.924,809.962 L 453.31,809.962 L 453.31,712.209 z"
         id="path2578" />
    </clipPath>
    <clipPath
       id="clipPath2480">
      <path
         d="M 453.31,712.209 L 574.924,712.209 L 574.924,809.962 L 453.31,809.962 L 453.31,712.209 z"
         id="path2482" />
    </clipPath>
    <clipPath
       id="clipPath2460">
      <path
         d="M 453.31,712.209 L 574.924,712.209 L 574.924,809.962 L 453.31,809.962 L 453.31,712.209 z"
         id="path2462" />
    </clipPath>
    <clipPath
       id="clipPath2424">
      <path
         d="M 297.511,315.379 L 297.511,421.07 L 126.619,421.07 L 126.561,285.537"
         id="path2426" />
    </clipPath>
    <clipPath
       id="clipPath2418">
      <path
         d="M 106.726,279.87 L 318.289,279.87 L 318.289,438.542 L 106.726,438.542 L 106.726,279.87 z"
         id="path2420" />
    </clipPath>
  </defs>
  <g
     transform="translate(0.3933949,-6.2551377)"
     id="layer1">
    <g
       transform="matrix(3.5325924,0,0,3.5325924,-756.08301,-651.80134)"
       id="g3748">
      <g
         transform="matrix(0,1.25,1.25,0,216.74946,246.64852)"
         id="g2670">
        <path
           d="M 0,0 C -25.421,0 -46.029,20.607 -46.029,46.028 C -46.029,71.449 -25.421,92.058 0,92.058 C 25.421,92.058 46.028,71.449 46.028,46.028 C 46.028,20.607 25.421,0 0,0"
           id="path2672"
           style="fill:#ed1c24;fill-opacity:1;fill-rule:nonzero;stroke:none" />
      </g>
      <path
         d="M 231.25696,246.64852 C 231.25696,222.88477 250.52071,203.62102 274.28446,203.62102 C 298.04946,203.62102 317.31196,222.88477 317.31196,246.64852 C 317.31196,270.41227 298.04946,289.67477 274.28446,289.67477 C 250.52071,289.67477 231.25696,270.41227 231.25696,246.64852"
         id="path2676"
         style="fill:#ffd600;fill-opacity:1;fill-rule:nonzero;stroke:none" />
      <path
         d="M 277.66696,287.72352 C 254.95196,289.58352 235.02946,272.67477 233.16946,249.95977 C 231.31071,227.24477 248.21821,207.32227 270.93321,205.46227 C 293.64946,203.60352 313.57196,220.51102 315.43071,243.22602 C 317.28946,265.94102 300.38196,285.86352 277.66696,287.72352"
         id="path2680"
         style="fill:#231f20;fill-opacity:1;fill-rule:nonzero;stroke:none" />
      <path
         d="M 246.72446,282.11227 L 246.70071,282.09477 L 243.27196,284.51852 L 239.86321,281.95102 L 239.84446,281.97477 L 241.08571,286.11227 L 237.55196,288.55102 L 237.55696,288.59227 L 241.79946,288.62227 L 242.99696,292.69102 L 243.03946,292.68477 L 244.42321,288.62602 L 248.71696,288.65977 L 248.73446,288.63477 L 245.31446,286.05852"
         id="path2684"
         style="fill:#ffd600;fill-opacity:1;fill-rule:evenodd;stroke:none" />
      <path
         d="M 259.67821,289.13227 L 259.64946,289.12227 L 257.13821,292.48727 L 253.10196,291.09852 L 253.09196,291.12602 L 255.54946,294.67852 L 252.94321,298.08977 L 252.96196,298.12727 L 257.00571,296.84477 L 259.40321,300.34477 L 259.44071,300.32602 L 259.50196,296.03727 L 263.59696,294.74352 L 263.60696,294.71477 L 259.55696,293.32102"
         id="path2688"
         style="fill:#ffd600;fill-opacity:1;fill-rule:evenodd;stroke:none" />
      <path
         d="M 274.26696,291.50727 L 274.23696,291.50727 L 273.02821,295.52852 L 268.76071,295.60227 L 268.76071,295.63227 L 272.28571,298.12977 L 271.00321,302.22602 L 271.03321,302.25477 L 274.39446,299.66852 L 277.84446,302.13602 L 277.87321,302.10602 L 276.46321,298.05602 L 279.86821,295.43977 L 279.86821,295.41102 L 275.58696,295.48477"
         id="path2692"
         style="fill:#ffd600;fill-opacity:1;fill-rule:evenodd;stroke:none" />
      <path
         d="M 288.80446,289.05602 L 288.77571,289.06602 L 288.86946,293.26352 L 284.83071,294.65352 L 284.84321,294.68102 L 288.96696,295.96727 L 289.01321,300.25852 L 289.05071,300.27727 L 291.44821,296.77852 L 295.49196,298.06102 L 295.51071,298.02352 L 292.91821,294.60602 L 295.34821,291.06477 L 295.33821,291.03727 L 291.28696,292.43227"
         id="path2696"
         style="fill:#ffd600;fill-opacity:1;fill-rule:evenodd;stroke:none" />
      <path
         d="M 301.70196,281.82477 L 301.67946,281.84227 L 303.20321,285.75602 L 299.88696,288.44227 L 299.90446,288.46477 L 304.21821,288.26227 L 305.73196,292.28102 L 305.77321,292.28477 L 306.82946,288.17727 L 311.06696,287.99852 L 311.07321,287.95727 L 307.46821,285.63352 L 308.53821,281.47477 L 308.51946,281.45102 L 305.19071,284.14602"
         id="path2700"
         style="fill:#ffd600;fill-opacity:1;fill-rule:evenodd;stroke:none" />
      <path
         d="M 227.34446,234.22102 C 229.46446,235.11727 231.42696,232.98727 232.50946,230.30602 C 233.84071,227.01227 233.35821,224.78477 231.76946,224.14352 C 229.80571,223.35102 228.30821,225.90477 227.79321,226.72352 C 226.00821,229.53602 225.69071,230.07852 225.02321,229.80977 C 224.29571,229.51602 224.43821,228.42727 224.78196,227.57852 C 225.29571,226.30727 225.98071,225.37852 227.05821,225.71602 L 228.10071,223.13602 C 226.09946,222.32727 224.37196,224.33352 223.34946,226.86352 C 222.46571,229.05227 222.36821,231.73727 224.13821,232.45227 C 225.76321,233.10727 226.99446,231.49352 228.06071,229.83102 C 229.11946,228.18602 230.01196,226.43477 230.94571,226.81227 C 231.83071,227.16852 231.44946,228.67352 231.07196,229.60727 C 230.49571,231.03227 229.53946,232.10727 228.38821,231.64102 L 227.34446,234.22102"
         id="path2704"
         style="fill:#ffd600;fill-opacity:1;fill-rule:evenodd;stroke:none" />
      <path
         d="M 238.48446,209.83102 C 236.60821,208.71102 234.13196,209.78852 232.28446,211.98977 C 229.68446,215.08852 229.80696,218.29852 231.93071,220.07977 C 233.99571,221.81102 237.17696,221.37477 239.77821,218.27602 C 241.83821,215.82227 242.14446,213.13977 240.54821,211.41852 L 238.75946,213.55102 C 239.56071,214.50852 239.58696,215.82102 238.45571,217.16602 C 236.79696,219.14477 234.97071,218.87852 233.77946,217.87852 C 232.52571,216.82852 231.94696,215.07602 233.60821,213.09977 C 234.52446,212.00477 235.86696,211.50477 236.69571,211.96227 L 238.48446,209.83102"
         id="path2708"
         style="fill:#ffd600;fill-opacity:1;fill-rule:evenodd;stroke:none" />
      <path
         d="M 245.85321,211.83852 L 253.60696,206.80477 L 252.66821,205.35602 L 247.32321,208.82602 L 243.17821,202.44352 L 240.76821,204.00977"
         id="path2712"
         style="fill:#ffd600;fill-opacity:1;fill-rule:evenodd;stroke:none" />
      <path
         d="M 264.35196,203.16727 L 267.17321,202.61852 L 265.72196,195.14977 L 269.56696,194.40102 L 269.23696,192.70852 L 258.72446,194.75102 L 259.05321,196.44477 L 262.89946,195.69852"
         id="path2716"
         style="fill:#ffd600;fill-opacity:1;fill-rule:evenodd;stroke:none" />
      <path
         d="M 273.48946,202.14977 L 276.36446,202.19977 L 276.52571,192.86602 L 273.65196,192.81602"
         id="path2720"
         style="fill:#ffd600;fill-opacity:1;fill-rule:evenodd;stroke:none" />
      <path
         d="M 289.37196,204.65727 L 291.13946,205.13102 L 292.44696,200.25477 L 287.14071,198.83477 L 286.74446,200.31227 L 289.53946,201.06102 C 289.04446,202.26852 287.81571,202.68352 286.01196,202.20102 C 283.51696,201.53227 282.98571,199.76602 283.38946,198.26352 C 283.81196,196.68477 285.15696,195.41977 287.65071,196.08727 C 288.95946,196.43852 289.86321,197.23602 289.91321,198.31852 L 292.56696,199.02977 C 292.81446,196.90352 290.67946,195.11227 288.09571,194.42102 C 284.18821,193.37352 281.33071,194.84227 280.61321,197.51852 C 279.91571,200.12227 281.65696,202.82102 285.56446,203.86727 C 286.78571,204.19352 288.15071,204.19477 289.36196,203.55852 L 289.37196,204.65727"
         id="path2724"
         style="fill:#ffd600;fill-opacity:1;fill-rule:evenodd;stroke:none" />
      <path
         d="M 294.38321,206.68102 L 302.70571,212.08477 L 303.64571,210.63727 L 297.73446,206.79852 L 298.97946,204.87977 L 304.29321,208.32852 L 305.16196,206.99227 L 299.84946,203.54227 L 300.93946,201.86477 L 306.72821,205.62227 L 307.66821,204.17602 L 299.46821,198.85227"
         id="path2728"
         style="fill:#ffd600;fill-opacity:1;fill-rule:evenodd;stroke:none" />
      <path
         d="M 305.05321,214.18477 L 306.89946,216.38602 L 309.69571,214.04102 L 311.54196,216.24227 C 312.47196,217.35102 312.48321,218.03477 311.86071,218.81852 C 311.38446,219.40977 310.66946,219.96227 310.44321,220.60727 L 312.28946,222.80852 C 312.36071,222.07852 313.21446,221.38852 313.63071,220.96727 C 314.29321,220.29227 314.78571,219.35227 314.07946,218.10602 L 314.09946,218.08852 C 315.34946,218.92727 316.38196,218.87477 317.22321,218.16852 C 318.30571,217.26102 318.24321,215.37852 316.73696,213.58227 L 312.20571,208.18352 L 305.05321,214.18477 z M 312.82946,211.41102 L 314.85446,213.82227 C 315.67821,214.80477 315.82571,215.58977 315.13446,216.16852 C 314.41446,216.77477 313.66571,216.49352 312.84196,215.51227 L 310.81821,213.09977 L 312.82946,211.41102"
         id="path2732"
         style="fill:#ffd600;fill-opacity:1;fill-rule:evenodd;stroke:none" />
      <path
         d="M 316.40196,223.70977 C 314.25446,224.53852 314.32446,227.43227 315.40571,230.11352 C 316.73821,233.40602 318.63196,234.67352 320.22196,234.03102 C 322.18571,233.23852 321.48821,230.36227 321.28821,229.41477 C 320.61946,226.15227 320.47071,225.54102 321.13696,225.27102 C 321.86571,224.97852 322.51821,225.85852 322.86071,226.70727 C 323.37571,227.98102 323.52696,229.12352 322.51821,229.62977 L 323.56196,232.20977 C 325.56071,231.40102 325.40946,228.75727 324.38821,226.22852 C 323.50446,224.03977 321.70696,222.04102 319.93821,222.75477 C 318.31321,223.41227 318.54946,225.42852 318.93696,227.36477 C 319.31821,229.28352 319.89446,231.16227 318.95946,231.53977 C 318.07446,231.89852 317.30571,230.55102 316.92821,229.61727 C 316.35196,228.19102 316.29196,226.75477 317.44446,226.28977 L 316.40196,223.70977"
         id="path2736"
         style="fill:#ffd600;fill-opacity:1;fill-rule:evenodd;stroke:none" />
      <path
         d="M 306.77821,234.85102 C 306.77821,234.85102 305.61696,232.33602 304.93321,231.93977 C 304.93321,231.93977 304.36946,231.18227 304.57946,230.06227 C 304.57946,230.06227 306.48196,226.34102 304.63821,220.36727 L 303.90696,220.02602 C 303.90696,220.02602 304.80321,224.82102 303.36446,227.50102 L 302.43446,230.83977 C 302.43446,230.83977 302.00821,231.77852 302.91571,233.05852 C 302.91571,233.05852 304.80321,236.46852 305.07196,236.69727 C 305.07196,236.69727 305.50571,237.71727 305.42071,239.12977 L 305.75571,246.27977 C 305.75571,246.27977 306.51446,246.97102 305.89321,247.97477 C 305.89321,247.97477 304.40571,251.86227 304.71321,254.99977 L 307.40696,248.05227 C 307.40696,248.05227 307.97321,247.00227 307.53821,245.98352 L 307.88196,241.58852 C 307.88196,241.58852 308.06321,237.65727 306.77821,234.85102"
         id="path2740"
         style="fill:#ffd600;fill-opacity:1;fill-rule:nonzero;stroke:none" />
      <path
         d="M 276.35196,216.20727 C 276.35196,216.20727 282.57071,218.57602 285.52321,218.66977 C 285.52321,218.66977 286.71946,218.57102 287.98571,220.14227 C 287.98571,220.14227 290.31071,221.55727 291.32946,222.54477 C 291.32946,222.54477 292.36446,222.12602 292.62571,221.23352 C 292.62571,221.23352 293.49821,220.42727 291.82571,219.62727 C 291.82571,219.62727 285.63321,215.91602 276.35196,216.20727"
         id="path2744"
         style="fill:#ffd600;fill-opacity:1;fill-rule:nonzero;stroke:none" />
      <path
         d="M 246.77071,217.89227 L 246.92446,218.95102 C 248.68571,219.20852 252.47821,220.57102 252.47821,220.57102 C 254.68321,221.32727 254.78696,222.59102 254.78696,222.59102 C 256.04446,225.69977 258.37321,225.50977 258.37321,225.50977 C 259.36196,226.16477 258.91321,226.40352 258.91321,226.40352 C 257.65446,226.57352 256.06071,229.98352 256.06071,229.98352 L 253.80946,231.10352 L 248.28196,237.98227 C 248.06571,238.60352 246.81196,243.72602 246.81196,243.72602 C 247.87196,246.04852 247.82821,252.87977 247.82821,252.87977 C 247.94821,254.34227 248.82571,255.27352 248.82571,255.27352 C 249.06071,258.93727 251.40571,261.42227 251.40571,261.42227 C 248.98571,260.48102 248.26571,256.59227 248.26571,256.59227 C 248.00821,255.07352 246.41446,252.79352 246.41446,252.79352 L 244.97696,247.49102 C 244.63571,246.58102 244.72821,242.82477 244.72821,242.82477 L 247.08071,237.21102 L 250.54946,232.97852 L 255.28696,229.51102 L 255.58696,228.28102 L 255.84321,227.32352 C 251.29196,220.80102 247.34446,220.79102 247.34446,220.79102 C 248.73446,223.88977 252.58071,225.91727 252.58071,225.91727 L 253.75946,228.03102 L 249.55696,229.84602 L 244.63446,236.74227 L 243.09696,244.16352 L 244.57696,253.21352 L 246.16696,255.49227 L 246.36321,258.68852 C 246.98446,261.38227 247.60446,261.59977 247.60446,261.59977 C 250.07571,262.33477 251.30196,264.24102 251.30196,264.24102 L 253.36196,264.07352 C 253.11696,262.68852 250.96071,258.44602 250.96071,258.44602 L 250.14571,255.03227 L 253.13946,258.06727 L 253.81196,256.47352 L 252.61196,254.89727 L 249.89946,252.84352 C 250.43071,246.23977 249.38446,241.64102 249.38446,241.64102 L 249.44321,239.89477 L 252.28446,235.37977 L 253.92196,234.10727 C 255.04821,232.34227 257.62071,231.05977 257.62071,231.05977 C 256.52321,231.55102 254.90571,234.69602 254.90571,234.69602 L 253.55696,237.01477 C 252.28321,236.98477 251.26446,240.08102 251.26446,240.08102 L 250.93196,244.99477 L 251.59946,249.89352 C 251.59946,249.89352 250.90946,248.81102 251.61571,250.09227 C 252.32196,251.37477 254.23821,252.68977 254.23821,252.68977 C 256.58571,254.37102 261.69071,252.14602 261.69071,252.14602 C 252.18071,257.81102 254.49696,264.04727 254.49696,264.04727 C 256.47821,263.68352 260.21571,263.57852 260.21571,263.57852 L 260.32196,264.03852 C 259.44696,263.97727 254.81321,264.62352 254.81321,264.62352 C 254.86821,265.28977 255.29946,265.65602 255.29946,265.65602 C 257.60571,265.14852 262.29446,265.23852 262.29446,265.23852 L 262.52946,265.66602 C 259.83196,265.41727 255.35321,266.31977 255.35321,266.31977 C 255.34696,267.05727 256.13446,267.66102 256.13446,267.66102 C 257.69071,267.06477 261.60821,266.67727 261.60821,266.67727 L 261.76821,266.99852 C 259.51321,267.25102 256.31571,268.24852 256.31571,268.24852 C 256.48571,268.70352 256.95571,268.90727 256.95571,268.90727 C 260.35696,267.77352 265.07446,267.17852 265.07446,267.17852 L 265.43571,267.63602 C 262.85696,268.04852 257.47571,269.35852 257.47571,269.35852 C 257.57571,269.75102 259.05321,270.63602 259.05321,270.63602 L 264.81696,269.09102 L 265.04071,269.34102 L 259.75821,271.04602 C 263.17321,272.70727 267.81071,272.12602 267.81071,272.12602 C 273.70071,272.11352 272.85696,269.16977 272.85696,269.16977 C 272.98071,267.42102 271.84571,265.84102 271.84571,265.84102 C 270.06196,263.64352 268.79071,263.67977 268.79071,263.67977 C 266.50321,263.53227 264.91821,261.31977 264.91821,261.31977 C 263.65696,259.81727 266.98196,251.37852 266.98196,251.37852 C 267.47321,248.39352 266.22321,247.02227 266.22321,247.02227 C 264.27196,245.24227 263.81446,246.21602 263.81446,246.21602 C 262.65071,246.71352 261.51446,246.73852 261.51446,246.73852 C 257.97071,245.95727 257.77071,242.69477 257.77071,242.69477 L 256.75321,242.51102 L 257.16196,245.08727 C 258.27821,247.27227 260.87696,247.92977 260.87696,247.92977 L 258.53821,247.98727 L 256.20946,245.69977 L 255.11446,241.30602 L 254.81821,245.88102 L 256.66321,249.61227 L 260.17821,250.86477 L 258.15196,251.43102 C 256.46821,250.49977 254.31946,249.60352 254.31946,249.60352 C 254.01321,248.29102 252.88696,245.16977 252.88696,245.16977 C 253.88821,242.67727 254.10196,239.58227 254.10196,239.58227 L 254.97196,238.77477 C 255.95071,236.81977 258.73571,234.85102 258.73571,234.85102 C 259.65696,233.83977 260.60571,231.55102 260.60571,231.55102 C 261.16446,232.64477 260.36196,235.92352 260.36196,235.92352 C 261.26821,237.18727 261.27696,238.92727 261.27696,238.92727 L 261.18696,239.46977 L 259.89321,238.37102 C 259.53946,238.13227 259.27446,236.54727 259.27446,236.54727 C 258.46571,237.28227 258.79446,238.86227 258.79446,238.86227 C 260.94321,240.56102 263.57196,241.61727 263.57196,241.61727 C 267.27196,242.65352 267.48196,246.04977 267.48196,246.04977 C 268.25821,249.80227 267.09571,252.77477 267.09571,252.77477 C 266.26321,254.85102 265.87571,257.49227 265.87571,257.49227 C 265.91571,259.63102 267.55696,260.03227 267.55696,260.03227 C 265.13071,259.82977 265.75821,261.78727 265.75821,261.78727 C 266.55446,263.32727 268.34946,263.18102 268.34946,263.18102 C 268.45696,262.03477 269.84571,262.65727 269.84571,262.65727 C 273.23571,263.18227 273.09196,267.14352 273.09196,267.14352 C 273.37321,268.12477 273.82821,267.14977 273.82821,267.14977 C 274.49821,263.88227 276.16821,263.01102 276.16821,263.01102 C 278.29446,262.03102 278.19321,263.24477 278.19321,263.24477 C 281.65821,263.02977 281.03321,261.13852 281.03321,261.13852 C 280.92321,259.80977 279.37821,260.53727 279.37821,260.53727 C 278.49946,260.81727 276.35321,261.40227 276.35321,261.40227 C 271.13321,262.60727 268.60321,260.54977 268.60321,260.54977 L 268.85321,260.32727 C 271.44446,261.72352 276.26446,260.92602 276.26446,260.92602 C 279.83946,260.43227 280.37696,258.84852 280.37696,258.84852 C 281.37196,257.89727 280.22696,252.90477 280.22696,252.90477 C 279.49446,249.68477 279.51071,246.60477 279.51071,246.60477 C 279.36446,244.00602 282.45321,242.48227 282.45321,242.48227 C 287.25821,240.68227 289.08196,239.26227 289.08196,239.26227 L 289.27821,238.37477 C 289.52321,237.28352 288.73071,237.41602 288.73071,237.41602 L 288.35821,238.58477 C 287.36196,237.86227 286.10696,239.70602 286.10696,239.70602 C 285.28696,240.30852 285.23196,239.64352 285.23196,239.64352 L 286.09196,237.89977 C 287.64196,236.36727 287.40071,234.24477 287.40071,234.24477 C 287.18696,233.25977 287.55821,232.89352 287.55821,232.89352 L 288.49446,233.68727 L 288.81821,235.19977 C 288.92821,235.72727 290.72071,237.18602 290.72071,237.18602 C 290.91946,237.97352 293.09196,240.00352 293.09196,240.00352 L 293.12821,242.07602 L 294.31696,244.32102 L 292.84571,249.26102 L 289.30196,251.75977 C 287.37946,251.98477 286.20696,250.74227 286.20696,250.74227 C 289.58821,250.33102 291.43071,248.30602 291.43071,248.30602 L 292.42446,245.74727 C 292.28196,244.82352 291.75946,242.52352 291.75946,242.52352 C 290.98446,241.24727 290.78196,242.86977 290.78196,242.86977 C 290.95446,244.12852 290.54821,244.89852 290.54821,244.89852 C 288.95821,248.37477 286.69821,247.75727 286.69821,247.75727 C 289.91446,245.35227 288.99946,243.95352 288.99946,243.95352 C 288.90196,242.75602 288.06821,244.02977 288.06821,244.02977 C 287.52821,245.61352 286.14196,246.66477 286.14196,246.66477 C 284.99821,247.42727 283.28571,246.96477 283.28571,246.96477 C 280.89446,246.35727 280.43196,248.06852 280.43196,248.06852 C 279.99321,249.24227 280.56446,252.13977 280.56446,252.13977 C 281.83821,256.25352 281.91571,260.46227 281.91571,260.46227 C 282.14696,262.45352 280.64946,262.97852 280.64946,262.97852 C 276.83696,263.82352 275.62571,265.39727 275.62571,265.39727 C 271.55321,269.61102 275.41321,271.77352 275.41321,271.77352 C 277.95196,273.37227 285.97696,272.10852 285.97696,272.10852 C 285.10821,271.50977 282.13446,270.48602 282.13446,270.48602 L 282.30071,270.07102 C 283.59071,270.29977 286.98446,271.69602 286.98446,271.69602 C 287.45071,271.65852 288.31571,270.78352 288.31571,270.78352 C 286.40321,269.65852 280.06821,268.24977 280.06821,268.24977 L 280.30321,267.75852 C 283.97571,268.46102 289.07071,270.18602 289.07071,270.18602 C 289.57446,269.80977 289.80321,269.32227 289.80321,269.32227 C 288.19696,268.51727 281.81196,267.36602 281.81196,267.36602 L 281.97821,266.95102 C 287.13446,267.80102 290.35696,268.74227 290.35696,268.74227 L 290.82446,267.90102 C 289.54571,267.00102 282.43071,265.90977 282.43071,265.90977 L 282.67446,265.62227 C 287.79571,266.07227 291.22571,267.06477 291.22571,267.06477 L 291.68071,266.08977 L 286.61321,264.69852 L 286.57571,264.17102 L 291.91446,265.37227 C 292.62321,263.00477 291.98321,260.81102 291.98321,260.81102 C 291.02571,257.67602 286.04571,253.26602 286.04571,253.26602 C 292.27196,256.97352 295.81571,248.74977 295.81571,248.74977 C 295.42571,247.67727 296.33696,245.29477 296.33696,245.29477 C 296.53821,239.15352 295.16571,238.36227 295.16571,238.36227 C 292.89946,237.64352 292.37946,234.97477 292.37946,234.97477 C 292.29821,233.97727 291.57071,232.43102 291.57071,232.43102 L 290.57196,231.30727 L 290.47571,230.11102 L 292.80571,232.83227 C 293.57696,233.67352 293.49571,233.88102 293.49571,233.88102 C 295.39571,235.02977 297.03696,237.90727 297.03696,237.90727 C 298.48071,239.59727 298.09571,241.03352 298.09571,241.03352 C 297.60321,242.37977 297.51196,248.60977 297.51196,248.60977 L 296.55196,251.60102 C 296.60446,254.70977 293.90571,254.82977 293.90571,254.82977 L 292.81946,257.52977 L 293.63321,258.86852 L 295.27946,256.92727 L 296.47946,255.62352 C 296.99696,254.57727 298.46071,252.85102 298.46071,252.85102 C 298.55821,254.04852 297.55821,256.53977 297.55821,256.53977 L 294.45946,262.81852 C 293.35071,264.01227 293.24821,265.60977 293.24821,265.60977 L 294.26196,265.72727 C 298.95946,263.85352 300.22821,260.93852 300.22821,260.93852 C 302.77696,256.51352 303.64446,249.91727 303.64446,249.91727 C 305.12196,244.67602 303.92821,242.36352 303.92821,242.36352 L 303.38821,236.98477 C 303.32321,236.18852 302.63571,235.13977 302.63571,235.13977 C 301.97321,231.98102 299.37571,229.68352 299.37571,229.68352 L 296.57821,227.40352 L 296.50571,226.50477 C 296.92946,225.56602 301.53196,221.67727 301.53196,221.67727 C 296.83696,221.95977 293.48946,226.45102 293.48946,226.45102 L 296.31071,230.23602 L 296.30696,231.44102 C 298.24196,231.78477 300.37446,235.72727 300.37446,235.72727 C 302.70446,238.44727 301.86821,241.72977 301.86821,241.72977 C 300.56071,249.06477 302.05446,250.14727 302.05446,250.14727 L 301.77071,251.57602 C 301.76946,258.90602 295.66946,262.91977 295.66946,262.91977 C 300.39821,258.11352 299.98446,251.82227 299.98446,251.82227 C 299.25446,250.27727 299.31696,247.35977 299.31696,247.35977 C 302.36946,234.35852 295.24321,231.92977 295.24321,231.92977 C 294.67196,229.86852 291.18696,226.53852 291.18696,226.53852 L 294.77446,223.73477 C 295.03821,223.31102 298.21696,221.64727 298.21696,221.64727 L 300.53571,220.55227 C 303.10446,220.04102 302.34071,219.30102 302.34071,219.30102 C 302.55821,218.27852 300.29071,218.76602 300.29071,218.76602 C 294.44696,219.74602 291.96321,223.76477 291.96321,223.76477 L 287.83071,221.09102 C 287.03321,219.95102 284.60696,219.74727 284.60696,219.74727 L 276.36696,218.41477 L 280.17571,220.81352 L 283.76446,221.72477 C 284.50196,223.37102 287.72446,224.71352 287.72446,224.71352 L 289.82571,225.84727 L 289.61446,226.96852 C 286.53821,223.70602 284.89946,224.54352 284.89946,224.54352 L 279.36821,221.98477 L 276.09696,221.24852 L 279.43946,225.29102 L 279.93821,225.25102 C 280.61696,226.19852 281.63946,226.41602 281.63946,226.41602 C 282.75196,226.52602 283.39196,226.97602 283.39196,226.97602 L 286.08071,230.37102 L 284.15321,228.92102 C 283.23946,227.59102 279.68446,227.07977 279.68446,227.07977 L 278.58071,225.86352 L 276.19946,224.95477 L 277.17571,227.08352 C 278.27696,229.50352 280.29571,229.63977 280.29571,229.63977 L 282.81071,232.14477 L 283.72196,233.47602 L 281.61321,232.24227 L 279.13071,231.34102 L 276.20071,228.66852 L 277.22571,232.60227 L 278.19571,234.62977 C 279.22196,236.15227 278.78821,238.19602 278.78821,238.19602 L 278.34321,238.06602 L 278.21196,236.46977 L 276.73571,233.97977 L 275.43571,232.81477 L 274.37446,230.49227 C 273.80946,231.74352 271.50196,233.00352 271.50196,233.00352 L 268.84821,236.56727 L 270.53446,231.80977 L 273.18571,229.85352 L 273.62071,227.80977 C 271.24321,228.20477 270.02571,230.51352 270.02571,230.51352 C 267.78321,230.89852 265.23071,234.05102 265.23071,234.05102 C 265.72571,231.13227 267.91196,230.01727 267.91196,230.01727 L 268.83696,229.87477 C 270.75571,228.77977 271.23446,227.26977 271.23446,227.26977 L 272.29071,227.11477 C 273.96696,225.50477 274.19196,224.14852 274.19196,224.14852 C 273.12571,224.23602 271.63321,225.62852 271.63321,225.62852 C 269.01446,225.18227 263.69071,228.56977 262.62946,229.26852 C 263.60321,228.57727 265.49446,226.66727 265.49446,226.66727 C 267.90071,225.80102 269.78071,224.24227 269.78071,224.24227 C 271.59946,223.55727 273.87946,221.16227 273.87946,221.16227 C 269.12946,222.01977 268.67821,223.05977 268.67821,223.05977 C 264.83696,222.70477 260.92571,225.63477 260.92571,225.63477 C 261.53071,224.85102 264.34196,222.41102 264.34196,222.41102 C 267.80071,221.32477 272.49071,219.73477 272.49071,219.73477 C 273.53196,219.38227 274.08321,218.73602 274.08321,218.73602 C 272.55446,218.05727 266.75321,219.13477 266.75321,219.13477 C 264.81196,219.96227 262.31821,220.56852 262.31821,220.56852 C 263.68821,219.31977 267.53071,218.00102 267.53071,218.00102 C 269.13571,218.00227 272.41571,217.19852 272.41571,217.19852 C 274.01321,217.06727 274.20821,216.18227 274.20821,216.18227 C 263.76571,215.36352 257.99321,219.24977 257.99321,219.24977 C 256.66196,220.16102 257.58196,220.75602 257.58196,220.75602 C 258.94946,221.91602 260.57696,221.38102 260.57696,221.38102 L 258.82571,222.86227 C 255.43946,219.12477 254.61446,218.85727 254.61446,218.85727 C 253.84071,218.38477 246.77071,217.89227 246.77071,217.89227"
         id="path2748"
         style="fill:#ffd600;fill-opacity:1;fill-rule:nonzero;stroke:none" />
      <path
         d="M 264.33071,273.76852 C 263.51821,273.24852 263.36196,274.19977 263.36196,274.19977 C 262.52946,279.15352 265.13071,280.68102 265.13071,280.68102 C 270.14946,284.35352 278.52696,282.42852 278.52696,282.42852 C 284.04696,281.60852 283.94946,274.68977 283.94946,274.68977 C 283.53946,273.34977 283.12696,274.03727 283.12696,274.03727 C 283.02446,274.59727 281.55321,276.87602 281.55321,276.87602 C 280.85321,278.13727 279.41571,278.35602 279.41571,278.35602 C 275.34071,279.49352 269.08071,278.44977 269.08071,278.44977 C 264.52446,277.96977 264.33071,273.76852 264.33071,273.76852"
         id="path2752"
         style="fill:#ffd600;fill-opacity:1;fill-rule:nonzero;stroke:none" />
      <path
         d="M 266.40321,277.01227 C 266.40321,277.01227 266.94321,277.47102 267.11821,276.55227 C 267.11821,276.55227 267.39821,273.21602 267.63071,272.99477 C 267.63071,272.99477 265.63571,273.15977 265.01321,272.90852 C 265.01321,272.90852 264.82321,275.48602 266.40321,277.01227"
         id="path2756"
         style="fill:#ffffff;fill-opacity:1;fill-rule:nonzero;stroke:none" />
      <path
         d="M 278.60196,274.55727 C 278.60196,274.55727 278.69821,273.89727 278.59196,273.20227 C 278.59196,273.20227 274.83071,273.25852 273.86696,270.67852 L 273.06071,270.64352 C 273.06071,270.64352 272.60446,272.43852 268.41946,272.83227 C 268.41946,272.83227 266.11071,277.73852 270.94446,277.89602 C 270.94446,277.89602 273.23696,278.31102 273.21946,275.65102 C 273.21946,275.65102 273.35321,275.43977 273.42321,275.68477 C 273.42321,275.68477 273.34446,278.40227 276.09446,278.27727 C 276.09446,278.27727 279.31071,278.31477 278.60196,274.55727"
         id="path2760"
         style="fill:#ed1c24;fill-opacity:1;fill-rule:nonzero;stroke:none" />
      <path
         d="M 279.62821,277.28477 C 279.66071,277.68477 279.90696,277.61352 279.90696,277.61352 C 282.26821,275.21102 281.81071,273.28977 281.81071,273.28977 C 280.96821,273.40977 279.37196,273.54102 279.37196,273.54102 C 279.70696,274.56727 279.62821,277.28477 279.62821,277.28477"
         id="path2764"
         style="fill:#ffffff;fill-opacity:1;fill-rule:nonzero;stroke:none" />
      <path
         d="M 282.77196,244.92977 C 282.24196,244.57102 282.50946,245.40352 282.50946,245.40352 C 283.42571,246.78352 284.86321,246.56477 284.86321,246.56477 C 287.17071,245.92602 286.73696,244.30352 286.73696,244.30352 C 286.62946,243.60977 286.32946,244.23602 286.32946,244.23602 C 286.00321,245.76977 284.80196,245.81852 284.80196,245.81852 C 283.51071,245.97477 282.77196,244.92977 282.77196,244.92977"
         id="path2768"
         style="fill:#ffffff;fill-opacity:1;fill-rule:nonzero;stroke:none" />
      <path
         d="M 284.71946,245.04102 C 285.00196,244.81602 284.93946,242.51852 284.93946,242.51852 L 283.26321,243.25727 L 284.71946,245.04102"
         id="path2772"
         style="fill:#ffffff;fill-opacity:1;fill-rule:nonzero;stroke:none" />
      <path
         d="M 259.97821,243.90352 C 259.97821,243.90352 259.58071,243.33352 259.58696,244.03602 C 259.58696,244.03602 259.42321,245.70602 261.80321,245.96227 C 261.80321,245.96227 263.25821,245.94352 263.93821,244.43352 C 263.93821,244.43352 264.06821,243.56852 263.60196,244.00852 C 263.60196,244.00852 263.04321,245.15852 261.74196,245.21602 C 261.74196,245.21602 260.54946,245.36227 259.97821,243.90352"
         id="path2776"
         style="fill:#ffffff;fill-opacity:1;fill-rule:nonzero;stroke:none" />
      <path
         d="M 261.64446,244.36977 L 262.82571,242.65352 L 261.35696,241.73227 C 261.35696,241.73227 261.32946,244.19477 261.64446,244.36977"
         id="path2780"
         style="fill:#ffffff;fill-opacity:1;fill-rule:nonzero;stroke:none" />
      <path
         d="M 243.33946,253.64977 C 243.64821,250.87977 241.94321,242.31727 241.94321,242.31727 L 246.14071,232.26852 L 245.23821,220.42727 C 242.77071,222.16977 244.68696,230.84852 244.68696,230.84852 L 240.43446,240.23352 L 240.32071,246.19977 C 241.09821,245.06477 243.33946,253.64977 243.33946,253.64977"
         id="path2784"
         style="fill:#ffd600;fill-opacity:1;fill-rule:nonzero;stroke:none" />
      <path
         d="M 242.35446,266.94602 C 244.97321,266.22977 249.90946,265.69477 249.90946,265.69477 L 249.48571,265.10602 C 245.51821,265.23477 242.57821,266.11102 242.57821,266.11102 L 242.27446,265.66602 C 246.14946,264.63852 249.21821,264.70477 249.21821,264.70477 L 248.80946,264.14477 C 243.73571,264.33227 241.20321,265.24602 241.20321,265.24602 L 242.35446,266.94602"
         id="path2788"
         style="fill:#ffd600;fill-opacity:1;fill-rule:nonzero;stroke:none" />
      <path
         d="M 243.50446,269.09727 C 244.93071,268.69102 251.05946,267.44727 251.05946,267.44727 L 250.72196,266.96977 C 248.48321,267.10602 243.80071,268.27227 243.80071,268.27227 L 243.46321,267.83102 C 247.02446,266.76977 250.38446,266.40477 250.38446,266.40477 L 250.05946,265.89477 C 245.70321,266.25102 242.50321,267.39727 242.50321,267.39727 L 243.50446,269.09727"
         id="path2792"
         style="fill:#ffd600;fill-opacity:1;fill-rule:nonzero;stroke:none" />
      <path
         d="M 252.86196,269.39727 L 252.35571,268.94102 C 252.35571,268.94102 248.84821,269.42852 245.38821,270.48227 L 244.86696,269.85477 C 244.86696,269.85477 249.78321,268.61352 251.88571,268.30602 L 251.11071,267.64602 C 251.11071,267.64602 245.23946,268.80727 243.75571,269.49727 L 245.35696,271.34852 C 245.35696,271.34852 247.53571,270.57102 252.86196,269.39727"
         id="path2796"
         style="fill:#ffd600;fill-opacity:1;fill-rule:nonzero;stroke:none" />
      <path
         d="M 247.65821,273.80102 C 247.65821,273.80102 253.57071,270.95852 254.91321,270.79852 L 254.36446,270.36602 C 254.36446,270.36602 249.22821,272.04227 247.54946,272.98227 L 246.75571,272.49477 C 246.75571,272.49477 251.67946,270.76477 253.57321,270.00727 L 252.96196,269.59727 C 252.96196,269.59727 248.06321,271.05727 245.65696,272.29977 C 245.65696,272.29977 247.35071,273.72602 247.65821,273.80102"
         id="path2800"
         style="fill:#ffd600;fill-opacity:1;fill-rule:nonzero;stroke:none" />
      <path
         d="M 299.12446,276.10727 L 289.08446,271.99852 L 288.51071,272.44227 L 297.67446,276.24852 L 297.26571,276.75727 L 288.30196,272.85852 L 287.83446,273.09977 L 289.48446,273.71102 L 287.66196,273.61477 C 286.17196,273.83602 286.11696,274.99477 286.11696,274.99477 C 285.89946,276.62102 284.60321,279.18602 284.60321,279.18602 C 283.29946,283.50977 275.36821,283.50602 275.36821,283.50602 C 268.51821,284.46852 263.94946,281.37852 263.94946,281.37852 C 260.78071,279.47977 260.55696,274.27727 260.55696,274.27727 C 260.46196,273.13102 259.96696,273.22102 259.96696,273.22102 L 257.66321,272.05352 C 257.09821,271.89852 256.17196,272.22602 256.17196,272.22602 C 255.06071,272.76852 249.70196,275.36727 249.70196,275.36727 L 249.16696,274.95727 C 251.94446,273.32477 256.07321,271.63352 256.07321,271.63352 L 255.51321,271.19852 C 249.66571,273.57477 248.25696,274.90102 248.25696,274.90102 L 249.85946,276.20227 C 253.54821,273.80727 255.19571,273.55352 255.93446,272.99852 C 256.83321,272.32227 257.15946,272.64727 257.15946,272.64727 L 258.70446,273.72602 C 259.67696,273.94727 259.66196,275.00227 259.66196,275.00227 C 260.19446,279.67852 263.49071,281.91852 263.49071,281.91852 C 268.01196,285.01227 275.38696,284.35727 275.38696,284.35727 C 284.97071,283.67352 285.55571,279.15852 285.55571,279.15852 C 286.61696,277.41602 287.17946,275.10977 287.17946,275.10977 C 287.43196,273.88477 289.64571,273.95477 289.64571,273.95477 L 289.23571,273.85852 L 297.29071,277.80352 L 299.12446,276.10727"
         id="path2804"
         style="fill:#ffd600;fill-opacity:1;fill-rule:nonzero;stroke:none" />
      <path
         d="M 301.29321,274.25227 L 291.29446,270.51602 L 290.72821,271.04102 L 299.97446,274.53602 L 299.60071,275.06977 L 289.77946,271.37477 L 289.18446,271.85102 L 299.64321,275.95227"
         id="path2808"
         style="fill:#ffd600;fill-opacity:1;fill-rule:nonzero;stroke:none" />
      <path
         d="M 303.14571,271.94977 L 292.98696,269.04852 L 292.31446,269.57602 L 301.72196,272.42102 L 301.39071,272.98227 L 291.69321,270.12352 L 291.25321,270.58227 L 301.64321,274.05102"
         id="path2812"
         style="fill:#ffd600;fill-opacity:1;fill-rule:nonzero;stroke:none" />
      <path
         d="M 304.94696,269.79852 L 295.39071,267.29727 L 294.71571,267.75852 L 303.43946,270.11602 L 303.13446,270.69227 L 293.80196,268.29352 L 293.18946,268.74727 L 303.34571,271.59977"
         id="path2816"
         style="fill:#ffd600;fill-opacity:1;fill-rule:nonzero;stroke:none" />
      <path
         d="M 306.49821,267.39727 L 297.14196,265.54602 L 296.80696,266.11852 L 305.26571,268.00352 L 304.96321,268.58102 L 296.29071,266.59602 L 295.68321,267.13102 L 305.29696,269.49852"
         id="path2820"
         style="fill:#ffd600;fill-opacity:1;fill-rule:nonzero;stroke:none" />
      <path
         d="M 264.07696,266.58727 C 264.28446,266.56977 264.43946,266.38852 264.42196,266.17977 C 264.40571,265.97227 264.22321,265.81727 264.01571,265.83477 C 263.80821,265.85227 263.65321,266.03352 263.66946,266.24227 C 263.68696,266.44852 263.86946,266.60477 264.07696,266.58727"
         id="path2824"
         style="fill:#231f20;fill-opacity:1;fill-rule:nonzero;stroke:none" />
      <path
         d="M 266.34321,267.29852 C 266.60321,267.27727 266.79696,267.04977 266.77571,266.79102 C 266.75446,266.53102 266.52571,266.33727 266.26696,266.35852 C 266.00696,266.37977 265.81321,266.60727 265.83446,266.86727 C 265.85571,267.12727 266.08446,267.32102 266.34321,267.29852"
         id="path2828"
         style="fill:#231f20;fill-opacity:1;fill-rule:nonzero;stroke:none" />
      <path
         d="M 267.64321,269.26852 C 267.85071,269.25102 268.00196,269.02727 267.98071,268.76727 C 267.95946,268.50727 267.77446,268.31102 267.56696,268.32727 C 267.35821,268.34352 267.20696,268.56852 267.22821,268.82852 C 267.24946,269.08852 267.43446,269.28477 267.64321,269.26852"
         id="path2832"
         style="fill:#231f20;fill-opacity:1;fill-rule:nonzero;stroke:none" />
      <path
         d="M 265.77946,270.19602 C 265.93446,270.18227 266.04821,270.00352 266.03071,269.79727 C 266.01321,269.58852 265.87321,269.43102 265.71821,269.44352 C 265.56196,269.45602 265.44946,269.63477 265.46571,269.84227 C 265.48321,270.04977 265.62321,270.20727 265.77946,270.19602"
         id="path2836"
         style="fill:#231f20;fill-opacity:1;fill-rule:nonzero;stroke:none" />
      <path
         d="M 278.80196,267.40727 C 278.54321,267.42977 278.34946,267.65727 278.37071,267.91602 C 278.39196,268.17602 278.62071,268.36977 278.87946,268.34852 C 279.13821,268.32727 279.33196,268.09977 279.31196,267.83977 C 279.29071,267.57977 279.06196,267.38602 278.80196,267.40727"
         id="path2840"
         style="fill:#231f20;fill-opacity:1;fill-rule:nonzero;stroke:none" />
      <path
         d="M 280.96196,265.98602 C 280.80571,265.99977 280.69321,266.17727 280.71071,266.38602 C 280.72696,266.59352 280.86821,266.75227 281.02321,266.73977 C 281.17946,266.72602 281.29196,266.54727 281.27446,266.33977 C 281.25821,266.13227 281.11821,265.97352 280.96196,265.98602"
         id="path2844"
         style="fill:#231f20;fill-opacity:1;fill-rule:nonzero;stroke:none" />
      <path
         d="M 279.62571,269.28227 C 279.41821,269.29852 279.26696,269.52227 279.28821,269.78352 C 279.30946,270.04227 279.49571,270.23977 279.70321,270.22227 C 279.91196,270.20602 280.06196,269.98102 280.04071,269.72102 C 280.02071,269.46102 279.83446,269.26477 279.62571,269.28227"
         id="path2848"
         style="fill:#231f20;fill-opacity:1;fill-rule:nonzero;stroke:none" />
      <path
         d="M 281.41946,270.75102 C 281.62821,270.73477 281.77821,270.50977 281.75696,270.24977 C 281.73696,269.98977 281.55071,269.79352 281.34196,269.80977 C 281.13446,269.82727 280.98321,270.05102 281.00446,270.31227 C 281.02696,270.57102 281.21196,270.76727 281.41946,270.75102"
         id="path2852"
         style="fill:#231f20;fill-opacity:1;fill-rule:nonzero;stroke:none" />
      <path
         d="M 279.45196,255.71352 C 279.45196,255.71352 277.86696,249.41602 278.51321,245.88352 C 278.51321,245.88352 278.53071,245.28102 278.05821,246.05477 C 278.05821,246.05477 277.17446,249.13977 278.75946,255.43477 C 278.75946,255.43477 279.39571,256.65602 279.45196,255.71352"
         id="path2856"
         style="fill:#231f20;fill-opacity:1;fill-rule:nonzero;stroke:none" />
      <path
         d="M 268.98571,254.97852 C 270.30071,248.61977 269.28321,245.57602 269.28321,245.57602 C 268.77696,244.82352 268.82071,245.42477 268.82071,245.42477 C 269.62071,248.92727 268.30696,255.28602 268.30696,255.28602 C 268.40321,256.22477 268.98571,254.97852 268.98571,254.97852"
         id="path2860"
         style="fill:#231f20;fill-opacity:1;fill-rule:nonzero;stroke:none" />
      <path
         d="M 264.37321,254.67227 C 264.37321,254.67227 265.80196,251.67727 265.79321,249.93852 C 265.79321,249.93852 265.53446,249.22227 265.43946,249.69852 C 265.43946,249.69852 265.30821,252.18602 263.80821,254.31727 C 263.80821,254.31727 263.39071,255.75727 264.37321,254.67227"
         id="path2864"
         style="fill:#231f20;fill-opacity:1;fill-rule:nonzero;stroke:none" />
      <path
         d="M 282.34321,250.37352 C 282.32696,249.88852 281.95446,250.55102 281.95446,250.55102 C 281.66071,252.26602 282.58196,255.45352 282.58196,255.45352 C 283.37446,256.68477 283.19821,255.19602 283.19821,255.19602 C 282.06571,252.84852 282.34321,250.37352 282.34321,250.37352"
         id="path2868"
         style="fill:#231f20;fill-opacity:1;fill-rule:nonzero;stroke:none" />
      <path
         d="M 289.48571,273.71102 L 289.53821,273.73352 L 289.52821,273.71352"
         id="path2872"
         style="fill:#231f20;fill-opacity:1;fill-rule:nonzero;stroke:none" />
    </g>
  </g>
</svg>
