<?xml version="1.0" encoding="UTF-8"?>
<svg id="Layer_1" data-name="Layer 1" xmlns="http://www.w3.org/2000/svg" xmlns:xlink="http://www.w3.org/1999/xlink" viewBox="0 0 512 512">
  <defs>
    <style>
      .cls-1 {
        fill: #e63323;
      }

      .cls-1, .cls-2, .cls-3, .cls-4, .cls-5 {
        stroke-width: 0px;
      }

      .cls-2 {
        fill: url(#linear-gradient);
      }

      .cls-3 {
        fill: #1d1d1b;
      }

      .cls-4 {
        fill: #e94f35;
      }

      .cls-5 {
        fill: #fff;
      }
    </style>
    <linearGradient id="linear-gradient" x1="188.09727" y1="234.71411" x2="323.39327" y2="99.43576" gradientTransform="translate(0 514) scale(1 -1)" gradientUnits="userSpaceOnUse">
      <stop offset="0" stop-color="#e63323"/>
      <stop offset=".25" stop-color="#e23123"/>
      <stop offset=".45" stop-color="#d82c25"/>
      <stop offset=".64" stop-color="#c72329"/>
      <stop offset=".81" stop-color="#b0172e"/>
      <stop offset=".98" stop-color="#910734"/>
      <stop offset="1" stop-color="#8d0536"/>
    </linearGradient>
  </defs>
  <path class="cls-5" d="M487.14595,29.83923C411.44605,10.13308,333.68716.09031,255.98234,0,178.31282.09031,100.55404,10.13308,24.92623,29.82124,10.29564,33.48789.05419,46.56519,0,61.70152v.30709c2.42038,91.45016,26.58803,181.18477,69.88392,259.48658,42.15802,76.24165,101.76408,140.72495,172.35277,186.4408,4.10042,2.6549,8.86842,4.06402,13.76332,4.06402s9.664-1.40911,13.76332-4.06402c70.58868-45.73461,130.19476-110.19915,172.35309-186.4408,43.296-78.31945,67.46373-168.05408,69.88359-259.54076v-.32518c-.0364-15.02798-10.25987-28.10527-24.85405-31.79002ZM503.4207,61.79189c-2.36692,90.07791-26.17268,178.45749-68.81876,255.56644-41.48966,75.01354-100.10261,138.4309-169.49848,183.40635-2.76303,1.78869-5.92442,2.69131-9.10345,2.69131s-6.34042-.90261-9.10345-2.69131c-69.41462-44.95669-128.02759-108.37517-169.4987-183.38867C34.75222,240.23173,10.96395,151.85104,8.5797,61.77379v-.12645c.03613-11.12651,7.60436-20.78996,18.42378-23.49925C101.98091,18.62246,179.03559,8.67,256,8.5797c76.98209.09031,154.0193,10.04276,229.03283,29.56839,10.80166,2.7093,18.36911,12.37274,18.40551,23.49925v.12645l-.01765.0181Z"/>
  <path class="cls-1" d="M256,503.4207c-3.16027,0-6.3393-.90261-9.10345-2.69131-69.41352-44.95781-128.02649-108.37517-169.51647-183.38871C34.75255,240.23173,10.96426,151.85213,8.58001,61.77412v-.12646c.03613-11.12651,7.60427-20.78995,18.4238-23.49936C101.98124,18.62279,179.03559,8.67032,256,8.58001c76.98316.09032,154.0193,10.04278,229.03283,29.5683,10.80166,2.70941,18.37022,12.37286,18.40551,23.49936v.12646c-2.38345,90.07801-26.17268,178.45761-68.81765,255.56656-41.48966,75.01354-100.10261,138.4309-169.49848,183.40635-2.76414,1.78869-5.92442,2.69131-9.10345,2.69131M17.15972,61.61158c2.34814,88.68689,25.77523,175.67615,67.7344,251.57464,40.80298,73.78536,98.4405,136.15558,166.66229,180.35419,2.72772,1.76994,6.14179,1.76994,8.86951,0,68.2218-44.19861,125.85932-106.56883,166.66263-180.35419,41.97737-75.89849,65.38591-162.88775,67.73407-251.57464-.05408-7.18896-4.94898-13.40237-11.92056-15.15454h-.03644c-74.3095-19.36298-150.64164-29.20706-226.8833-29.29732-76.22399.09026-152.55602,9.95244-226.86521,29.29732-7.02632,1.75217-11.92132,7.98367-11.95741,15.15454Z"/>
  <path class="cls-3" d="M17.15939,61.61114c2.34803,88.68733,25.77512,175.67659,67.7344,251.57508,40.80332,73.78536,98.44083,136.15447,166.66263,180.35419,2.72772,1.76994,6.14179,1.76994,8.8684,0,68.22291-44.19972,125.86044-106.56883,166.66374-180.35419,41.97626-75.89849,65.38591-162.88775,67.73407-251.57508-.05408-7.18885-4.94898-13.40237-11.92167-15.15443h-.03532c-74.3095-19.36298-150.64164-29.20706-226.8833-29.29732-76.22399.09026-152.55646,9.95244-226.86565,29.29732-7.02632,1.75206-11.92121,7.98367-11.9573,15.15443Z"/>
  <path class="cls-1" d="M89.33738,58.01733l-9.41064,1.55343.50582,4.98527,8.57964-1.42698.68635,6.55669-8.57964,1.42698,1.19216,11.6864-7.82113,1.30053-3.07057-29.78505,17.23155-2.85396.68646,6.55669Z"/>
  <path class="cls-1" d="M119.37545,46.16806l1.9509,23.33683,9.37489-1.26444.5418,6.57479-17.19614,2.33004-2.49269-29.91151,7.82124-1.06571Z"/>
  <path class="cls-1" d="M147.4262,57.29456c-.01765-2.23978.36084-4.3531,1.17408-6.33997.81324-1.98687,1.93324-3.77501,3.39531-5.32844,1.44551-1.55332,3.19779-2.81766,5.23917-3.7931,2.04027-.97534,4.28027-1.57142,6.7553-1.77015,2.43752-.19862,4.67752.0181,6.75532.66836,2.07668.65026,3.84661,1.6256,5.36385,2.94422,1.49958,1.31851,2.67366,2.90803,3.52221,4.76845.84966,1.86041,1.30097,3.90157,1.31861,6.14124.01877,2.23978-.36082,4.3531-1.17406,6.33997-.81213,1.98687-1.95089,3.77512-3.41406,5.32844-1.46207,1.55343-3.23311,2.81777-5.27339,3.7931-2.05903.97545-4.29903,1.57142-6.72,1.77015-2.45627.19873-4.71393-.0181-6.77297-.66825-2.05903-.65026-3.82897-1.62571-5.3109-2.94422-1.48082-1.31862-2.65489-2.90814-3.50345-4.76855-.84964-1.86041-1.28219-3.90146-1.31861-6.14124M155.6811,56.62632c0,1.19205.25269,2.27586.72276,3.2512.46897.97534,1.0836,1.80624,1.87806,2.47459.77684.68635,1.69821,1.19205,2.72772,1.51724,1.02953.32508,2.13076.45153,3.26842.36127,1.15642-.09037,2.24-.37937,3.26951-.88508,1.02952-.48772,1.93324-1.15597,2.71008-1.95078.77682-.8128,1.39034-1.73396,1.84165-2.78157.45242-1.04772.65103-2.1675.65103-3.35967s-.25379-2.27586-.72276-3.2512c-.47006-.97545-1.10234-1.80635-1.89682-2.4746-.79448-.68645-1.71585-1.19216-2.74539-1.51724-1.02952-.32518-2.13185-.45164-3.26951-.36127-1.15531.09026-2.24.37926-3.26951.88508-1.02952.48762-1.91448,1.15597-2.69131,1.95068-.75807.81291-1.37269,1.73407-1.80635,2.78168-.45131,1.04762-.64992,2.16751-.64992,3.35967"/>
  <path class="cls-1" d="M196.53849,52.79669c.07171-2.23967.54179-4.3349,1.42676-6.30378.88495-1.96878,2.09543-3.70284,3.61268-5.20199s3.30484-2.69131,5.38263-3.57639c2.07669-.90317,4.33434-1.39078,6.79172-1.48116,2.43752-.09026,4.65987.21683,6.70124.95736,2.04027.74052,3.7749,1.78814,5.21932,3.16093,1.44551,1.3728,2.54676,3.01639,3.32358,4.91299s1.12,3.97374,1.04827,6.21352c-.07282,2.23978-.54179,4.33501-1.42785,6.30378-.88497,1.96888-2.09436,3.70284-3.6116,5.20199-1.536,1.49925-3.34234,2.69142-5.41903,3.59448-2.07779.90317-4.33545,1.39078-6.77408,1.48116-2.45627.09026-4.69627-.21672-6.71888-.95735-2.02263-.74052-3.73848-1.78814-5.16635-3.16094-1.42676-1.37269-2.528-3.01639-3.28718-4.93109-.75807-1.91459-1.12-3.97374-1.04716-6.21352M204.81104,52.47161c-.03642,1.19217.16221,2.29396.57821,3.2874.41489.99343,1.01076,1.84231,1.76994,2.56485.75807.72254,1.64303,1.26433,2.65489,1.6256,1.01187.37937,2.09545.5419,3.25187.48772,1.15531-.05418,2.23889-.28899,3.28718-.75862,1.04716-.45153,1.96855-1.06571,2.78179-1.84242.81213-.77661,1.46318-1.67978,1.94979-2.7093.48773-1.02963.74151-2.14952.77682-3.34157.03642-1.19217-.16221-2.29396-.5771-3.2874-.416-.99343-1.01187-1.84242-1.78869-2.56485-.77682-.72254-1.66179-1.26444-2.67366-1.62571-1.01076-.37926-2.09434-.54179-3.25076-.48761-1.1564.05418-2.24.28899-3.28716.74052-1.04829.45153-1.96966,1.06571-2.76414,1.84242-.79448.77661-1.44442,1.67978-1.91448,2.7093-.48773,1.02963-.74042,2.14952-.77682,3.34157"/>
  <path class="cls-1" d="M271.46151,65.38659l-9.77212.07228-7.58621-11.54196.09048,11.59614-7.8389.05418-.10815-30.16441,12.06511-.09026c1.68055,0,3.14261.21672,4.40718.70444,1.26455.48761,2.29406,1.15597,3.12497,1.98687.81324.84888,1.44551,1.82422,1.8604,2.94411.416,1.11989.63227,2.31205.64994,3.59448.01876,2.29396-.52303,4.15437-1.60661,5.59934-1.10235,1.44507-2.72772,2.42041-4.87724,2.94422l9.59116,12.28248v.0181ZM254.08552,48.84138h1.48082c1.55366-.0181,2.72772-.36127,3.55863-.99355.8309-.65015,1.22815-1.57142,1.21048-2.76347,0-1.19216-.43366-2.11332-1.26455-2.74549-.8309-.63227-2.02372-.93926-3.57627-.93926h-1.48193l.05406,7.45975.01876-.01799Z"/>
  <path class="cls-1" d="M291.70979,35.94505l11.68662.61407c2.76414.14455,4.85847.92127,6.24993,2.33015,1.39036,1.40888,2.04139,3.35956,1.9509,5.87024-.05408,1.51735-.37961,2.76358-.95781,3.73903-.57819.97534-1.4444,1.77004-2.58318,2.40231,1.12002.2709,2.05903.65015,2.81822,1.13788.7768.48773,1.39032,1.04762,1.86039,1.71597.4701.66825.79448,1.40889.97545,2.22168s.25269,1.66168.23505,2.58295c-.05408,1.40888-.34318,2.65512-.86732,3.72083-.54179,1.06571-1.26455,1.95079-2.18592,2.65523-.92137.70444-2.02263,1.19206-3.32358,1.49915-1.29987.30709-2.74539.41545-4.33435.32519l-12.59035-.66836,1.06593-30.12822v-.0181ZM298.70013,60.41975l1.71589.09026c1.96855.10847,3.39638-.07216,4.26259-.54179.86732-.45164,1.31863-1.24634,1.37271-2.36623.0364-1.11989-.36082-1.95079-1.19174-2.51068-.83089-.55989-2.24-.88507-4.20855-.97534l-1.71585-.09037-.23505,6.39415ZM299.13379,48.19145l1.44551.07227c2.45629.12635,3.72084-.77672,3.79256-2.7275.07284-1.95079-1.12002-2.9803-3.57627-3.10676l-1.44551-.07227-.21629,5.83426Z"/>
  <path class="cls-1" d="M353.35725,65.38648l-11.19892-1.04762-2.09543,5.05744-8.34429-.77661,13.22151-28.99034,8.5429.7947,9.71808,31.12177-8.34429-.77672-1.49956-5.38262ZM351.62261,59.24524l-2.92524-10.33181-4.10042,9.68154,7.02566.65026Z"/>
  <path class="cls-1" d="M393.52829,45.57208l-1.86042,23.35492,9.3749,1.22825-.52414,6.59277-17.2138-2.25777,2.40221-29.94769,7.82126,1.02952Z"/>
  <path class="cls-1" d="M431.62261,52.43542l-2.25876,23.22847,9.3749,1.55333-.64992,6.55668-17.19615-2.85384,2.90871-29.78505,7.82122,1.30042Z"/>
  <path class="cls-1" d="M59.78714,211.45821l-4.31702.79448-1.22825-6.52027,12.04778-2.24002,5.50907,29.65849-7.71277,1.42676-4.29882-23.11944Z"/>
  <path class="cls-1" d="M80.75719,231.3269l7.00822-11.00027h-.16254c-.66836.57821-1.22825.93903-1.69787,1.10234-.45153.16221-.88508.27034-1.24635.32442-1.44497.21737-2.83575.14455-4.13628-.21627-1.3185-.36193-2.47459-.97545-3.50411-1.80635-1.02963-.83089-1.8966-1.8604-2.58295-3.07088-.70444-1.21048-1.15597-2.56442-1.3728-4.04635-.23481-1.58897-.16254-3.08855.19873-4.53297.37937-1.44551,1.02952-2.76414,1.96878-3.93821.93925-1.17406,2.14952-2.18482,3.61258-2.99806,1.46306-.81324,3.17892-1.37269,5.12971-1.66179,1.98687-.30676,3.7931-.27036,5.4368.07282s3.08877.93903,4.335,1.76994c1.24635.83089,2.25788,1.87806,3.03448,3.12497.77672,1.24579,1.28243,2.61848,1.51724,4.11806.25291,1.67945.16265,3.57627-.30698,5.65297-.45164,2.07779-1.31862,4.1909-2.58295,6.32275l-5.65363,9.42787-8.97699,1.35503h-.01809ZM90.61937,209.81407c-.10847-.68634-.32519-1.29986-.68646-1.86042-.36127-.55944-.7947-1.02952-1.30053-1.4091-.52381-.37849-1.08369-.64994-1.73395-.8309-.63216-.17986-1.30053-.21627-1.98687-.10813-.68635.10813-1.30053.32552-1.86042.68634-.56.36193-1.02963.79448-1.40889,1.30097-.37936.52414-.65026,1.0836-.83089,1.71587-.18063.63227-.21671,1.29986-.10836,1.9873.10836.68634.32508,1.29986.68635,1.86042.36127.55944.79481,1.01076,1.30052,1.408.52381.37958,1.0837.65103,1.71597.83089.63216.18097,1.30042.21739,1.98688.10924.68634-.10924,1.30052-.32552,1.86041-.68745.55989-.36082,1.02952-.79448,1.40889-1.29986.37925-.50537.65026-1.08358.83089-1.71585.18063-.63229.21671-1.28221.10836-1.98732"/>
  <path class="cls-1" d="M410.66925,228.36414l9.89904-8.48884h-.16332c-.81213.32553-1.4444.50539-1.93215.52414-.48771.01766-.92137,0-1.28219-.05406-1.44551-.21739-2.7465-.68745-3.9018-1.42787-1.13766-.7404-2.09543-1.64303-2.83587-2.74537-.7404-1.0836-1.26455-2.32939-1.59005-3.68442-.30678-1.37269-.36086-2.78179-.14456-4.26263.23505-1.59006.74151-3.01682,1.51724-4.28137.77684-1.28221,1.78869-2.32939,3.03448-3.19669,1.2469-.84855,2.69131-1.46318,4.33543-1.80635,1.64416-.36082,3.43174-.37958,5.40029-.09048,1.9873.28911,3.70316.8309,5.184,1.64414,1.46316.81215,2.69131,1.78758,3.63147,2.96166.93902,1.1564,1.60661,2.45737,2.00495,3.86537.37847,1.42787.46895,2.87229.25269,4.38953-.25269,1.69819-.88497,3.46813-1.93326,5.31088-1.04714,1.86042-2.4739,3.6116-4.31668,5.29214l-8.1644,7.36882-8.99532-1.31861ZM426.38345,210.64497c.10924-.68636.05516-1.35394-.10813-1.96855-.17989-.63229-.45131-1.21048-.83092-1.71587-.37958-.52414-.84853-.93903-1.40908-1.30097-.55947-.34318-1.1741-.5771-1.86042-.66758-.68636-.10815-1.35395-.05406-1.98623.10813-.63227.18097-1.21047.45132-1.71585.8309-.52414.37958-.93902.84855-1.30095,1.4091-.34318.55945-.57823,1.17408-.66871,1.86042-.10813.68636-.05405,1.35394.10924,1.98621.17986.63227.45131,1.21048.83092,1.71585.37847.50648.84853.94014,1.408,1.30097.56055.34318,1.17406.57821,1.8615.66869.68636.10815,1.35392.05406,1.98623-.10924.63227-.17986,1.21047-.45131,1.71585-.84855.52414-.37958.95777-.84855,1.30095-1.40911.34318-.55944.57823-1.17406.68636-1.8604"/>
  <path class="cls-1" d="M441.86261,217.03945c-2.87116-1.824-4.04522-4.28138-3.52219-7.35118.21737-1.26455.66868-2.34814,1.33739-3.28827.66756-.92028,1.51724-1.67945,2.52798-2.25766,1.01185-.57821,2.16827-.95669,3.4869-1.13764,1.31863-.18097,2.72663-.14456,4.22623.12689,1.49956.25269,2.83584.68636,4.0099,1.29987,1.1741.61461,2.14955,1.35503,2.9076,2.24.75919.88497,1.30098,1.87806,1.60772,2.9804.32553,1.10124.37958,2.27532.16332,3.53987-.14456.79448-.34318,1.48082-.59698,2.05903-.27034.59585-.63116,1.10235-1.10123,1.55366s-1.04718.83089-1.75229,1.17406c-.704.34318-1.53489.64994-2.52909.90261,3.776,2.27642,5.36496,5.18401,4.75145,8.70622-.21737,1.26455-.70511,2.38455-1.46316,3.36-.75919.97543-1.69821,1.76992-2.85463,2.38455-1.15531.61352-2.45629,1.02952-3.90069,1.22815-1.46316.21627-3.01684.16219-4.67861-.1269-1.60772-.27034-3.05216-.75807-4.37076-1.42676-1.30098-.66869-2.40221-1.4996-3.28829-2.45627-.88497-.97545-1.53489-2.04139-1.9145-3.21545-.39723-1.17408-.46895-2.40221-.25266-3.70206.63227-3.59505,3.03448-5.81629,7.20659-6.62953M442.63945,224.04745c-.09048.50539-.07173.9931.0364,1.46318.10816.48773.28913.90261.54179,1.30097.25269.37849.57823.704.99313.97434.39834.27145.84964.45242,1.35503.5429.47006.08937.93902.05406,1.40911-.05518.47006-.12579.90261-.32442,1.28219-.59587.37958-.27034.70511-.61352.97545-1.01074.25269-.39835.43366-.84966.52414-1.35505.17986-.9931-.03644-1.91448-.59587-2.72772-.57819-.81213-1.35503-1.29986-2.33048-1.48082-.9931-.18097-1.89682.03642-2.70898.61352-.81324.57821-1.30095,1.35503-1.46316,2.33048M445.22262,210.93407c-.16221.92139.01765,1.75227.54179,2.51035.52414.75916,1.2469,1.21048,2.14952,1.37268.47006.09048.92137.07284,1.35503-.05406.43366-.10813.81213-.30676,1.15531-.55945.34318-.25268.63227-.56055.86732-.92137s.39723-.75807.47006-1.17406c.16221-.88497-.0364-1.71587-.54179-2.47505-.52414-.75807-1.2469-1.20937-2.16827-1.37269-.92029-.16219-1.75118.01877-2.49269.54181-.7404.52413-1.19171,1.22924-1.33627,2.11421"/>
  <path class="cls-5" d="M219.26069,105.86438c6.72,7.09893,10.45848,16.88872,10.60303,27.87024.18097,13.04166-3.08855,22.52469-10.0789,29.8218-6.61076,7.008-15.37103,10.78288-25.9553,11.37875-22.45186,1.30097-37.94979-12.15559-39.30484-35.72745-.90261-14.79283,3.50456-26.46179,13.33077-35.00502,6.12303-5.12982,14.1429-8.39912,22.30731-8.90483.17986,0,.36082-.0181.55944-.03619,12.49987-.2528,21.54925,3.19713,28.53849,10.58472M179.57738,137.22042c.43364,9.664,5.03945,14.81159,12.82538,14.34262,8.74151-.50648,12.75145-5.79863,12.42703-16.65435-.27145-9.57242-5.02179-15.04552-13.0593-14.55779-8.47229.50538-12.66208,6.50262-12.19311,16.86952Z"/>
  <path class="cls-5" d="M202.15613,75.71818c4.40718-.19873,7.9658,3.2512,8.10924,7.60431.1269,4.24475-3.19668,7.85721-7.56743,8.03785-4.37187.18063-7.92938-3.14296-8.09271-7.3515-.16219-4.35299,3.14374-8.09203,7.5509-8.29065Z"/>
  <path class="cls-5" d="M177.2833,77.21755c4.40718-.19873,7.98345,3.2512,8.11035,7.6043.12579,4.24464-3.19779,7.85722-7.56854,8.03774-4.37077.18064-7.92938-3.14284-8.09159-7.35139-.1633-4.3531,3.14263-8.09202,7.54979-8.29065Z"/>
  <path class="cls-2" d="M280.65544,313.61985v-.0728.0728ZM240.66538,425.73353c-7.38758-1.35506-12.17433-7.02677-11.99338-9.64527.21627-3.08853,7.24305-6.48495,14.64829-5.12992s12.53517,6.37574,12.08387,9.84385c-.3796,2.79947-5.1476,5.27448-10.98262,5.27448-1.20939,0-2.47394-.10813-3.75615-.34314ZM299.62153,416.8651c-.27145-4.33543,1.22811-6.41214,2.81708-8.74263,1.60772-2.33048,5.70814-6.30398,9.95312-8.30896,4.22619-2.00495,7.29708-.81324,7.29708-.81324,0,0,.54182.41602.03532,2.81822-.50539,2.40221-1.66181,4.22619-3.91945,7.26067-2.27532,3.03448-7.33351,6.62951-10.72882,7.85766-1.10126.39726-2.05903.52414-2.85352.52414-1.66181,0-2.60082-.59587-2.60082-.59587ZM179.93932,381.67834c-3.03448-6.84469-2.51145-13.42012-.1269-14.66591,2.05903-1.06593,7.85766,2.99805,10.87338,9.84385,3.03448,6.8458,2.47503,13.47421.30676,14.66703-.27036.14456-.57711.21629-.93905.21629-2.65489,0-7.44164-4.04637-10.11419-10.0789M292.39615,376.42262c-6.08772-1.86042-9.0494-9.57351-6.70124-16.9964,2.36577-7.424,9.98842-11.48801,15.24414-9.88029,6.08772,1.86042,9.04937,9.5724,6.70124,16.9964-2.00498,6.28637-7.44168,10.27755-12.55284,10.27755-.92137,0-1.82402-.12581-2.69131-.39726ZM344.66868,355.25296c.54179-7.47697,1.89685-10.87338,1.89685-10.87338,0,0,.86729,3.95585.21626,11.21656-.64992,7.27943-1.94979,9.53711-1.94979,9.53711,0,0-.81324-1.22815-.16332-9.88029ZM216.9313,359.35338c-6.68358-.68636-11.47033-7.56745-10.69351-15.38871.77682-7.80358,6.82814-13.58345,13.51062-12.89709,6.68358.68636,11.47035,7.56856,10.69351,15.38978-.7404,7.38759-6.17821,12.95009-12.42703,12.95009-.36193,0-.72276-.01768-1.0836-.05408ZM171.10621,315.35338c3.2331-7.65904,4.82317-9.48303,6.24993-10.65709,0,0,.81213,2.38453-.56056,7.8753-1.37268,5.47309-3.14261,8.79667-4.42482,10.87338-1.28221,2.05903-3.0709,4.17322-3.25185,4.1909,0,0-1.24581-4.62456,1.9873-12.26485M265.08579,323.08415c-7.06317-1.35506-13.49296-8.41713-11.66896-16.03974,1.57131-6.59311,9.3749-9.60884,15.44386-8.36305,6.7553,1.39147,12.49875,7.62264,11.79475,14.82924v-.09048.09048c-.0364.37961-.05406.4701,0,.07284-.66868,6.12305-7.35116,9.71697-13.14978,9.71697-.8309,0-1.62539-.07173-2.40221-.21626M305.72579,294.816c-4.87614-5.16524-7.20663-11.86648-5.02068-13.63753,2.11308-1.71585,8.90484.56056,13.7633,5.7269,4.87726,5.16524,7.02677,11.4869,5.16635,13.18511-.43366.39723-1.19282.59587-2.16827.59587-3.01573,0-8.07395-1.96855-11.75835-5.888M220.88606,278.41544c-.23392-.57821-.77571-3.08855,3.63145-6.77297,4.55172-3.79364,10.65601-5.02179,15.24414-4.71503,4.60579.30787,6.26759,2.58318,6.46621,3.12497.19863.56055.7956,2.79945-3.43172,6.15945-4.18979,3.34124-6.41213,4.37076-11.9029,4.8949-.54179.05406-1.08358.07171-1.60772.07171-4.67861,0-8.05627-1.91448-8.39945-2.76303ZM160.06952,346.92635c0,52.81543,42.82703,95.64137,95.67778,95.64137s95.67669-42.82594,95.67669-95.64137-42.82594-95.64029-95.67669-95.64029-95.67778,42.80718-95.67778,95.64029Z"/>
  <path class="cls-4" d="M319.14595,288.15117c-3.03448-4.10042-8.23616-8.27255-12.6974-9.10345-4.46235-.84855-6.26758,2.6549-6.26758,2.6549,0,0,.03532.03642.07173.07282.12689-.21737.27145-.416.45131-.57819,2.11311-1.71587,8.90484.55944,13.78206,5.72577,4.87726,5.16524,7.02677,11.48801,5.16635,13.18511,3.28718-.45131,2.52802-7.8753-.50647-11.97461"/>
  <path class="cls-4" d="M216.93021,359.40746c-6.68248-.68636-11.46924-7.56745-10.69242-15.38871.50537-5.11227,3.28718-9.3385,7.02566-11.47033-2.54676,1.3186-9.21159,5.58122-8.50759,13.87254.81324,9.71697,7.40635,13.18511,12.93353,13.0229-.25269,0-.50648,0-.75918-.0364Z"/>
  <path class="cls-4" d="M243.66346,265.75338c-2.29408-1.57132-8.70622-1.20939-13.00525-.01766-4.29903,1.17406-8.00221,3.84772-9.86262,6.57435-1.8604,2.72772-.01765,5.99724-.01765,5.99724h.05406c-.23503-.84966-.32552-3.21545,3.68442-6.57545,4.55172-3.79255,10.65711-5.02069,15.24524-4.71393,4.58814.30676,6.26759,2.58318,6.46621,3.12497.05406.16221.14455.45131.14455.86731,0-.0364.03642-.05406.03642-.09048.03642-1.21048-.47006-3.59503-2.76414-5.16634"/>
  <path class="cls-4" d="M171.10621,315.40746c3.2331-7.65793,4.82206-9.48306,6.24993-10.65713-.23503-1.17406-1.73463-.97434-3.70318,1.2833-1.96855,2.25768-6.44855,11.37877-6.70124,17.52058-.27145,6.12301,2.16718,4.13571,2.16718,4.13571,0,0-1.24581-4.62345,1.9873-12.26371"/>
  <path class="cls-4" d="M179.93821,381.6971c-2.85352-6.46619-2.56442-12.67972-.50539-14.39558-.52413.23394-4.40716,2.2036-3.64909,8.5793.81324,6.82812,2.88993,9.35614,4.37187,11.59614,1.46316,2.2036,5.87034,6.05132,10.29516,4.26263-2.54676.47006-7.69434-3.66676-10.51254-10.0425Z"/>
  <path class="cls-4" d="M255.42179,420.24165c0,.19861,0,.37958-.01765.57823-.45132,3.37763-7.33353,6.28633-14.72111,4.9313-7.40524-1.35503-12.17435-7.02677-11.99338-9.64524.01766-.34318.14455-.68636.32552-1.02953,0,0-1.66179,2.51034-.2891,5.58126,1.37268,3.07088,5.29213,6.42979,9.6993,7.33351,4.40718.90261,9.0858.88497,12.57159-.43366,3.50345-1.31863,4.98537-4.56937,4.44358-7.31587"/>
  <path class="cls-4" d="M321.11449,399.95808c-.43366-.79448-1.44444-.93905-1.44444-.93905,0,0,.54179.4149.03644,2.81711-.5065,2.40221-1.66181,4.2273-3.92056,7.26179-2.27532,3.03448-7.3324,6.62843-10.72882,7.85655-3.41406,1.22815-5.45434-.05405-5.45434-.05405,0,0,.86618,2.88992,4.11806,2.76414,3.25074-.12692,8.03751-2.34816,11.74067-5.90679,3.70208-3.53984,5.1476-5.9608,5.8516-8.83308.68636-2.88995.25381-4.15339-.17986-4.94898"/>
  <path class="cls-4" d="M302.45629,349.97959c-.36086-.10924-.72168-.18097-1.10126-.25381,5.79751,2.07779,8.5793,9.59119,6.28526,16.85298-2.2036,6.9175-8.57934,11.05435-14.07008,10.15063.10813.0364.23501.09048.34318.12689,5.72579,1.75229,12.87833-2.45629,15.24414-9.88029,2.36688-7.424-.59587-15.13598-6.70124-16.9964Z"/>
  <path class="cls-4" d="M253.41682,307.08082c.09048-.36082.19863-.704.32552-1.04718-.25379.6676-.36192,1.10126-.36192,1.10126h.0364v-.07173"/>
  <path class="cls-4" d="M268.86069,298.71781c6.26759,1.28219,11.66787,6.75529,11.84883,13.31199.14455-3.48579-.81324-8.14675-4.26263-11.03671-5.6-4.69626-11.88524-4.53297-16.76248-2.07668-3.28718,1.67945-5.0218,4.85847-5.79863,6.73764,2.29406-5.58233,9.35724-8.09267,14.9749-6.93625Z"/>
  <path class="cls-4" d="M348.8949,342.53792c-.46899-2.65487-2.32937,1.8781-2.32937,1.8781,0,0,.86618,3.95585.21626,11.21764-.64992,7.27835-1.9509,9.536-1.9509,9.536,0,0-.01765-.03529-.05405-.16221.3255,1.15642,1.11998,2.36581,2.24.45131,1.11998-1.91447,1.9509-5.21929,2.36577-10.63834.41602-5.41905,0-9.64524-.48771-12.30014"/>
  <path class="cls-5" d="M179.10842,243.6811c-.81324-8.97655-6.55669-14.39559-15.02787-16.40054l-.05518-.59587c6.41214-2.79945,9.12221-9.64524,8.50759-16.23835-1.58897-17.35835-16.78014-19.29048-31.39201-17.70151-10.63945,1.13876-21.24138,2.43861-31.79034,3.90179l6.75531,74.81489,37.28111-4.04634c13.20387-1.42676,27.11172-8.27255,25.70262-23.73407h.01876ZM133.89793,208.87503l2.51035-.27145c5.27447-.5771,11.95696-1.824,12.62565,5.54593.63227,6.84579-5.25572,8.01987-10.54896,8.59697l-3.30482.36193-1.30097-14.21572.01876-.01766ZM141.97186,252.40606l-4.08276.45131-1.49848-16.45461,3.55752-.39835c5.79861-.63116,15.02787-1.76994,15.78703,6.53903.74042,8.16442-7.82124,9.21159-13.7633,9.86262Z"/>
  <path class="cls-5" d="M209.12773,263.4593c-7.26069.30787-14.52249.70511-21.74677,1.15642l-3.55861-75.64579c16.85296-1.12,34.37352-1.84276,51.44164-2.16718l.7956,19.50677-25.0891.92137.2891,9.12222,23.11946-.8309.72276,17.75559-23.08414.83089.2891,9.31972,25.19725-.93903.47006,10.4938c-10.02483,1.8604-20.37517,5.70813-28.86401,10.45848l.01766.01765Z"/>
  <path class="cls-5" d="M301.44551,238.51586c-1.51724-2.24-3.2331-3.4869-4.64221-4.60579v-.59697c10.22346-3.19669,14.63062-7.91063,14.57654-19.3622-.09048-19.07422-14.5953-26.69683-31.6822-27.05767-7.8753-.18097-15.78703-.25379-23.71641-.25379-3.14263,0-6.28524,0-9.42787.03642l.21627,65.13323c2.96277-.27034,5.94317-.43364,8.97766-.43364,6.14069,0,12.11917.59697,17.93545,1.69821l-.07171-14.82925h.50537l8.39945,16.94235c6.73656,1.96966,13.83503,4.98539,19.8687,8.2913,5.23805.23505,10.47612.48773,15.69652.79448l-16.65433-25.73902.01876-.01766ZM275.41738,222.45738l-2.52911-.05408-.09047-16.95999,2.78179.07173c6.23118.1269,11.66785,1.17406,11.70429,8.85075.0364,7.424-5.92443,8.21848-11.88525,8.09159h.01876Z"/>
  <path class="cls-5" d="M369.61325,268.49875l-20.48222-41.97737-1.87918,39.82786c-8.4535-.72165-16.92467-1.33627-25.43228-1.86042l4.40719-75.59171c9.0858.59697,18.22565,1.31861,27.25737,2.13185l20.69959,44.03642,2.31173-41.70594c8.74263.99311,17.46649,2.07669,26.13628,3.28718l-6.8458,74.95946c-8.68743-1.13877-17.41241-2.18593-26.17268-3.12497v.01765Z"/>
  <path class="cls-5" d="M428.08166,185.28551c-19.63477-3.19779-39.43063-5.85269-59.40746-7.94812,9.7534-16.50869,19.70538-33.56028,29.85712-50.5567-7.80361-1.06593-15.62483-2.04138-23.46373-2.92635.5065-7.20662.99421-14.23294,1.51724-21.58444,19.88746,2.23978,39.59284,5.03945,59.11833,8.36293-10.60193,17.06924-20.95225,33.84937-31.15696,50.44855,8.61574,1.22815,17.1774,2.58318,25.70262,4.0276-.7404,6.73764-1.46316,13.54703-2.18592,20.17654h.01876Z"/>
  <path class="cls-5" d="M335.58398,98.44061c8.14568.59608,16.25603,1.30053,24.34759,2.07713-1.62537,25.95619-3.21434,51.20751-4.75034,75.55508-7.71198-.7404-15.46151-1.408-23.20993-1.96855,1.15642-24.42041,2.38456-49.65407,3.61268-75.66367Z"/>
  <path class="cls-5" d="M271.31696,95.62262c6.57435,13.04122,13.04167,25.97407,19.39862,38.74428h.21737c.28913-12.53516.55947-25.34179.86732-38.27464,8.18208.271,16.36412.63227,24.49215,1.08381-.97545,26.04601-1.93215,51.46063-2.85355,75.8987-7.92935-.45131-15.85874-.81324-23.78812-1.08358-6.24993-12.17435-12.60799-24.45683-19.05656-36.86621h-.21627c-.1269,12.3189-.23503,24.45683-.36193,36.39613-7.87421-.12579-15.64138-.12579-23.51669-.07171l-.25269-75.89893c3.23311-.03619,6.48387-.05417,9.73572-.05417,5.11118,0,10.22345.03608,15.31698.10836l.01765.01798Z"/>
  <path class="cls-5" d="M117.71366,104.41931c9.248-1.21015,18.55007-2.29384,27.86979-3.2512-6.23117,13.7814-12.26372,27.25672-18.26096,40.73091,7.89297,11.59614,15.78703,23.2651,23.46372,34.64387-8.90482.86731-17.77434,1.8604-26.60634,2.944-6.24993-10.20469-12.53517-20.62677-18.91167-31.03118-.07227,0-.14455.01766-.21671.03642,1.04761,11.18014,2.00485,22.23448,3.01638,33.10786-7.67658,1.06593-15.31697,2.22235-22.92127,3.45048l-7.87531-74.61627c7.96558-1.3547,15.94924-2.60105,23.96899-3.77512,1.10179,11.90312,2.13131,23.64381,3.19702,35.18588.07227,0,.14455-.01765.21671-.0364,4.33501-12.35421,8.56199-24.7636,13.05965-37.42534v.03608Z"/>
</svg>