<?xml version="1.0" encoding="UTF-8" standalone="no"?>
<svg
   xmlns:svg="http://www.w3.org/2000/svg"
   xmlns="http://www.w3.org/2000/svg"
   version="1.1"
   width="703.56927"
   height="303.34366"
   id="svg4663">
  <defs
     id="defs4665" />
  <g
     transform="translate(6.0703646,-414.97602)"
     id="layer1">
    <path
       d="m 453.96774,435.31977 c -18.50306,0 -36.03125,15.9875 -36.03125,38.0625 0,22.06761 12.40317,39.75 30.90625,39.75 18.50306,0 36.40625,-18.71365 36.40625,-40.78125 0,-22.07254 -12.77819,-37.03125 -31.28125,-37.03125 z m 141.125,49.65625 c -20.06101,0 -33.71875,17.37329 -33.71875,33.5 0,16.12918 12.33784,28.03125 32.40625,28.03125 20.0684,0 36.03125,-17.46459 36.03125,-33.59375 0,-16.11931 -14.65035,-27.9375 -34.71875,-27.9375 z m -223.75,5.84375 c -15.67312,0 -28.40625,18.30125 -28.40625,40.90625 0,22.59761 12.73313,40.9375 28.40625,40.9375 15.68052,0 28.375,-18.33989 28.375,-40.9375 0,-22.605 -12.69448,-40.90625 -28.375,-40.90625 z m 134.71875,47.21875 c -21.47351,0 -36.34375,14.93856 -36.34375,31.4375 0,16.49894 14.8928,35.15899 36.8125,36.5 21.9271,1.33609 39.97254,-15.33612 38.5625,-32.28125 -1.4125,-16.94511 -17.55034,-35.65625 -39.03125,-35.65625 z m 153.78125,43.03125 c -15.75694,0 -35.6875,23.70392 -35.6875,41.90625 0,18.20972 5.05556,27.04756 20.8125,28.90625 15.74955,1.8513 40.66004,-25.91528 39.25,-44.125 -1.4125,-18.20233 -8.61806,-26.6875 -24.375,-26.6875 z m -233.28125,41.21875 c -7.30481,0.15793 -14.67913,2.53289 -21.5,7.96875 -16.79967,13.37565 5.20837,47.1291 27.875,52.1875 22.66909,5.051 41.32084,-1.71772 41.46875,-16.65625 0.1479,-14.9336 -3.26848,-20.96078 -17.90625,-32.40625 -8.69704,-6.79282 -19.26124,-11.32458 -29.9375,-11.09375 z m 132.46875,14.28125 c -23.73647,0 -43,13.58431 -43,30.3125 0,16.72326 19.26352,30.25 43,30.25 23.73649,0 42.96875,-13.52674 42.96875,-30.25 0,-16.72819 -19.23226,-30.3125 -42.96875,-30.3125 z"
       id="path68"
       style="fill:#d00414;fill-opacity:1;fill-rule:evenodd;stroke:none" />
    <path
       d="m 434.65524,415.97602 0,0.0312 c -9.97874,0 -19.69169,4.27645 -26.875,11.53125 -7.16359,7.21783 -11.87,17.39937 -11.875,29.1875 l 0,0.0312 c 0.005,11.6205 3.30403,22.11804 9.0625,29.75 5.91133,7.8341 14.3775,12.68 24.53125,12.6875 l 0.0312,0 0,-0.0312 c 10.04036,0 19.87434,-4.9966 27.15625,-12.96875 7.1981,-7.89572 11.9375,-18.73733 11.9375,-30.46875 l 0.0312,0 0,-0.0312 -0.0312,0 c 0,-11.69691 -3.43983,-21.57719 -9.34375,-28.53125 -6.01726,-7.09215 -14.51635,-11.1488 -24.5937,-11.1563 l 0,-0.0312 -0.0312,0 z m 0,5.40625 0.0312,0 c 8.406,0.007 15.47938,3.39704 20.46875,9.28125 5.11016,6.01731 8.09375,14.66796 8.09375,25.03125 l 0,0.0312 c -0.007,10.3066 -4.20254,19.83871 -10.5625,26.8125 -6.30327,6.90229 -14.69355,11.28125 -23.15625,11.28125 l 0,-0.0312 -0.0312,0 0,0.0312 c -8.32219,-0.007 -15.29841,-4.01845 -20.21875,-10.53125 -5.07319,-6.72229 -7.96875,-16.09889 -7.96875,-26.5312 l 0,-0.0312 c 0,-10.2647 4.06425,-19.10131 10.28125,-25.375 6.19974,-6.25396 14.54558,-9.96875 23.0625,-9.96875 z m -112.28125,5.0625 -0.0312,0.0312 0,0.0312 c -1.34101,3.40184 -2.62845,6.93634 -3.84375,10.5625 -1.19558,3.55715 -2.31414,7.1271 -3.3125,10.71875 -5.14468,18.51786 -7.75,37.6875 -7.75,56.9375 0,58.70398 23.81331,111.8758 62.28125,150.34375 38.46794,38.46054 91.58468,62.25 150.28125,62.25 l 0.0312,0 0.0312,0 c 35.39889,0 69.64305,-8.81492 99.96875,-24.96875 4.92774,-2.63519 9.75054,-5.4564 14.46875,-8.46875 24.26648,-15.5055 45.47888,-36.00434 62,-60.59375 l -4.46875,-3 c -16.0996,23.96574 -36.76591,43.9251 -60.40625,59.03125 -4.59743,2.93594 -9.31066,5.71754 -14.125,8.28125 -29.5566,15.74955 -62.93837,24.34375 -97.4375,24.34375 l 0,-0.0312 -0.0312,0 -0.0312,0 0,0.0312 c -57.18794,-0.007 -108.96467,-23.22206 -146.46875,-60.71875 -37.50163,-37.50163 -60.71875,-89.29974 -60.71875,-146.5 l 0.0312,0 c 0,-18.80381 2.55834,-37.48009 7.5625,-55.5 0.97125,-3.51524 2.02644,-6.98636 3.1875,-10.4375 1.12409,-3.3698 2.37941,-6.80052 3.75,-10.28125 l 0,-0.0312 -4.96875,-2.03125 z m 253.40625,39.1875 c -10.84646,0.007 -19.94926,4.70213 -26.34375,11.5625 -6.37969,6.84806 -10.055,15.89606 -10.0625,24.625 l -0.0312,0 0,0.0312 0.0312,0 c 0,8.85219 3.39235,16.56285 9.5625,22.0625 6.05676,5.40104 14.75442,8.64875 25.46875,8.65625 l 0.0312,0 0.0312,0 c 10.7873,-0.007 20.46865,-4.69799 27.4375,-11.53125 6.9861,-6.86778 11.27625,-15.96709 11.28125,-24.75 l 0.0312,0 0,-0.0312 -0.0312,0 c 0,-8.91627 -4.02114,-16.62369 -10.8125,-22.09375 -6.6188,-5.33941 -15.87707,-8.52375 -26.53125,-8.53125 l -0.0625,0 z m -0.0312,5.375 0,0.0312 0.0312,0 0.0312,0 0,-0.0312 c 9.37725,0.007 17.452,2.75373 23.15625,7.34375 5.53415,4.45936 8.84375,10.71555 8.84375,17.90625 l -0.0312,0 0,0.0312 0.0312,0 c -0.007,7.32136 -3.72361,15.01713 -9.71875,20.90625 -6.03704,5.91871 -14.36115,9.96875 -23.625,9.96875 l -0.0312,0 -0.0312,0 c -9.30822,-0.007 -16.79856,-2.72327 -21.90625,-7.28125 -5.01649,-4.4717 -7.78125,-10.77153 -7.78125,-18.03125 l 0.0312,0 0,-0.0312 -0.0312,0 c 0.007,-7.38053 3.15247,-15.06563 8.625,-20.9375 5.45035,-5.84723 13.20155,-9.8675 22.40625,-9.875 z m -223.75,0.46875 c -8.77823,0.007 -16.65587,5.04359 -22.28125,13.15625 -5.43063,7.8267 -8.77375,18.59269 -8.78125,30.4375 l 0,0.0312 c 0.007,11.85961 3.35062,22.64205 8.78125,30.46875 5.63276,8.11265 13.51041,13.14875 22.28125,13.15625 l 0.0312,0 c 8.77084,-0.007 16.64849,-5.0362 22.28125,-13.15625 5.43062,-7.8193 8.77375,-18.58527 8.78125,-30.4375 l 0,-0.0312 0,-0.0312 c 0,-11.86454 -3.37449,-22.6108 -8.8125,-30.4375 -5.62538,-8.11266 -13.48163,-13.14875 -22.25,-13.15625 l -0.0312,0 z m 0,5.375 0,0.0312 0.0312,0 0,-0.0312 c 6.88256,0 13.21183,4.16333 17.84375,10.84375 4.84146,6.97871 7.84375,16.64194 7.84375,27.375 l -0.0312,0 0,0.0312 0,0.0312 0.0312,0 c -0.007,10.71828 -3.00969,20.39384 -7.84375,27.375 -4.63932,6.68784 -10.95379,10.805 -17.84375,10.8125 l -0.0312,0 c -6.88258,-0.007 -13.20444,-4.13206 -17.84375,-10.8125 -4.84148,-6.98117 -7.84375,-16.67811 -7.84375,-27.40625 l 0,-0.0312 c 0,-10.72073 3.00227,-20.40122 7.84375,-27.375 4.63192,-6.68536 10.95379,-10.84375 17.84375,-10.84375 z m 134.71875,41.84375 c -11.43315,0.007 -21.14455,4.03794 -28,10.25 -6.95899,6.29587 -10.9925,14.86011 -11,23.875 l -0.0312,0 0,0.0312 c 0,12.75197 8.20324,26.65645 21.5,34 2.5785,1.42482 5.38069,2.61996 8.34375,3.5 2.94826,0.87511 6.07502,1.43439 9.34375,1.65625 l 0.15625,0 c 2.12492,0.12321 4.1883,0.0854 6.1875,-0.0625 9.53009,-0.79622 18.0676,-4.73731 24.34375,-10.375 6.37229,-5.73136 10.42555,-13.24733 10.90625,-21.09375 0.074,-1.2227 0.0986,-2.42943 0,-3.625 -1.08218,-13.01821 -10.2643,-27.01048 -23.8125,-33.84375 -2.65739,-1.33609 -5.5057,-2.41425 -8.46875,-3.15625 -2.95566,-0.73213 -6.04703,-1.14875 -9.28125,-1.15625 l -0.15625,0 -0.0312,0 z m 0,5.375 0,0.0312 0.0312,0 0.125,0 0.0312,0 c 2.74261,0.01 5.43862,0.36886 8,1 2.5637,0.63599 5.01256,1.55769 7.3125,2.71875 11.87934,5.98774 19.90209,18.16379 20.84375,29.46875 0.0985,0.97864 0.11175,1.93826 0.0625,2.875 -0.39196,6.37969 -3.80945,12.5993 -9.15625,17.40625 -5.43556,4.89323 -12.87764,8.3147 -21.1875,9 -1.7946,0.14787 -3.58208,0.18575 -5.40625,0.0625 l -0.15625,-0.0312 c -2.85705,-0.17996 -5.57775,-0.66839 -8.15625,-1.4375 -2.55631,-0.75432 -4.98704,-1.78144 -7.25,-3.03125 -11.55883,-6.37969 -18.68745,-18.3847 -18.68745,-29.3125 l -0.0312,0 c 0,-7.46926 3.4151,-14.62353 9.25,-19.90625 5.93351,-5.36653 14.36076,-8.83625 24.375,-8.84375 z m 153.7812,37.65625 c -8.71414,0 -18.36621,6.3451 -25.78125,15.09375 -7.30903,8.63526 -12.5625,19.73819 -12.5625,29.5 l -0.0312,0 0,0.0312 c 0,9.6361 1.39928,16.87266 4.96875,22.09375 3.70997,5.40105 9.53586,8.47205 18.25,9.5 1.03287,0.0985 2.10532,0.10525 3.1875,0.0312 7.96721,-0.6212 17.21824,-6.72624 24.6875,-14.9375 7.38545,-8.12005 13.15629,-18.4103 14.21875,-27.4375 0.19725,-1.59986 0.24825,-3.15666 0.125,-4.6875 -0.74692,-9.7125 -3.10059,-16.91761 -7.46875,-21.78125 -4.49141,-4.99678 -10.91659,-7.40625 -19.59375,-7.40625 z m 0,5.375 0.0312,0 c 7.06253,0 12.12941,1.83613 15.53125,5.625 3.52264,3.91951 5.46928,10.06922 6.125,18.5625 0.0986,1.17339 0.0542,2.41551 -0.0937,3.6875 -0.92934,7.87601 -6.1436,17.03312 -12.84375,24.40625 -6.63112,7.28191 -14.59247,12.68461 -21.125,13.1875 -0.74939,0.074 -1.48741,0.074 -2.1875,0 l 0,-0.0312 c -7.0354,-0.82335 -11.61655,-3.12581 -14.375,-7.15625 -2.89404,-4.21533 -4,-10.49626 -4,-19.0625 l -0.0312,0 c 0.007,-8.44051 4.70436,-18.26864 11.28125,-26.03125 6.47582,-7.64429 14.65703,-13.18 21.6875,-13.1875 z m -232.90625,35.8125 c -2.57804,0.029 -5.14287,0.32942 -7.71875,0.90625 -2.71901,0.60641 -5.4347,1.50925 -8.0625,2.78125 -2.62041,1.2646 -5.20927,2.8758 -7.71875,4.875 l 0,0.0312 c -3.49551,2.7831 -5.55746,6.31243 -6.4375,10.28125 -1.01316,4.54071 -0.45745,9.59046 1.3125,14.65625 1.71078,4.89816 4.55553,9.84986 8.125,14.34375 6.76424,8.48241 16.25211,15.46556 25.9375,17.625 4.73794,1.05506 9.34479,1.62013 13.65625,1.71875 7.88094,0.19475 14.86867,-1.15273 20.25,-3.90625 5.69439,-2.91869 9.60714,-7.36905 10.90625,-13.21875 0.25637,-1.2079 0.44412,-2.49121 0.46875,-3.8125 0.20461,-8.11266 -0.83394,-13.7592 -3.9375,-19 -3.01236,-5.1077 -7.90176,-9.59695 -15.53125,-15.5625 -9.06711,-7.10428 -20.07851,-11.8443 -31.25,-11.71875 z m 0.21875,5.375 c 9.816,-0.0643 19.58899,4.19329 27.71875,10.5625 7.08716,5.54895 11.57449,9.66395 14.1875,14.09375 2.5292,4.27696 3.39131,9.0822 3.21875,16.125 -0.0296,0.96385 -0.14654,1.9086 -0.34375,2.78125 -0.92441,4.17095 -3.82419,7.41213 -8.09375,9.59375 -4.5777,2.34677 -10.694,3.48506 -17.6875,3.3125 -3.97129,-0.0986 -8.19848,-0.6151 -12.59375,-1.59375 -8.42819,-1.8784 -16.8421,-8.10897 -22.90625,-15.71875 -3.2145,-4.03785 -5.74136,-8.43115 -7.25,-12.75 -1.45195,-4.15864 -1.94015,-8.22982 -1.15625,-11.75 0.61381,-2.7757 2.07354,-5.26145 4.53125,-7.21875 l 0.0312,-0.0312 c 2.19394,-1.74036 4.41714,-3.12671 6.6875,-4.21875 2.27036,-1.09697 4.58245,-1.88858 6.875,-2.40625 2.25095,-0.50288 4.51602,-0.7664 6.78125,-0.78125 z m 131.875,8.9375 0,0.0312 c -12.43891,0.005 -23.74104,3.56555 -31.9375,9.34375 -8.47503,5.96803 -13.71125,14.30525 -13.71875,23.59375 l -0.0312,0 0,0.0312 0.0312,0 c 0.007,9.28604 5.23634,17.6282 13.71875,23.59375 8.18908,5.78066 19.50597,9.3675 31.9375,9.375 l 0.0312,0 c 12.44385,0 23.74103,-3.59434 31.9375,-9.375 8.47503,-5.97295 13.71875,-14.30771 13.71875,-23.59375 l 0.0312,0 0,-0.0312 -0.0312,0 c 0,-9.29344 -5.24126,-17.61834 -13.71875,-23.59375 -8.19641,-5.77076 -19.47469,-9.3387 -31.9062,-9.3437 l 0,-0.0312 -0.0312,0 -0.0312,0 z m 0,5.40625 0.0312,0 0.0312,0 c 11.27785,0 21.46649,3.19582 28.8125,8.375 7.06992,4.97458 11.4375,11.76754 11.4375,19.1875 l 0,0.0312 c -0.005,7.41996 -4.37251,14.21292 -11.4375,19.1875 -7.35095,5.18411 -17.55111,8.40625 -28.84375,8.40625 l 0,-0.0312 -0.0312,0 0,0.0312 c -11.27785,-0.007 -21.46896,-3.22952 -28.8125,-8.40625 -7.07239,-4.98196 -11.46125,-11.76754 -11.46875,-19.1875 l 0.0312,0 0,-0.0312 -0.0312,0 c 0.007,-7.41502 4.39636,-14.20552 11.46875,-19.1875 7.35094,-5.17918 17.52725,-8.375 28.8125,-8.375 z"
       id="path82"
       style="fill:#bababa;fill-opacity:1;fill-rule:nonzero;stroke:none" />
    <path
       d="m -4.0474321,542.42398 13.9130441,0 0,34.50652 c 0,3.8012 0.719811,6.49802 2.152036,8.11266 1.447015,1.61217 3.828305,2.4232 7.141404,2.4232 3.276123,0 5.632762,-0.81103 7.057592,-2.4232 1.417434,-1.61464 2.137244,-4.31146 2.137244,-8.11266 l 0,-34.50652 14.068346,0 0,32.81547 c 0,4.61713 -0.448649,8.3074 -1.343481,11.06091 -0.907159,2.75352 -2.396081,5.08057 -4.471698,6.97377 -2.171756,1.96963 -4.708348,3.45855 -7.587588,4.44459 -2.894032,0.98358 -6.143039,1.48153 -9.783996,1.48153 -3.618772,0 -6.867779,-0.49795 -9.76181,-1.48153 -2.886636,-0.98604 -5.4232277,-2.47496 -7.5949839,-4.44459 -2.0953379,-1.92277 -3.6138417,-4.26216 -4.5431854,-7.03047 -0.9219488,-2.76091 -1.3829238,-6.43638 -1.3829238,-11.00421 l 0,-32.81547 z m 56.9636111,55.24544 0,-55.24544 14.213786,0 0,19.61483 19.355993,0 0,-19.61483 14.211322,0 0,55.24544 -14.211322,0 0,-23.2903 -19.355993,0 0,23.2903 -14.213786,0 z M 160.63134,578.30603 c -0.94167,6.63113 -3.55714,11.7684 -7.8193,15.41429 -4.26218,3.64835 -9.76922,5.47993 -16.51127,5.47993 -8.07815,0 -14.59834,-2.6352 -19.55074,-7.91052 -4.95486,-5.2704 -7.42982,-12.21458 -7.42982,-20.8178 0,-8.9434 2.52427,-16.0922 7.55554,-21.41682 5.0436,-5.32463 11.79552,-7.98694 20.24344,-7.98694 6.69275,0 12.17267,1.76749 16.40526,5.29011 4.24244,3.52264 6.66071,8.32959 7.26219,14.43565 l -13.27704,0 c -0.65079,-2.64752 -1.88088,-4.64671 -3.69766,-5.97295 -1.80199,-1.3484 -4.18575,-2.01398 -7.1414,-2.01398 -3.94664,0 -7.07732,1.56535 -9.36986,4.68862 -2.30488,3.12329 -3.45854,7.39285 -3.45854,12.82348 0,5.40103 1.08957,9.60157 3.26379,12.58435 2.17176,2.98523 5.24081,4.4791 9.19484,4.4791 3.17259,0 5.71658,-0.77405 7.62457,-2.32707 1.92031,-1.55055 3.11588,-3.80118 3.58426,-6.74945 l 13.12174,0 z m 30.50812,-35.88205 13.91304,0 0,34.50652 c 0,3.8012 0.71981,6.49802 2.15204,8.11266 1.44701,1.61217 3.83077,2.4232 7.14141,2.4232 3.27859,0 5.64015,-0.81103 7.05759,-2.4232 1.4199,-1.61464 2.13971,-4.31146 2.13971,-8.11266 l 0,-34.50652 14.06587,0 0,32.81547 c 0,4.61713 -0.44865,8.3074 -1.34347,11.06091 -0.90716,2.75352 -2.39609,5.08057 -4.46431,6.97377 -2.17915,1.96963 -4.71574,3.45855 -7.59498,4.44459 -2.89404,0.98358 -6.14304,1.48153 -9.784,1.48153 -3.61877,0 -6.86777,-0.49795 -9.76181,-1.48153 -2.88416,-0.98604 -5.41583,-2.47496 -7.59498,-4.44459 -2.09533,-1.92277 -3.61138,-4.26216 -4.54072,-7.03047 -0.92441,-2.76091 -1.38539,-6.43638 -1.38539,-11.00421 l 0,-32.81547 z m 54.3013,36.8952 13.58519,0 c 0.0986,3.1504 1.02794,5.51938 2.78064,7.1069 1.75515,1.58507 4.31146,2.38129 7.69358,2.38129 2.86445,0 5.0929,-0.4733 6.66564,-1.42482 1.58013,-0.94414 2.36896,-2.28515 2.36896,-4.01813 0,-0.86525 -0.19721,-1.64915 -0.55957,-2.33939 -0.3821,-0.6779 -0.90716,-1.20296 -1.59246,-1.55301 -1.02055,-0.54479 -3.52757,-1.41744 -7.53829,-2.58342 -3.991,-1.17585 -7.37313,-2.31474 -10.12664,-3.4191 -3.96882,-1.57028 -6.98611,-3.66068 -9.0494,-6.24658 -2.06082,-2.58589 -3.0937,-5.60317 -3.0937,-9.04939 0,-5.27532 1.9844,-9.4734 5.93843,-12.58436 3.96882,-3.10849 9.32795,-4.67382 16.11438,-4.67382 6.64345,0 11.92124,1.64175 15.82597,4.91787 3.89978,3.27859 5.84968,7.69359 5.84968,13.26965 l -13.31155,0 c -0.29335,-2.5711 -1.21037,-4.47909 -2.71901,-5.69439 -1.52344,-1.23008 -3.69519,-1.8439 -6.55471,-1.8439 -2.26296,0 -4.12165,0.47578 -5.54155,1.41004 -1.41744,0.93675 -2.13725,2.12493 -2.13725,3.58673 0,2.44538 3.38952,4.75765 10.16609,6.93681 1.23008,0.39934 2.15943,0.69269 2.81761,0.89482 l 0.54479,0.19722 c 7.00828,2.26296 11.38138,4.10686 13.13653,5.49717 1.78228,1.46181 3.12329,3.16766 4.06003,5.12249 0.92195,1.97209 1.38292,4.15124 1.38292,6.55471 0,5.49225 -2.11012,9.784 -6.32298,12.84319 -4.21533,3.06166 -10.11187,4.59249 -17.72164,4.59249 -7.1833,0 -12.64844,-1.63683 -16.40033,-4.92774 -3.75188,-3.29091 -5.8349,-8.2655 -6.26136,-14.95333 z m 66.1264,18.35024 0,-44.02921 -15.82844,0 0,-11.21623 45.7967,0 0,11.21623 -15.82596,0 0,44.02921 -14.1423,0 z m 36.18771,0 0,-55.24544 41.97579,0 0,11.33455 -27.83841,0 0,9.75442 25.43494,0 0,11.06091 -25.43494,0 0,11.80292 28.74064,0 0,11.29264 -42.87802,0 z m 65.3006,-31.58537 10.53832,0 c 2.84226,0 4.94006,-0.5226 6.27368,-1.57274 1.34102,-1.05506 2.0066,-2.73134 2.0066,-5.02388 0,-2.03371 -0.65078,-3.52756 -1.9425,-4.51361 -1.30651,-0.98604 -3.29092,-1.48891 -5.96802,-1.48891 l -10.90808,0 0,12.59914 z m -14.06588,31.58537 0,-55.24544 26.43331,0 c 7.00335,0 12.16527,1.2572 15.47837,3.75189 3.31804,2.49469 4.96719,6.37969 4.96719,11.62789 0,3.09617 -0.70502,5.75849 -2.12245,7.95982 -1.41251,2.21367 -3.59905,4.07235 -6.5843,5.56867 2.41828,0.93675 4.13891,2.18655 5.13728,3.78147 0.99837,1.58506 1.57273,4.37309 1.72557,8.37643 0.074,1.11915 0.14791,2.64258 0.22186,4.53578 0.17257,4.45692 0.93674,7.03048 2.29008,7.7355 l 0,1.90799 -14.8202,0 c -0.71981,-1.9499 -1.13888,-4.627 -1.24241,-8.02885 -0.0986,-3.39691 -0.1972,-5.52676 -0.29334,-6.4142 -0.22186,-2.1545 -0.95154,-3.72476 -2.18163,-4.7256 -1.21528,-0.99836 -3.05918,-1.49385 -5.50703,-1.49385 l -9.44628,0 0,20.6625 -14.06589,0 z"
       id="path98"
       style="fill:#000000;fill-opacity:1;fill-rule:nonzero;stroke:none" />
    <path
       d="m -4.0474321,541.40343 13.9130441,0 1.020553,0 0,1.02055 0,34.50652 0.0074,0 c 0,1.81678 0.172557,3.35255 0.495486,4.61715 0.313068,1.18817 0.781438,2.13231 1.390318,2.81761 l 0,0 0.0074,0.005 0.0074,0.007 c 0.293348,0.32785 0.640927,0.62366 1.040274,0.86771 0.399347,0.25144 0.865251,0.47576 1.382923,0.64833 1.07725,0.36483 2.398546,0.54478 3.941701,0.54478 l 0.0493,0 0,0.007 c 1.508643,0 2.802823,-0.1972 3.865282,-0.55711 0.172558,-0.0493 0.335254,-0.12325 0.480695,-0.17255 l 0.0074,-0.007 c 0.769112,-0.32786 1.405109,-0.7765 1.893199,-1.33362 l 0,0.005 0.0074,-0.0125 0.01479,-0.008 c 0.172557,-0.1972 0.313067,-0.39934 0.453579,-0.61628 0.147906,-0.22186 0.271161,-0.4733 0.399346,-0.75432 l 0.0049,0 c 0.665577,-1.45194 1.000831,-3.47825 1.000831,-6.04937 l 0.0074,0 0,-34.50651 0,-1.02055 1.018089,0 14.068345,0 1.025482,0 0,1.02055 0,32.81545 0,0.0986 -0.0074,0 c -0.0049,2.34923 -0.12325,4.45197 -0.342648,6.29587 l -0.0049,0.0147 -0.12325,0.87265 0,0.0147 c -0.221859,1.52344 -0.537393,2.88664 -0.921949,4.07975 l -0.0074,0 -0.0049,0.0246 c -0.147906,0.41906 -0.288418,0.82333 -0.441254,1.2005 -0.147906,0.36976 -0.327859,0.75432 -0.517671,1.13887 l 0,0 c -0.93674,1.91539 -2.201338,3.59166 -3.779004,5.03868 l 0,0.007 -0.02219,0.0147 -0.0074,0.005 c -0.305673,0.28102 -0.635997,0.55958 -0.976182,0.8406 -0.337718,0.27116 -0.677903,0.53 -1.020552,0.77405 -1.789665,1.27198 -3.766679,2.27775 -5.926109,3.01975 -1.508644,0.51027 -3.103565,0.89976 -4.787231,1.1586 -1.683665,0.25143 -3.45854,0.38455 -5.324623,0.38455 l 0,-0.007 c -1.873479,0 -3.648353,-0.12325 -5.302438,-0.37717 -1.683665,-0.25883 -3.285982,-0.64832 -4.787231,-1.1586 l 0,0 -0.02219,-0.008 -0.01233,0 c -0.426463,-0.1479 -0.838135,-0.30073 -1.237482,-0.46097 -0.399347,-0.17255 -0.803624,-0.34265 -1.20297,-0.53246 -2.0041294,-0.94167 -3.8357013,-2.16435 -5.4774602,-3.65328 l 0,0 c -1.1117046,-1.01884 -2.0681647,-2.15033 -2.8791841,-3.3952 -0.8036238,-1.24981 -1.4593413,-2.60561 -1.9498975,-4.06003 l 0,-0.005 -0.012375,-0.0493 -0.00737,0 c -0.12325,-0.38455 -0.2514413,-0.81101 -0.3697663,-1.27938 l 0,0 c -0.12325,-0.43879 -0.2218587,-0.90223 -0.3155325,-1.38293 l -0.00737,0 c -0.4807,-2.41082 -0.72721,-5.28266 -0.72721,-8.60809 l 0,-32.81546 0,-1.02055 1.0279488,0 z m 12.8998871,2.0485 -11.8793333,0 0,31.78752 c 0,3.1923 0.2218587,5.93103 0.6852987,8.20878 l 0,0 c 0.07395,0.43387 0.1725563,0.86033 0.2859513,1.2646 l 0,0.008 c 0.0986,0.36977 0.22186,0.76172 0.34265,1.15367 l -0.00737,0 0.022187,0.0493 0,0 c 0.4387887,1.30651 1.018088,2.51441 1.7255727,3.60398 0.7050197,1.09204 1.55055,2.0904 2.5365915,2.99264 l 0.0074,0.005 c 1.4741319,1.33609 3.1356111,2.44785 4.9745781,3.3131 0.350045,0.1479 0.719811,0.32046 1.096971,0.47576 0.369767,0.14792 0.754322,0.30075 1.131483,0.42647 l 0,0.007 0.01479,0 0.0074,0 c 1.390318,0.4733 2.86445,0.83073 4.437186,1.06738 1.592457,0.24651 3.261332,0.37223 5.001695,0.37223 l 0,-0.007 c 1.774875,0 3.446215,-0.12325 5.016486,-0.36484 1.572735,-0.24651 3.054262,-0.59409 4.437186,-1.06739 1.972083,-0.67297 3.774073,-1.59492 5.396111,-2.74612 0.320464,-0.22186 0.635997,-0.46344 0.929344,-0.70749 0.293348,-0.22186 0.586695,-0.4807 0.887438,-0.75432 l 0.0074,-0.007 0.01237,-0.007 0,0 c 1.390318,-1.26953 2.502081,-2.75105 3.32789,-4.44212 l 0.0049,0 c 0.147906,-0.31553 0.308138,-0.65818 0.456045,-1.01316 0.147906,-0.35744 0.278556,-0.71488 0.389486,-1.06246 l 0.0074,-0.0221 0,-0.007 c 0.350045,-1.08218 0.635996,-2.33198 0.84553,-3.7371 l 0,0 0.12325,-0.86032 0,0 c 0.221859,-1.80938 0.335254,-3.8283 0.335254,-6.04443 l 0,0 0,-0.0986 0,-31.7875 -12.02724,0 0,33.47856 0,0 c 0,2.85706 -0.396882,5.157 -1.18818,6.8949 l 0,0 c -0.147907,0.33525 -0.335254,0.6779 -0.537393,0.99344 -0.197209,0.32046 -0.419067,0.61381 -0.650787,0.87265 l -0.0049,0.0147 -0.0074,0.0148 c -0.692695,0.78144 -1.572737,1.40265 -2.635197,1.85869 l 0,0 c -0.197207,0.074 -0.411672,0.17256 -0.621206,0.24651 -1.271993,0.43879 -2.788031,0.66311 -4.528394,0.66311 l 0,0.007 -0.0493,0 c -1.760084,0 -3.298308,-0.22186 -4.597418,-0.66311 -0.663113,-0.22186 -1.271993,-0.51029 -1.816781,-0.85294 -0.552183,-0.35004 -1.042739,-0.75431 -1.466737,-1.22269 l -0.0074,-0.0148 -0.01479,-0.0125 c -0.823345,-0.92441 -1.439621,-2.14711 -1.838967,-3.65575 -0.382092,-1.44701 -0.571904,-3.1578 -0.571904,-5.13481 l 0.0074,0 0,-33.47856 z m 43.043172,54.21749 0,-55.24544 0,-1.02055 1.020552,0 14.213786,0 1.020554,0 0,1.02055 0,18.59428 17.314886,0 0,-18.59428 0,-1.02055 1.020553,0 14.211322,0 1.02055,0 0,1.02055 0,55.24544 0,1.02055 -1.02055,0 -14.211322,0 -1.020553,0 0,-1.02055 0,-22.26975 -17.314886,0 0,22.26975 0,1.02055 -1.020554,0 -14.213786,0 -1.020552,0 0,-1.02055 z m 2.048501,-54.21749 0,53.18954 12.165285,0 0,-22.26235 0,-1.02055 1.020552,0 19.355993,0 1.020554,0 0,1.02055 0,22.26235 12.165289,0 0,-53.18954 -12.165289,0 0,18.58688 0,1.02795 -1.020554,0 -19.355993,0 -1.020552,0 0,-1.02795 0,-18.58688 -12.165285,0 z m 107.700372,34.99954 -0.0125,0.074 c -0.12325,0.95646 -0.30814,1.88581 -0.51028,2.78064 -0.22186,0.89484 -0.45605,1.76749 -0.71981,2.60069 -1.4125,4.32378 -3.72477,7.86121 -6.92447,10.59995 l -0.0219,0.0197 c -0.62121,0.53246 -1.272,1.02795 -1.9573,1.48892 -0.68282,0.46838 -1.39031,0.89484 -2.11012,1.27199 -3.70998,1.96469 -8.07815,2.94827 -13.08724,2.94827 l -0.0246,0 0,-0.007 c -4.17341,0 -7.95242,-0.68283 -11.31975,-2.05343 -0.51028,-0.1972 -1.05013,-0.44618 -1.62204,-0.7272 -2.7264,-1.34102 -5.17178,-3.1578 -7.32382,-5.45035 -2.5785,-2.73873 -4.50621,-5.91872 -5.79299,-9.51777 -1.272,-3.56946 -1.90799,-7.57278 -1.90799,-11.99765 l -0.005,0 0,-0.0246 0.005,0 c 0,-4.58264 0.65078,-8.71908 1.94989,-12.38223 0.19721,-0.60641 0.44126,-1.2005 0.6853,-1.76747 l 0.007,0 c 1.2646,-2.97045 2.99756,-5.61798 5.18411,-7.93024 l 0,0 c 2.6278,-2.77571 5.70179,-4.85625 9.20963,-6.24164 l 0.007,0 c 3.49305,-1.37553 7.41503,-2.06822 11.76841,-2.06822 l 0.0246,0 0,0 c 3.44375,0.007 6.58921,0.46836 9.41916,1.37799 0.46096,0.14791 0.91455,0.31307 1.37059,0.4881 2.29747,0.89482 4.38789,2.11751 6.23917,3.66067 l 0.0493,0.0493 0.007,0 c 0.61628,0.51768 1.20298,1.06985 1.74777,1.64176 0.53,0.56698 1.04766,1.16845 1.52343,1.80445 2.40348,3.19232 3.8283,7.06993 4.28188,11.6279 l 0.0986,1.12409 -1.12408,0 -13.27705,0 -0.79623,0 -0.19721,-0.78144 c -0.30074,-1.22516 -0.7346,-2.29255 -1.29171,-3.19477 -0.54479,-0.88005 -1.21777,-1.62204 -2.02139,-2.20874 l -0.005,0 c -0.7987,-0.59409 -1.74036,-1.04766 -2.81023,-1.34841 -1.09696,-0.30568 -2.34185,-0.46098 -3.72476,-0.46098 l -0.0246,0 0,0 c -1.79706,0 -3.41663,0.35744 -4.82914,1.06247 l 0,0.007 c -0.24651,0.12325 -0.46837,0.2465 -0.6779,0.36976 l 0,0 c -1.13148,0.69269 -2.14464,1.63436 -3.01729,2.82994 l 0,0.007 c -1.07725,1.4544 -1.88827,3.1923 -2.42566,5.20628 -0.55218,2.04112 -0.83074,4.3805 -0.83074,7.0083 l 0,0.0493 0,0 c 0,2.59822 0.26377,4.90555 0.78883,6.90969 l 0,0.007 c 0.0739,0.27363 0.14791,0.59409 0.27363,0.95154 l 0,0 c 0.48809,1.55055 1.1586,2.90635 1.99673,4.06002 l 0.0148,0.0198 0.007,0.007 c 0.27855,0.37717 0.5719,0.7346 0.88004,1.05507 0.31307,0.33525 0.64339,0.636 0.97125,0.90222 1.73297,1.38293 3.89979,2.08055 6.50541,2.08055 l 0.0246,0 0,0.007 c 1.46674,0 2.79542,-0.19721 3.96881,-0.54479 l 0,0 c 0.19721,-0.074 0.37716,-0.12325 0.55219,-0.19721 0.90961,-0.33772 1.72064,-0.7987 2.42566,-1.3706 l 0.0246,-0.0246 0.008,-0.007 c 0.22186,-0.1972 0.45358,-0.39934 0.67051,-0.61628 0.19721,-0.22185 0.41167,-0.44617 0.59409,-0.6853 0.97125,-1.2572 1.60725,-2.84965 1.91538,-4.77736 l 0.1479,-0.86771 0.86773,0 13.12174,0 1.1734,0 -0.17257,1.16598 z m -2.51441,2.38375 c 0.12325,-0.48809 0.19721,-0.98604 0.30075,-1.50124 l -11.07572,0 c -0.41167,1.90059 -1.12655,3.51277 -2.15203,4.84147 -0.22187,0.30813 -0.49055,0.59408 -0.74939,0.86771 -0.25884,0.26376 -0.54479,0.5226 -0.83814,0.76665 l -0.008,0.007 -0.0246,0.0221 -0.007,0.008 c -0.88005,0.71241 -1.88582,1.28431 -3.00497,1.69599 -0.22186,0.074 -0.44618,0.17256 -0.67051,0.22186 -1.34841,0.41168 -2.87924,0.6286 -4.5629,0.6286 l 0,0.007 -0.0246,0 c -3.08139,0 -5.67468,-0.85292 -7.78481,-2.54399 -0.41167,-0.32786 -0.80362,-0.6927 -1.16599,-1.07478 -0.36976,-0.38457 -0.71981,-0.81103 -1.05506,-1.26707 l 0.007,0 -0.0148,-0.005 -0.007,-0.0147 c -0.97125,-1.33362 -1.74036,-2.88663 -2.29748,-4.66151 l -0.007,0 c -0.0986,-0.30074 -0.19721,-0.64339 -0.30074,-1.04766 l 0,0 c -0.56698,-2.17423 -0.84554,-4.65411 -0.85293,-7.42736 l 0,0 0,-0.0493 c 0,-2.79543 0.30074,-5.31723 0.89483,-7.54075 0.60642,-2.25558 1.53083,-4.22765 2.75845,-5.88914 1.04274,-1.4199 2.24325,-2.53659 3.59905,-3.3624 l 0.007,0 c 0.27362,-0.17255 0.55218,-0.32046 0.81102,-0.45358 l 0.007,0 c 1.69846,-0.85292 3.61877,-1.27938 5.7437,-1.28678 l 0,0 0.0246,0 c 1.56534,0 2.99016,0.17256 4.27695,0.53986 1.3065,0.36976 2.46756,0.92195 3.46594,1.66887 l 0.007,0 c 1.01316,0.742 1.86608,1.67874 2.54398,2.78064 0.55219,0.88744 0.99098,1.88826 1.31884,2.99756 l 11.34934,0 c -0.51768,-3.6878 -1.76749,-6.85298 -3.7445,-9.48078 -0.41414,-0.55219 -0.87511,-1.09698 -1.37059,-1.62204 -0.49056,-0.51028 -1.02056,-1.00576 -1.58014,-1.47414 l 0,0 -0.0493,-0.0493 c -1.68366,-1.39525 -3.57933,-2.50701 -5.67467,-3.32542 -0.40428,-0.1479 -0.82334,-0.30814 -1.2498,-0.44618 -2.6352,-0.84554 -5.57114,-1.2794 -8.79796,-1.2794 l 0,0.007 -0.0246,0 c -4.10193,0 -7.7774,0.636 -11.02148,1.92031 l 0,0 c -3.23421,1.27939 -6.06415,3.19478 -8.48242,5.7437 -2.01152,2.1397 -3.61137,4.57769 -4.79216,7.32382 l 0,0.008 c -0.22186,0.54478 -0.44865,1.08957 -0.64339,1.64176 -1.2153,3.45854 -1.83897,7.36572 -1.83897,11.70431 l 0.007,0 0,0.0246 -0.007,0 c 0,4.17835 0.60149,7.95242 1.80446,11.31975 1.18818,3.33528 2.96798,6.26876 5.34434,8.79796 1.99181,2.11751 4.23505,3.79379 6.73713,5.01895 0.44618,0.22185 0.94907,0.44617 1.49385,0.66311 3.13808,1.27199 6.66071,1.90799 10.55312,1.91538 l 0,-0.007 0.0246,0 c 4.67384,0 8.72646,-0.90963 12.13818,-2.71162 0.6705,-0.35005 1.3139,-0.7346 1.91291,-1.14627 0.60889,-0.41168 1.20297,-0.86771 1.77487,-1.35581 l 0.0224,-0.0197 c 2.90611,-2.48977 5.00884,-5.71658 6.31041,-9.678 0.25144,-0.7913 0.4807,-1.60232 0.67051,-2.43307 z m 32.00937,-39.43179 13.91304,0 1.02056,0 0,1.02055 0,34.50652 0.007,0 c 0,1.81678 0.17256,3.35255 0.50289,4.61715 0.31306,1.18817 0.78144,2.13231 1.39031,2.81761 l -0.007,0 0.007,0.005 0.007,0.007 c 0.17255,0.1972 0.35498,0.36484 0.54479,0.51766 l 0.007,0 c 0.19721,0.14791 0.41907,0.31554 0.6434,0.44126 l 0,0.005 c 1.2572,0.72722 2.97537,1.09698 5.16932,1.09698 l 0.0493,0 0,0.007 c 1.50864,0 2.80283,-0.1972 3.86528,-0.55711 l 0,0 c 0.17256,-0.0493 0.32786,-0.12325 0.4881,-0.1972 l 0,0 c 0.76911,-0.32787 1.4051,-0.77652 1.8932,-1.33363 l 0,0.005 0.0147,-0.0125 0.008,-0.007 c 0.17256,-0.19721 0.32046,-0.39935 0.45359,-0.61627 0.1479,-0.22187 0.27362,-0.4733 0.39933,-0.75433 l 0.005,0 c 0.66558,-1.45195 1.00083,-3.47826 1.00083,-6.04936 l 0.007,0 0,-34.50653 0,-1.02055 1.02055,0 14.06589,0 1.02547,0 0,1.02055 0,32.81547 c 0,4.72313 -0.46836,8.51693 -1.39771,11.37398 l -0.005,0 -0.007,0.0246 c -0.1479,0.41906 -0.28595,0.81595 -0.44125,1.19311 l 0,0 c -0.14791,0.35004 -0.31306,0.7346 -0.51768,1.14628 -0.93427,1.91538 -2.19887,3.59905 -3.779,5.03866 l 0,0.007 -0.0217,0.0148 -0.005,0.005 c -0.30813,0.28101 -0.636,0.55957 -0.97865,0.8406 -0.33525,0.27116 -0.6779,0.53 -1.02055,0.77404 -1.78966,1.272 -3.76667,2.27776 -5.92611,3.01975 -1.50864,0.51027 -3.10356,0.89976 -4.78722,1.1586 -1.68367,0.25143 -3.45904,0.38456 -5.32512,0.38456 l 0,-0.007 c -1.87101,0 -3.64588,-0.12325 -5.30243,-0.37716 -1.68368,-0.25884 -3.28353,-0.64833 -4.78724,-1.1586 l 0,0 -0.0198,-0.007 -0.0147,0 c -0.42646,-0.14792 -0.83814,-0.30075 -1.23748,-0.46098 -0.39688,-0.17256 -0.80362,-0.34265 -1.20051,-0.53246 -2.00659,-0.94168 -3.83816,-2.16436 -5.47992,-3.65329 l 0,0 c -1.10929,-1.02055 -2.06822,-2.15204 -2.87924,-3.39691 -0.80363,-1.24981 -1.45934,-2.60561 -1.94744,-4.06003 l 0,-0.005 -0.0148,-0.0493 -0.007,0 c -0.12325,-0.38455 -0.25145,-0.81101 -0.36977,-1.27938 l 0,0 c -0.12325,-0.43879 -0.22185,-0.90223 -0.31553,-1.38292 l -0.007,0 c -0.4807,-2.41087 -0.71981,-5.28272 -0.71981,-8.60815 l 0,-32.81545 0,-1.02056 1.02055,0 z m 12.89989,2.0485 -11.87934,0 0,31.78752 c 0,3.1923 0.22186,5.93103 0.6853,8.20878 l 0,0 c 0.074,0.43387 0.17256,0.86033 0.28595,1.2646 l 0,0.008 c 0.0986,0.36977 0.19721,0.76172 0.34265,1.15367 l 0,0 0.0148,0.0493 0,0 c 0.43879,1.30651 1.02056,2.51441 1.72558,3.60398 0.70502,1.09204 1.55055,2.0904 2.53658,2.99264 l 0.007,0.005 c 1.47414,1.33609 3.13562,2.44785 4.97458,3.3131 0.35005,0.1479 0.71981,0.32046 1.09697,0.47576 0.36977,0.14792 0.75433,0.30075 1.13149,0.42647 l 0,0.007 0.0147,0 0.007,0 c 1.39031,0.4733 2.86445,0.83073 4.43718,1.06738 1.59246,0.24651 3.2638,0.37223 5.0017,0.37223 l 0,-0.007 c 1.77487,0 3.45361,-0.12325 5.02388,-0.36484 1.56534,-0.24651 3.04687,-0.59409 4.43225,-1.06739 1.96962,-0.67297 3.77162,-1.59492 5.39365,-2.74612 0.32047,-0.22186 0.63599,-0.46344 0.92934,-0.70749 0.29335,-0.22186 0.5867,-0.4807 0.88744,-0.75432 l 0.007,-0.007 0.0125,-0.007 0,0 c 1.39279,-1.27693 2.50207,-2.75105 3.33529,-4.43719 0.1479,-0.29335 0.29333,-0.63353 0.44617,-1.01809 l 0.007,0 c 0.1479,-0.35744 0.27856,-0.71488 0.39195,-1.06246 l 0.005,-0.0221 0,-0.007 c 0.86031,-2.64012 1.29418,-6.22438 1.29418,-10.73798 l 0,-31.78752 -12.02724,0 0,33.47857 0,0 c 0,2.85706 -0.39689,5.157 -1.18571,6.8949 l 0,0 c -0.14792,0.33525 -0.33773,0.6779 -0.53987,0.99343 -0.19721,0.32047 -0.41907,0.61382 -0.64338,0.87265 l -0.0125,0.0148 -0.007,0.0147 c -0.6927,0.78144 -1.57274,1.40265 -2.6278,1.85869 l 0,0 c -0.19722,0.074 -0.40428,0.17256 -0.6286,0.24651 l 0,0 c -1.272,0.43879 -2.78804,0.66312 -4.5284,0.66312 l 0,0.008 -0.0493,0 c -2.54892,0 -4.6196,-0.46098 -6.19728,-1.38293 -0.32785,-0.19721 -0.63599,-0.39935 -0.90222,-0.62367 l 0,0 c -0.27855,-0.22187 -0.54479,-0.47331 -0.78144,-0.73214 l 0,-0.007 -0.008,-0.008 -0.0147,-0.0125 c -0.82334,-0.92441 -1.43223,-2.1471 -1.8365,-3.65575 -0.38455,-1.43961 -0.57436,-3.1578 -0.57436,-5.13481 l 0.007,0 0,-33.47857 z m 41.40141,34.8467 13.58519,0 0.98604,0 0.0236,0.99344 c 0.0493,1.45195 0.27856,2.71655 0.70503,3.7938 l 0,0.007 c 0.39933,1.03288 0.97863,1.8932 1.73296,2.5785 0.76911,0.69023 1.71817,1.2153 2.85706,1.56534 1.18078,0.36237 2.56616,0.54479 4.15863,0.54479 2.6771,0 4.73053,-0.42647 6.14303,-1.27199 l 0.0132,-0.007 c 0.1972,-0.12325 0.37223,-0.24651 0.51768,-0.35004 0.1479,-0.12325 0.28595,-0.24651 0.41166,-0.37716 0.61628,-0.6434 0.92935,-1.44701 0.92935,-2.41088 l 0,-0.0493 0,0 c 0,-0.32786 -0.0493,-0.65571 -0.12325,-0.96386 l -0.074,-0.28595 0,-0.007 c -0.074,-0.19721 -0.1479,-0.36977 -0.24651,-0.54479 l -0.1479,-0.25145 -0.12325,-0.1479 0,-0.005 c -0.2465,-0.30075 -0.52999,-0.5448 -0.88004,-0.71981 l -0.0246,-0.0221 -0.0216,-0.007 c -0.0986,-0.0493 -0.25145,-0.12325 -0.44619,-0.1972 -0.22186,-0.0986 -0.44125,-0.19722 -0.65818,-0.27117 l 0,0 c -1.32129,-0.51767 -3.38927,-1.18818 -6.20442,-2.0066 l -0.0236,-0.007 -0.0217,-0.005 -1.64176,-0.49795 -0.007,0 -1.56534,-0.48808 -0.007,0 c -2.6071,-0.82582 -4.93415,-1.64917 -6.96046,-2.45278 l 0,0 -0.0197,-0.0147 0,0 c -0.58917,-0.22185 -1.14628,-0.46836 -1.66395,-0.71241 -0.52507,-0.24651 -1.04767,-0.50288 -1.55055,-0.77651 l 0,0 c -2.58589,-1.40264 -4.6689,-3.0937 -6.23424,-5.05839 l 0,0 -0.0148,-0.0197 -0.005,0 c -0.30074,-0.37715 -0.5867,-0.7765 -0.86033,-1.19558 -0.27362,-0.41906 -0.51766,-0.83812 -0.7346,-1.24487 l 0.008,-0.005 c -1.13887,-2.18163 -1.71817,-4.59249 -1.71817,-7.22029 l 0,-0.0246 0.007,0 c 0,-2.78804 0.53,-5.30244 1.58506,-7.52597 0.17256,-0.36976 0.36484,-0.72721 0.55958,-1.06986 1.02795,-1.7872 2.42566,-3.38211 4.17836,-4.76504 l 0.007,0 c 2.08301,-1.63436 4.53579,-2.86445 7.34355,-3.67547 2.78802,-0.81102 5.9261,-1.21529 9.39944,-1.21529 6.88996,0 12.38961,1.71818 16.47675,5.15699 2.07561,1.74036 3.63356,3.7864 4.67383,6.14303 1.02795,2.33939 1.54562,4.98198 1.54562,7.90805 l 0,1.02795 -1.02055,0 -13.31157,0 -0.91701,0 -0.0986,-0.90715 -0.007,-0.074 c -0.0493,-0.34265 -0.0986,-0.66311 -0.1479,-0.94906 l -0.007,0 c -0.0493,-0.30814 -0.12325,-0.60149 -0.19722,-0.86771 l 0,0 c -0.39935,-1.34841 -1.06246,-2.39609 -1.96468,-3.12329 -0.65079,-0.5226 -1.45934,-0.92195 -2.41827,-1.19311 -0.99097,-0.28101 -2.16436,-0.42153 -3.50045,-0.42153 l -0.0493,0 0,-0.005 c -1.02795,0 -1.95728,0.12325 -2.78803,0.32047 l 0,0 -0.41167,0.12325 c -0.65818,0.1972 -1.23748,0.46836 -1.74036,0.80362 -0.5793,0.37715 -1.00576,0.80363 -1.28679,1.26459 -0.25637,0.43386 -0.38948,0.92195 -0.38948,1.46921 l 0,0.005 0,0 c 0,0.53986 0.28595,1.10436 0.85292,1.69106 0.19721,0.19722 0.45358,0.43387 0.74693,0.66558 l 0,0.005 c 1.58013,1.22515 4.20053,2.42565 7.85382,3.59905 l 0,0 1.62204,0.51766 0,0 1.19311,0.36978 0.0236,0.0148 0.54478,0.19721 0,0 0.0246,0.007 0,0 c 1.05506,0.34265 1.9918,0.65079 2.80282,0.92935 0.84553,0.29334 1.67627,0.58669 2.48729,0.88004 4.06743,1.49631 6.77904,2.7831 8.12005,3.85048 l 0.0147,0.007 c 0.92935,0.76912 1.76749,1.61464 2.49223,2.5292 l 0,0 c 0.7272,0.91702 1.34347,1.90059 1.83896,2.94333 l 0,0.005 c 0.49549,1.06246 0.86771,2.17421 1.11176,3.33529 l 0,0 c 0.24651,1.1512 0.36976,2.36896 0.36976,3.65327 l 0,0 0,0.0246 0,0 c -0.007,2.89403 -0.5719,5.49225 -1.69106,7.76507 -0.1972,0.38456 -0.39195,0.75433 -0.60147,1.09698 l 0,0 c -1.09698,1.82911 -2.5859,3.42402 -4.44952,4.77983 -2.20873,1.59985 -4.85132,2.80775 -7.93271,3.60398 -3.04686,0.7913 -6.5128,1.18819 -10.3904,1.18819 -3.68287,0 -6.94666,-0.42647 -9.77661,-1.27693 -2.87184,-0.86032 -5.30983,-2.16682 -7.29424,-3.90719 -1.9918,-1.74776 -3.54235,-3.9417 -4.64671,-6.58182 -1.08958,-2.59329 -1.74036,-5.61798 -1.9573,-9.07159 l -0.074,-1.08957 1.08217,0 z m 12.62133,2.0485 -11.51697,0 c 0.26624,2.76585 0.83814,5.21123 1.72558,7.32875 0.97865,2.34925 2.34924,4.29175 4.10192,5.82752 1.76749,1.54561 3.9491,2.71161 6.535,3.48811 2.63273,0.78884 5.70178,1.18819 9.19483,1.18819 3.72477,0 7.01569,-0.37224 9.87275,-1.11177 2.825,-0.7346 5.2408,-1.83157 7.2474,-3.29091 1.64915,-1.19557 2.95566,-2.59329 3.90719,-4.17096 l 0,-0.008 c 0.19721,-0.31554 0.36237,-0.636 0.51521,-0.94414 0.98604,-1.9918 1.48152,-4.28927 1.48152,-6.86285 l -0.007,0 0,-0.0246 0.007,0 c 0,-1.11669 -0.12325,-2.20134 -0.32786,-3.22682 l 0,-0.007 c -0.19721,-1.00822 -0.53,-1.97208 -0.95646,-2.87923 l 0,0 c -0.43385,-0.90963 -0.97125,-1.76255 -1.58753,-2.55139 l 0,-0.007 c -0.6212,-0.78144 -1.3558,-1.52343 -2.19393,-2.20626 -1.18079,-0.93674 -3.69519,-2.11753 -7.53829,-3.52264 -0.72721,-0.27363 -1.56041,-0.55958 -2.45278,-0.86771 -0.94413,-0.32787 -1.86608,-0.636 -2.76092,-0.92195 l -0.0147,-0.007 -0.0493,-0.0125 -0.0197,-0.007 -0.51766,-0.17257 -0.007,0.008 -1.18818,-0.37716 0,-0.008 -1.62697,-0.51766 0,0 c -3.885,-1.24981 -6.71494,-2.56371 -8.48489,-3.93431 l -0.005,0 c -0.35005,-0.27117 -0.67051,-0.55712 -0.96633,-0.85785 -0.93427,-0.97865 -1.41003,-2.01893 -1.41743,-3.11097 l 0,0 0,-0.005 c 0,-0.91702 0.22186,-1.75516 0.6853,-2.51687 0.43386,-0.72721 1.07478,-1.3706 1.91538,-1.92031 0.67544,-0.44865 1.42483,-0.7987 2.24818,-1.05014 l 0.0246,-0.005 0.43879,-0.12325 0.0217,-0.005 c 0.99836,-0.25145 2.11013,-0.38456 3.31803,-0.38456 l 0,-0.007 0.0493,0 c 1.51603,0 2.87185,0.17255 4.05263,0.50287 1.22269,0.34265 2.27283,0.86771 3.14547,1.57274 1.23748,0.99097 2.11752,2.37636 2.64012,4.12905 l 0,0 c 0.0986,0.33525 0.19721,0.69269 0.25884,1.04027 l 0,0 0.0492,0.29334 11.39125,0 c -0.0986,-2.23584 -0.55219,-4.26216 -1.35088,-6.06415 -0.90716,-2.06822 -2.27776,-3.87021 -4.10686,-5.40104 -3.71737,-3.11588 -8.77084,-4.6763 -15.17025,-4.6763 -3.29831,0 -6.24657,0.37963 -8.83246,1.12655 -2.55139,0.73953 -4.77244,1.85129 -6.65331,3.31803 l 0,0.008 c -1.54317,1.21529 -2.77325,2.60561 -3.66808,4.17095 -0.17256,0.30814 -0.34265,0.62367 -0.49056,0.92935 -0.92195,1.95729 -1.39031,4.18081 -1.39525,6.65331 l 0.005,0 0,0.0246 c 0,2.30733 0.49795,4.40267 1.4766,6.27615 l 0.005,0 c 0.19721,0.38456 0.41414,0.74692 0.6286,1.08218 0.22186,0.33525 0.46837,0.6853 0.74939,1.03534 l -0.007,0 0.0197,0.0197 0,0 c 1.39772,1.74775 3.2712,3.2638 5.61305,4.53579 l 0,0 c 0.45357,0.24651 0.93427,0.48809 1.43961,0.71981 0.51521,0.24651 1.04027,0.46836 1.55795,0.67051 l 0,0 0.0198,0.008 0,0.007 c 1.92277,0.76172 4.20052,1.56534 6.82094,2.39608 l 0,0 1.55055,0.48316 1.63436,0.49549 0,0 0.0148,0 0.0147,0.007 c 2.89896,0.84552 5.03867,1.53575 6.38709,2.06821 l 0,0 c 0.30567,0.12325 0.55711,0.22186 0.73953,0.30075 0.1972,0.0986 0.39934,0.1972 0.58669,0.28595 l 0,0 0.007,0 0.007,0.007 0.0147,0.008 0,0 c 0.59901,0.31307 1.10929,0.73214 1.52343,1.2572 l 0.005,0 c 0.074,0.0986 0.17255,0.19721 0.22186,0.32046 l 0.0246,0.0246 0.17255,0.27364 0.0147,0.0246 0.0147,0.0224 0.0125,0.0246 c 0.1479,0.27856 0.28103,0.57191 0.37717,0.87265 l 0,0 c 0.0492,0.17256 0.0986,0.30814 0.12325,0.44865 l 0,0 c 0.12325,0.45358 0.17256,0.94168 0.17256,1.45195 l 0.007,0.007 0,0.0493 c 0,1.51111 -0.50288,2.78804 -1.50864,3.83078 l 0,0 c -0.17256,0.19721 -0.39195,0.38456 -0.63107,0.55711 -0.22185,0.17256 -0.4659,0.35005 -0.70502,0.49795 l -0.0197,0.005 0,0.007 0,0 c -1.74036,1.04274 -4.14383,1.56535 -7.1981,1.56535 -1.78966,0 -3.37472,-0.22186 -4.75765,-0.64094 -1.4199,-0.44125 -2.6278,-1.11176 -3.62123,-2.00659 -0.99837,-0.90222 -1.75269,-2.01892 -2.27037,-3.34761 l -0.007,0 c -0.39935,-1.03287 -0.66558,-2.19394 -0.78391,-3.4859 z m 17.81777,0.0125 z m 34.65935,17.30997 0,-43.00374 -14.80049,0 -1.01315,0 0,-1.02548 0,-11.21622 0,-1.02055 1.01315,0 45.7967,0 1.02055,0 0,1.02055 0,11.21622 0,1.02548 -1.02055,0 -14.79801,0 0,43.00374 0,1.02055 -1.02795,0 -14.1423,0 -1.02795,0 0,-1.02055 z m 2.04604,-44.02922 0,43.00127 12.10366,0 0,-43.00127 0,-1.02056 1.02055,0 14.80788,0 0,-9.16771 -43.75805,0 0,9.16771 14.80787,0 1.01809,0 0,1.02056 z m 34.14907,44.02922 0,-55.24544 0,-1.02055 1.02055,0 41.97579,0 1.02055,0 0,1.02055 0,11.33455 0,1.02055 -1.02055,0 -26.81786,0 0,7.70591 24.41439,0 1.02055,0 0,1.02795 0,11.06091 0,1.02057 -1.02055,0 -24.41439,0 0,9.75441 27.72009,0 1.01808,0 0,1.02795 0,11.29264 0,1.01315 -1.01808,0 -42.87802,0 -1.02055,0 0,-1.01315 z m 2.04112,-54.21749 0,53.19694 40.8295,0 0,-9.25154 -27.71269,0 -1.02795,0 0,-1.02055 0,-11.80293 0,-1.02547 1.02795,0 24.41439,0 0,-9.01489 -24.41439,0 -1.02795,0 0,-1.02055 0,-9.75441 0,-1.02795 1.02795,0 26.82525,0 0,-9.27865 -39.94206,0 z m 65.30797,21.61156 9.51038,0 0,0 0.0493,0 0,0 c 1.3139,0 2.46017,-0.12325 3.42402,-0.36976 0.12325,-0.0246 0.28103,-0.074 0.43386,-0.12325 l 0.008,0 c 0.69763,-0.22186 1.28678,-0.50288 1.72558,-0.86031 l 0.0216,-0.0125 0.007,-0.008 c 0.1479,-0.0986 0.26377,-0.22187 0.39688,-0.36977 l 0.007,0 c 0.12325,-0.12325 0.24651,-0.27363 0.34265,-0.42646 l 0,-0.008 c 0.55957,-0.82581 0.84552,-1.96469 0.84552,-3.39691 0,-0.87265 -0.1479,-1.62698 -0.40673,-2.24818 -0.25144,-0.58176 -0.636,-1.06985 -1.13888,-1.45441 l 0.007,0 -0.0125,-0.0148 -0.007,0 c -0.14791,-0.12325 -0.31554,-0.22186 -0.47577,-0.30567 l 0,0 c -0.1972,-0.0986 -0.37717,-0.19722 -0.55958,-0.27363 l -0.007,0 c -1.08217,-0.45357 -2.5144,-0.6779 -4.28927,-0.6779 l -9.88014,0 0,10.55064 z m 9.51038,2.0411 -10.53832,0 -1.02056,0 0,-1.02055 0,-12.59914 0,-1.02056 1.02056,0 10.90808,0 c 2.04604,0 3.73217,0.28103 5.07319,0.8406 l 0,0 c 0.27855,0.12325 0.54478,0.24651 0.77403,0.37716 l 0,0 c 0.25884,0.14792 0.49795,0.30075 0.70009,0.45359 l 0.007,0 0.0197,0.0197 0.0147,0.007 c 0.78884,0.60149 1.38293,1.3558 1.77488,2.27283 0.37716,0.88003 0.5719,1.90058 0.5719,3.0518 0,1.85128 -0.40428,3.36978 -1.2079,4.55057 l 0,0 c -0.17255,0.22186 -0.34265,0.46098 -0.53739,0.67051 l 0,0 c -0.19721,0.19722 -0.40675,0.39688 -0.636,0.58669 l -0.0217,0.0147 -0.0198,0.0125 c -0.65079,0.51028 -1.43963,0.90963 -2.35664,1.19558 l 0,0.007 c -0.17256,0.0494 -0.34759,0.0986 -0.55711,0.14791 -1.10438,0.27855 -2.41828,0.41906 -3.92199,0.42646 l 0,0 -0.0492,0 z m -25.63215,30.56483 0,-55.24544 0,-1.02055 1.02795,0 26.43331,0 0.0493,0 0,0.008 c 3.56946,0 6.68042,0.32047 9.32055,0.97125 0.45605,0.0986 0.88251,0.22186 1.27939,0.34265 2.14465,0.6434 3.95625,1.52343 5.43531,2.6352 l 0,0.005 0.0147,0.007 0.007,0 c 0.49549,0.37716 0.96385,0.7913 1.4051,1.23748 0.4388,0.44618 0.83814,0.92195 1.19311,1.4051 1.83898,2.5292 2.75353,5.793 2.75353,9.78893 l 0,0.0246 0,0 c -0.007,1.64175 -0.19722,3.16519 -0.56452,4.5629 -0.0493,0.22187 -0.12325,0.43387 -0.1972,0.6853 -0.37223,1.16107 -0.88251,2.23586 -1.51851,3.22189 -0.75431,1.19558 -1.72557,2.29255 -2.89896,3.29092 -0.6853,0.57929 -1.45441,1.13148 -2.29254,1.64916 0.52506,0.27855 1.01315,0.5793 1.4544,0.90222 0.95646,0.70501 1.72558,1.50864 2.29255,2.4158 0.56451,0.89484 1.00576,2.11013 1.31884,3.62864 0.29334,1.43223 0.48315,3.17751 0.56697,5.22601 l 0,0 0,0.0246 c 0.0246,0.51027 0.074,1.17339 0.12325,1.96469 0.0236,0.73953 0.074,1.59246 0.12325,2.5711 l 0,0 0.005,0.24651 0,0.007 c 0.0236,0.58668 0.074,1.14627 0.12325,1.66147 0.0492,0.51768 0.0986,1.00084 0.17257,1.43963 0.31306,1.9992 0.80362,3.17258 1.45193,3.50783 l 0.54479,0.28843 0,0.6212 0,1.90799 0,1.02056 -1.02055,0 -14.8202,0 -0.71241,0 -0.25144,-0.67791 -0.074,-0.17255 -0.005,-0.008 c -0.0986,-0.28595 -0.19721,-0.60149 -0.29335,-0.93674 -0.074,-0.29335 -0.17255,-0.636 -0.25144,-1.00576 -0.37962,-1.71818 -0.61627,-3.7938 -0.6853,-6.21207 l 0,-0.008 -0.007,-0.34757 -0.0493,-1.29418 -0.0236,-1.15367 c -0.074,-1.7379 -0.1479,-2.91868 -0.22186,-3.52016 l 0,-0.0148 c -0.0986,-0.96386 -0.30814,-1.7946 -0.62367,-2.4725 -0.29335,-0.6434 -0.69023,-1.16846 -1.18078,-1.56535 l 0,0 -0.0125,-0.0147 -0.008,0 c -0.12325,-0.0986 -0.28103,-0.19721 -0.44125,-0.30814 -0.14792,-0.0986 -0.32787,-0.19721 -0.51028,-0.27116 -0.98357,-0.44865 -2.29009,-0.6705 -3.8924,-0.6705 l -8.41832,0 0,19.64194 0,1.02055 -1.02795,0 -14.06589,0 -1.02794,0 0,-1.02055 z m 2.0485,-54.21749 0,53.18954 12.02477,0 0,-19.63455 0,-1.02796 1.02056,0 9.44628,0 c 1.89566,0 3.48072,0.28596 4.73052,0.86033 0.25392,0.12325 0.50535,0.24651 0.73462,0.38455 0.22185,0.14791 0.44863,0.29335 0.65817,0.46838 l 0,0 0.0197,0.0125 0.008,0.007 c 0.7346,0.59409 1.3213,1.3632 1.74776,2.29994 0.40428,0.88744 0.6779,1.92031 0.80363,3.0937 l 0,0 0,0.007 c 0.074,0.61628 0.1479,1.83896 0.22186,3.67546 l 0,0.007 0.0493,1.16107 0,0 0.0236,1.29911 0,0.007 0.0125,0.34757 0,0 c 0.074,2.29255 0.28102,4.23505 0.636,5.82997 0.074,0.28596 0.1479,0.59162 0.22186,0.89976 l 0.074,0.30075 13.07491,0 0,-0.34265 c -0.95892,-0.81595 -1.61465,-2.36158 -1.97209,-4.63933 -0.074,-0.48316 -0.14791,-1.01316 -0.19721,-1.57273 -0.0493,-0.55219 -0.0986,-1.13888 -0.12325,-1.76748 l 0,-0.007 -0.0112,-0.24651 c -0.0246,-0.91455 -0.074,-1.78226 -0.12325,-2.55138 -0.0246,-0.70502 -0.074,-1.35581 -0.12325,-1.9499 l 0,-0.0246 c -0.074,-1.9425 -0.25144,-3.58426 -0.5226,-4.93268 -0.26624,-1.27198 -0.61627,-2.26296 -1.05014,-2.94826 -0.424,-0.6779 -1.01808,-1.29911 -1.77487,-1.85129 -0.78144,-0.58177 -1.7379,-1.08465 -2.85705,-1.51851 l -2.15204,-0.82334 2.06083,-1.03535 c 1.4125,-0.71241 2.6352,-1.50863 3.67546,-2.38128 1.01316,-0.86033 1.8513,-1.80199 2.49469,-2.82254 l 0.007,-0.008 c 0.54478,-0.84553 0.97865,-1.76009 1.29171,-2.74613 0.0492,-0.17256 0.12325,-0.37716 0.17256,-0.59408 0.33525,-1.24488 0.50288,-2.59329 0.50288,-4.03292 l -0.007,0 0,-0.0246 c 0,-3.54975 -0.7839,-6.4142 -2.36157,-8.58843 -0.30813,-0.42646 -0.64338,-0.81595 -0.99343,-1.18077 -0.35498,-0.36238 -0.75433,-0.70503 -1.18079,-1.02549 l 0,0 -0.0147,-0.0147 -0.005,0 c -1.28679,-0.97125 -2.88664,-1.74036 -4.79464,-2.31227 -0.39195,-0.12325 -0.78144,-0.22185 -1.16599,-0.32293 -2.49468,-0.60641 -5.45035,-0.91455 -8.84726,-0.91455 l 0,0.007 -0.0493,0 -25.41275,0 z"
       id="path100"
       style="fill:#ffffff;fill-opacity:1;fill-rule:nonzero;stroke:none" />
  </g>
</svg>
