<?xml version="1.0" encoding="UTF-8" standalone="no"?>
<svg
   xmlns:svg="http://www.w3.org/2000/svg"
   xmlns="http://www.w3.org/2000/svg"
   version="1.1"
   width="593"
   height="397.8125"
   id="svg7007">
  <defs
     id="defs7009" />
  <g
     transform="translate(-92.071429,-296.31308)"
     id="layer1">
    <path
       d="m 127.50893,297.31308 c -6.94431,0 -12.47281,0.47334 -16.625,1.375 l -17.812501,0 c 4.012017,5.5009 8.372341,8.25 13.062501,8.25 l 11.09375,0 c -1.98517,0.90545 -4.02144,1.48102 -6.09375,1.75 l -10.21875,0.0625 c 0.13638,2.03063 0.67787,3.69297 1.625,5 1.44342,2.03063 4.13762,4.16631 8.0625,6.375 l 9.75,4.65625 c 1.26536,0.63268 1.74152,1.71945 1.46875,3.25 -0.53797,2.9323 -4.56222,4.40625 -12.09375,4.40625 -4.5121,0 -8.36122,-0.54149 -11.562501,-1.625 -3.201279,-1.08351 -4.8125,-2.4202 -4.8125,-4 l 0,10.09375 c 0,0.76528 2.186787,1.49894 6.5625,2.21875 4.557561,0.76528 9.390261,1.15625 14.531251,1.15625 10.19484,0 18.12976,-1.27136 23.8125,-3.84375 5.68653,-2.61406 8.53125,-6.19244 8.53125,-10.75 0,-1.98138 -1.7996,-4.13788 -5.40625,-6.4375 -1.35249,-0.8562 -4.67716,-2.63876 -10,-5.34375 -3.61044,-1.89425 -5.4375,-3.33413 -5.4375,-4.28125 0,-3.74303 3.52726,-5.59375 10.5625,-5.59375 3.92488,0 7.41807,0.55853 10.4375,1.6875 3.06868,1.12897 4.73102,2.52056 5,4.1875 l 0,-9.46875 c 0,-0.76528 -2.5948,-1.46107 -7.78125,-2.09375 -5.14099,-0.67435 -10.70073,-1.03125 -16.65625,-1.03125 z m 24.5625,1.5625 c 3.56497,5.41376 7.91772,8.125 13.0625,8.125 l 13.46875,0 c -2.20869,1.2199 -3.97422,1.8125 -5.28125,1.8125 l -6.96875,0 4,30.25 22.03125,0 40.125,-40.1875 -25.03125,0 -16.84375,22.8125 c -0.40537,0.53797 -0.92982,0.88444 -1.5625,1.0625 -0.26898,0.0909 -0.54352,0.15625 -0.8125,0.15625 l 0,-24.03125 -36.1875,0 z m 435,79.15625 c -1.79528,0.0324 -3.25,0.78125 -3.25,0.78125 0,0 1.76509,4.1457 2.125,4.9375 16.28295,37.26743 36.55431,89.60016 34.53125,154.90625 -0.93197,30.13748 -58.40024,44.93257 -112.75,51.9375 l -5.875,0.75 c -6.65639,-41.95001 -42.98718,-74.03125 -86.8125,-74.03125 l -1.96875,0 -14.78125,0.25 c -11.33897,2.15187 -21.93218,6.4602 -31.3125,12.46875 l 0.375,1.3125 c -4.38129,2.83462 -8.4829,6.07841 -12.28125,9.625 l -2.6875,0.6875 c -4.01959,3.96277 -7.65857,8.30511 -10.875,12.96875 l 0.875,1.09375 c -2.21944,3.25117 -4.22562,6.64312 -6,10.1875 -1.5e-4,-10e-6 -0.0312,0 -0.0312,0 l -1.75,0.625 c -1.7768,3.69757 -3.33218,7.54481 -4.59375,11.5 l 1.03125,1.0625 c 0,0 0.0311,-2e-5 0.0312,0 -1.11923,3.59837 -2.00344,7.28241 -2.65625,11.0625 l -1.5,0.84375 c -0.74255,4.62954 -1.125,9.38463 -1.125,14.21875 l 1.375,1.15625 c 0.61667,48.01865 39.70999,86.75 87.875,86.75 2.31477,0 4.60569,-0.10698 6.875,-0.28125 64.37412,-2.69362 262.15625,-16.92136 262.15625,-98.59375 0,-45.37103 -36.97932,-94.26632 -41.84375,-92.90625 0,0 25.875,39.56802 25.875,92.90625 0,65.75313 -192.19937,80.23161 -247.25,82.65625 l -5.8125,0.21875 c -39.72238,0 -71.9375,-32.18387 -71.9375,-71.90625 0,-39.71859 32.21512,-71.90625 71.9375,-71.90625 35.60049,0 65.15152,25.84864 70.90625,59.8125 0.28414,1.68967 0.52081,3.39745 0.6875,5.125 0.21973,2.29583 0.3125,4.61609 0.3125,6.96875 0,1.37522 -0.0181,2.73747 -0.0937,4.09375 3.31493,-0.32581 6.68789,-0.64861 10.09375,-1.03125 8.47865,-0.95849 17.16904,-2.10868 25.875,-3.46875 32.78185,-5.12205 113.3125,-19.67141 113.3125,-66.15625 0,-89.35546 -35.22761,-147.05018 -44.8125,-158.71875 -1.2547,-1.52653 -2.85367,-1.93148 -4.25,-1.90625 z m 59.71875,154.84375 c 0,0 0.40733,5.7489 -0.4375,12.5 -1.97002,15.66543 -11.43444,27.84314 -24.40625,37.375 -5.75094,4.22796 -12.61043,8.39904 -20.6875,11.9375 -25.9512,11.37306 -56.70601,17.48813 -76.78125,20.625 -12.75208,1.98896 -26.08596,3.51685 -39.03125,4.6875 -1.20095,5.73957 -3.08861,11.22643 -5.5625,16.375 71.70486,-6.39119 168.65095,-24.37421 172.125,-75.75 1.00016,-14.75998 -5.21875,-27.75 -5.21875,-27.75 z m 10.03125,41.5625 c -1.31461,6.73973 0.0418,25.28612 -52.90625,47.6875 -15.72605,6.6526 -33.25014,10.9483 -49.84375,14.4375 -26.72405,5.61834 -53.78629,8.99871 -80.96875,11.09375 -4.44012,6.06538 -9.78689,11.3989 -15.875,15.8125 71.06081,-6.31542 184.08852,-22.58938 198.75,-61.03125 4.4136,-11.56628 0.84375,-28 0.84375,-28 z"
       id="path222"
       style="fill:#009b68;fill-opacity:1;fill-rule:nonzero;stroke:none" />
    <path
       d="m 242.47768,298.0943 c -1.25864,0.0871 -2.62089,0.60179 -3.71875,1.9375 -9.58489,11.66857 -44.8125,69.33204 -44.8125,158.6875 0,46.48484 80.53065,61.03799 113.3125,66.15625 21.09056,3.29599 42.17228,5.31135 60.03125,6.53125 13.74845,-8.90675 30.14865,-14.09375 47.75,-14.09375 -25.26169,0 -203.82075,-5.28204 -205.46875,-58.59375 -2.01927,-65.30609 18.27576,-117.63882 34.5625,-154.90625 0.3515,-0.77778 2.04896,-4.76994 2.09375,-4.875 3.15225,5.37327 7.40181,8.0625 12.75,8.0625 l 13.46875,0 c -1.30703,0.71981 -3.05552,1.26509 -5.21875,1.625 -0.22352,0 -0.90228,0.0549 -2.03125,0.1875 l -4.8125,0 3.875,30.25 21.96875,0 18.21875,-20.625 0,20.625 19.75,0 40.1875,-40.1875 -24.96875,0 -16.96875,22.8125 c -0.35991,0.4925 -0.76413,0.82194 -1.21875,1 l -1.15625,0.21875 0,-24.03125 -18.53125,0 -16.90625,22.8125 c -0.63268,0.81074 -1.4932,1.21875 -2.53125,1.21875 l 0,-24.03125 -35.84375,0 c 0,0 -1.45472,-0.74776 -3.25,-0.78125 -0.17454,-0.003 -0.35144,-0.0124 -0.53125,0 z m 132.65625,0.375 c -2.25794,0 -4.34154,0.42505 -6.28125,1.28125 -1.93592,0.8562 -3.29722,2.0083 -4.0625,3.40625 -0.35991,0.67435 -0.53125,1.30482 -0.53125,1.9375 0,1.48888 0.84631,2.77445 2.5625,3.8125 1.75786,0.99259 3.81117,1.46875 6.15625,1.46875 2.25415,0 4.34154,-0.42126 6.28125,-1.28125 1.93971,-0.8562 3.28019,-1.96001 4,-3.3125 0.3637,-0.67814 0.53125,-1.3569 0.53125,-2.03125 0,-1.44342 -0.8501,-2.6807 -2.5625,-3.71875 -1.71619,-1.03805 -3.74867,-1.5625 -6.09375,-1.5625 z m 22.125,0.28125 -15.96875,40.3125 17.9375,0 16.71875,-40.3125 -18.6875,0 z m 42.03125,10.75 c -5.32284,0 -9.3878,0.55853 -12.1875,1.6875 -4.55377,1.89425 -7.8614,4.23534 -9.9375,7.03125 -2.34508,3.15582 -3.53125,6.34418 -3.53125,9.5 0,2.97776 1.22404,5.50723 3.65625,7.625 3.11036,2.66331 8.63602,4 16.53125,4 4.37571,0 8.45108,-0.40801 12.28125,-1.21875 1.40174,-0.31445 2.83783,-0.7395 4.28125,-1.28125 l 5.21875,-5.75 c -2.16323,0 -3.79149,0.2575 -4.875,0.75 -1.93592,0.95091 -3.3313,1.52269 -4.1875,1.75 -1.12897,0.35991 -3.07626,0.53125 -5.78125,0.53125 -2.9323,0 -5.3245,-0.47616 -7.21875,-1.46875 -1.62526,-0.90166 -2.5369,-2.30746 -2.71875,-4.15625 -0.0909,-0.71981 0.12492,-1.70718 0.625,-2.96875 l 6.8125,0 c 5.18645,0 9.06682,-0.13348 11.59375,-0.40625 7.8043,-0.71981 11.6875,-2.69076 11.6875,-5.9375 0,-2.57239 -1.22025,-4.60866 -3.65625,-6.09375 -2.436,-1.53434 -6.01438,-2.58325 -10.75,-3.125 -2.7997,-0.31445 -5.40775,-0.46875 -7.84375,-0.46875 z m 47.6875,0 c -4.96293,0 -8.77798,0.25371 -11.4375,0.75 -1.62526,0.31445 -3.11626,0.8938 -4.46875,1.75 l -10.46875,27.0625 18.53125,0 5.40625,-13.9375 c 2.48146,-6.31542 8.29492,-9.46875 17.40625,-9.46875 3.65211,0 5.75653,1.03565 6.34375,3.0625 l 0,-5.625 c 0,-0.76528 -0.0682,-1.25565 -0.25,-1.4375 -0.17806,-0.17806 -0.70251,-0.37023 -1.5625,-0.59375 -4.69016,-1.04184 -11.19941,-1.5625 -19.5,-1.5625 z m -124.75,3.3125 -10.15625,26.25 17.875,0 10.625,-26.25 -18.34375,0 z m 81.0625,1.28125 c 1.7124,0 3.13807,0.40801 4.3125,1.21875 1.17443,0.81074 1.75,1.89751 1.75,3.25 0,0.81074 -0.57557,1.4895 -1.75,2.03125 -1.17443,0.54175 -2.6001,0.8125 -4.3125,0.8125 l -10.21875,0 c 0.0909,-0.35991 0.2244,-0.68555 0.40625,-1 1.08351,-2.34508 2.33783,-3.96955 3.78125,-4.875 1.48888,-0.94712 3.50432,-1.4375 6.03125,-1.4375 z m 69.0625,6.96875 -3.09375,7.375 19.125,0 2.84375,-7.375 -18.875,0 z M 408.57143,354.8443 c -2.25415,0 -4.34154,0.4563 -6.28125,1.3125 -1.93971,0.8562 -3.29722,1.97705 -4.0625,3.375 -0.3637,0.67435 -0.5625,1.33607 -0.5625,1.96875 0,1.48888 0.88135,2.7432 2.59375,3.78125 1.76165,0.99259 3.80738,1.5 6.15625,1.5 2.25415,0 4.34154,-0.4563 6.28125,-1.3125 1.9435,-0.85999 3.28019,-1.96001 4,-3.3125 0.35991,-0.67814 0.53125,-1.3569 0.53125,-2.03125 0,-1.44342 -0.8501,-2.6807 -2.5625,-3.71875 -1.71619,-1.03426 -3.74867,-1.5625 -6.09375,-1.5625 z m -171.9375,0.40625 c 1.76165,2.70499 3.64362,4.70718 5.625,5.96875 2.16702,1.39795 4.64159,2.09375 7.4375,2.09375 l 15.09375,0 c -0.99259,0.54175 -1.70542,0.89486 -2.15625,1.03125 -1.84879,0.58722 -5.23878,0.875 -10.15625,0.875 l -2.375,0 -11.5625,30.25 47.15625,0 c 2.12156,-1.75786 3.82839,-3.89354 5.09375,-6.375 0.76528,-1.5798 1.30677,-2.67982 1.625,-3.3125 l -25.25,0 2.84375,-6.375 14.53125,0 c 1.89804,-1.75786 3.62191,-3.86229 5.15625,-6.34375 0.49629,-0.85999 1.05482,-1.97705 1.6875,-3.375 l -17.375,0 2.5625,-6.375 17.0625,0 c 1.53055,0 2.552,1.0044 3.09375,3.03125 l 3.125,-9.1875 c 0.0947,-0.76906 -0.16278,-1.27648 -0.75,-1.5 -0.58722,-0.27277 -1.92769,-0.40625 -4,-0.40625 l -58.46875,0 z m 314.09375,10.34375 c -8.9296,0.0457 -15.28206,0.78811 -19.03125,2.25 l -10.6875,27.59375 17.9375,0 7.71875,-17.96875 c 1.30703,-3.11414 4.32688,-4.6875 9.0625,-4.6875 2.84137,0 4.25,1.32344 4.25,3.9375 0,0.8562 -0.17134,1.67222 -0.53125,2.4375 l -6.84375,16.28125 17.9375,0 5.8125,-15 c 0.67435,-1.7124 1.03125,-3.24126 1.03125,-4.59375 0,-4.1484 -2.76614,-7.07927 -8.3125,-8.75 -2.11777,-0.63268 -4.95303,-1.07477 -8.46875,-1.34375 -0.35991,-0.0455 -2.31381,-0.0795 -5.875,-0.125 -1.38138,-0.0223 -2.72434,-0.0378 -4,-0.0312 z m -106.71875,0.15625 c -3.7885,0 -6.83863,0.25371 -9.1875,0.75 -6.62987,1.44342 -11.66516,4.49734 -15.09375,9.1875 -0.81453,1.39795 -1.40713,2.58413 -1.8125,3.53125 -1.35628,2.88683 -2.03125,5.39548 -2.03125,7.5625 0,5.90626 4.3395,8.875 13,8.875 4.10294,0 7.95585,-1.0489 11.5625,-3.125 1.17443,-0.71981 2.56224,-1.80658 4.1875,-3.25 -0.58722,1.39795 -1.02552,2.44686 -1.34375,3.125 -1.03426,2.11777 -2.05288,3.53019 -3,4.25 -0.94712,0.76906 -2.51006,1.40996 -4.71875,1.90625 -2.16702,0.53797 -4.45321,0.8125 -6.84375,0.8125 -3.56119,0 -5.54917,-0.1543 -6,-0.46875 -0.40916,-0.31445 -1.1362,-0.80861 -2.125,-1.4375 l -5.1875,0 0,3.59375 c 0,1.53434 1.77878,2.70347 5.34375,3.46875 3.74303,0.81453 9.08694,1.11935 16.03125,0.9375 1.62526,0 3.31789,-0.0379 5.125,-0.125 6.08811,-0.13639 10.85266,-1.76464 14.28125,-4.875 1.66694,-1.48888 2.89097,-3.13418 3.65625,-4.9375 l 10.09375,-24.90625 c 0.49629,-0.76528 0.75,-1.44403 0.75,-2.03125 0,-1.89425 -1.84789,-2.84375 -5.5,-2.84375 l -21.1875,0 z m -121.375,0.125 c -4.95914,0 -8.77798,0.25371 -11.4375,0.75 -1.62148,0.31445 -3.11626,0.8938 -4.46875,1.75 l -10.46875,27.09375 18.53125,0 5.40625,-13.96875 c 2.48146,-6.31542 8.29492,-9.46875 17.40625,-9.46875 3.65211,0 5.75653,1.03565 6.34375,3.0625 l 0,-5.625 c 0,-0.76528 -0.0682,-1.2244 -0.25,-1.40625 -0.17806,-0.17806 -0.7063,-0.40148 -1.5625,-0.625 -4.69395,-1.03805 -11.19941,-1.5625 -19.5,-1.5625 z m 177.0625,0 c -5.32284,0 -9.36034,0.58978 -12.15625,1.71875 -4.55377,1.89425 -7.89265,4.23534 -9.96875,7.03125 -2.34508,3.15582 -3.5,6.31293 -3.5,9.46875 0,2.97776 1.22025,5.50723 3.65625,7.625 3.11036,2.66331 8.60477,4 16.5,4 4.37192,0 8.47854,-0.40422 12.3125,-1.21875 1.39795,-0.31445 2.80658,-0.7395 4.25,-1.28125 l 5.21875,-5.75 c -2.16702,0 -3.79149,0.25371 -4.875,0.75 -1.93971,0.94334 -3.3313,1.52269 -4.1875,1.75 -1.12897,0.35991 -3.04501,0.53125 -5.75,0.53125 -2.9323,0 -5.35575,-0.47616 -7.25,-1.46875 -1.62526,-0.90166 -2.50565,-2.27621 -2.6875,-4.125 -0.0871,-0.71981 0.0975,-1.70718 0.59375,-2.96875 l 6.84375,0 c 5.18645,0 9.03557,-0.16473 11.5625,-0.4375 7.8043,-0.71981 11.71875,-2.69076 11.71875,-5.9375 0,-2.57239 -1.22025,-4.60866 -3.65625,-6.09375 -2.436,-1.53434 -6.04184,-2.552 -10.78125,-3.09375 -2.79591,-0.31445 -5.41154,-0.5 -7.84375,-0.5 z m -133.40625,0.15625 c -5.45922,0 -9.52798,0.38719 -12.1875,1.15625 -2.66331,0.76528 -4.54149,2.05368 -5.625,3.90625 -0.31823,0.58343 -0.54069,1.51589 -0.71875,2.78125 0.0871,1.03426 0.24144,1.86732 0.46875,2.5 0.90166,2.11777 2.7183,3.79714 5.46875,5.0625 3.15582,1.44342 5.15422,2.40996 5.96875,2.90625 1.98517,1.17443 2.85231,2.24038 2.625,3.1875 -0.49629,2.16702 -3.32776,3.25 -8.46875,3.25 -3.06868,0 -5.73163,-0.39097 -8.03125,-1.15625 -2.25794,-0.76528 -3.375,-1.71857 -3.375,-2.84375 l 0,6.96875 c 0,0.27277 1.81664,0.677 5.46875,1.21875 2.70877,0.45083 5.62543,0.6875 8.78125,0.6875 8.30059,0 14.63471,-0.82927 18.96875,-2.5 4.33025,-1.7124 6.46875,-4.11882 6.46875,-7.1875 0,-1.66694 -1.27515,-3.21283 -3.84375,-4.65625 -1.84879,-1.03426 -4.16905,-2.27533 -6.96875,-3.71875 -2.5686,-1.35249 -3.84375,-2.33607 -3.84375,-2.96875 0,-2.57239 2.45753,-3.875 7.375,-3.875 2.75045,0 5.16348,0.40422 7.28125,1.21875 2.16323,0.76528 3.3494,1.71478 3.53125,2.84375 l 0,-6.5625 c 0,-0.53797 -1.72766,-1.04538 -5.15625,-1.5 -3.69757,-0.4925 -8.41383,-0.71875 -14.1875,-0.71875 z m 29.34375,3.15625 -10.125,26.25 17.84375,0 10.625,-26.25 -18.34375,0 z m 108.0625,1.3125 c 1.7124,0 3.1731,0.40801 4.34375,1.21875 1.17443,0.81074 1.75,1.86626 1.75,3.21875 0,0.81453 -0.57557,1.4895 -1.75,2.03125 -1.17065,0.54175 -2.63135,0.8125 -4.34375,0.8125 l -10.21875,0 c 0.0871,-0.35991 0.2244,-0.68555 0.40625,-1 1.08351,-2.34508 2.33783,-3.96955 3.78125,-4.875 1.48888,-0.94712 3.50432,-1.40625 6.03125,-1.40625 z m -55.875,1.9375 c 0.94712,0 1.79722,0.0653 2.5625,0.15625 l -3.03125,7.625 c -0.62889,1.66694 -1.62668,3.15793 -2.9375,4.46875 -2.25415,2.39054 -4.95497,3.59375 -8.15625,3.59375 -1.49267,0 -2.57565,-0.52445 -3.25,-1.5625 -0.58722,-0.76528 -0.78602,-1.63241 -0.5625,-2.625 0.8562,-4.5121 2.65201,-7.62756 5.40625,-9.34375 2.436,-1.53055 5.77489,-2.3125 9.96875,-2.3125 z m -260.25,48.96875 c -5.75939,0.19463 -41.5625,48.27913 -41.5625,92.9375 0,58.13068 100.15727,82.10254 181.125,92.0625 l 0,-1.1875 c 0,-5.15235 0.43263,-10.18765 1.28125,-15.09375 -74.83795,-9.42578 -166.4375,-30.38371 -166.4375,-75.78125 0,-53.33444 25.84375,-92.90625 25.84375,-92.90625 -0.076,-0.0213 -0.15858,-0.0343 -0.25,-0.0312 z m -4.28125,31.5625 c 0,0 -6.21891,12.99002 -5.21875,27.75 3.34524,49.527 93.5775,68.01023 164.3125,75 3.67105,-5.37966 7.91305,-10.31746 12.65625,-14.75 -16.09353,-1.25399 -33.23789,-3.028 -49.4375,-5.5625 -20.07524,-3.13309 -50.83005,-9.25194 -76.78125,-20.625 -8.08086,-3.53846 -14.93656,-7.70954 -20.6875,-11.9375 -12.96802,-9.53186 -22.44002,-21.70578 -24.40625,-37.375 -0.84862,-6.74731 -0.4375,-12.5 -0.4375,-12.5 z m -10.03125,41.5625 c 0,0 -3.56985,16.43372 0.84375,28 12.01332,31.50134 90.0677,48.11037 156.96875,56.5625 1.42069,-4.56893 3.20231,-8.9709 5.3125,-13.1875 -20.26088,-2.10262 -40.42951,-5.07981 -60.40625,-9.28125 -16.58982,-3.48542 -34.09024,-7.75365 -49.8125,-14.40625 -52.94802,-22.40138 -51.58785,-40.94777 -52.90625,-47.6875 z m 241.78125,45.90625 c -3.52709,0 -9.88911,1.15933 -10.46875,5.53125 -0.65541,4.94778 6.93787,6.46875 10.46875,6.46875 3.53088,0 11.09291,-1.52097 10.4375,-6.46875 -0.57964,-4.37192 -6.90662,-5.53125 -10.4375,-5.53125 z m -25.625,29.90625 c -0.37817,-0.002 -0.7684,0.0213 -1.15625,0.0625 -6.126,0.65162 -11.24896,6.10696 -11.84375,12.1875 -0.59479,6.06538 3.99046,11.46594 10.21875,11.25 6.69048,-0.23489 12.42609,-6.29154 12.6875,-12.90625 0.23086,-5.79285 -4.2337,-10.56488 -9.90625,-10.59375 z m 51.25,0 c -5.67255,0.0285 -10.13711,4.79735 -9.90625,10.59375 0.26519,6.61471 5.99702,12.67136 12.6875,12.90625 6.22829,0.21594 10.81354,-5.18462 10.21875,-11.25 -0.59479,-6.08054 -5.71775,-11.53588 -11.84375,-12.1875 -0.38785,-0.0412 -0.77808,-0.0644 -1.15625,-0.0625 z m -85.96875,7.90625 c -0.35738,-0.0241 -0.77786,0.0554 -1.25,0.28125 -3.41722,1.63663 -4.86165,6.73524 -5.4375,10.15625 -0.32202,1.93213 -0.9267,8.50956 2.5625,7.9375 4.02717,-0.65541 5.72625,-7.49757 6.21875,-10.8125 0.26188,-1.76686 0.40789,-7.39385 -2.09375,-7.5625 z m 120.6875,0 c -2.4991,0.16865 -2.38688,5.79564 -2.125,7.5625 0.4925,3.31493 2.22283,10.15709 6.25,10.8125 3.4892,0.57206 2.88452,-6.00916 2.5625,-7.9375 -0.57585,-3.42101 -2.01649,-8.51962 -5.4375,-10.15625 -0.47167,-0.22589 -0.89299,-0.30534 -1.25,-0.28125 z m -112,37.09375 c -4.41266,0.32373 -5.76927,5.81046 -5.21875,9.625 0.68193,4.73183 3.84578,10.28768 8.8125,11.5 5.3342,1.30324 7.70462,-4.49171 7.25,-8.875 -0.53039,-5.09932 -4.20078,-11.75655 -9.90625,-12.21875 -0.32155,-0.0261 -0.64332,-0.0528 -0.9375,-0.0312 z m 103.3125,0 c -0.29418,-0.0216 -0.61595,0.005 -0.9375,0.0312 -5.70547,0.4622 -9.37965,7.11943 -9.90625,12.21875 -0.45841,4.38329 1.9158,10.17824 7.25,8.875 4.96293,-1.21232 8.13057,-6.76817 8.8125,-11.5 0.55052,-3.81454 -0.80609,-9.30127 -5.21875,-9.625 z m -51.65625,1.71875 c -6.80793,0 -13.13356,5.49222 -12.90625,12.53125 0.21973,6.73595 6.37109,11.8125 12.90625,11.8125 6.53516,0 12.68652,-5.07655 12.90625,-11.8125 0.2311,-7.03903 -6.09832,-12.53125 -12.90625,-12.53125 z m -58.34375,27.59375 c -0.85241,0.0124 -0.61374,1.40889 0,2.65625 2.22385,3.07626 4.59424,5.89065 7.375,8.65625 l 0.0937,0.0937 c 2.31856,1.65557 3.08543,0.51742 1.8125,-1.8125 -1.88288,-3.43617 -4.73905,-6.93052 -8.03125,-9.09375 -0.55312,-0.36464 -0.96586,-0.50414 -1.25,-0.5 z m 83.875,11.40625 c -0.45392,0.0156 -0.90287,0.0658 -1.28125,0.125 -4.15598,0.64404 -10.7584,3.289 -11.53125,8.0625 -0.68951,4.26963 5.49482,4.32774 8.21875,3.8125 3.9855,-0.7577 9.18156,-3.02869 10.75,-7.09375 1.51492,-3.92157 -2.97878,-5.01575 -6.15625,-4.90625 z"
       id="path250"
       style="fill:#231f20;fill-opacity:1;fill-rule:nonzero;stroke:none" />
  </g>
</svg>
